<svg width="71" height="20" viewBox="0 0 71 20" fill="none" xmlns="http://www.w3.org/2000/svg">
<g clip-path="url(#clip0_3686_21073)">
<path d="M22.3072 14.4564C22.5865 14.7955 22.889 15.0349 23.2149 15.1746C23.5474 15.3142 23.8965 15.384 24.2622 15.384C24.6413 15.384 24.9804 15.3175 25.2797 15.1846C25.5856 15.0449 25.8449 14.8321 26.0577 14.5462C26.2705 14.2536 26.4334 13.8845 26.5465 13.439C26.6595 12.9868 26.716 12.4481 26.716 11.823C26.716 10.6992 26.5298 9.88792 26.1574 9.38918C25.7851 8.88379 25.2497 8.63109 24.5515 8.63109C24.0794 8.63109 23.6671 8.74082 23.3146 8.96026C22.9622 9.17306 22.6264 9.47563 22.3072 9.86797V14.4564ZM22.3072 8.13235C22.7195 7.70011 23.175 7.35764 23.6737 7.10495C24.1791 6.8456 24.7543 6.71593 25.3994 6.71593C25.9912 6.71593 26.5232 6.8323 26.9953 7.06505C27.4741 7.29779 27.8798 7.63361 28.2123 8.0725C28.5514 8.50475 28.8107 9.03009 28.9903 9.64853C29.1698 10.267 29.2596 10.9619 29.2596 11.7333C29.2596 12.5645 29.1565 13.3193 28.9504 13.9975C28.7442 14.6758 28.4483 15.2577 28.0626 15.7431C27.6836 16.2219 27.2248 16.5943 26.6861 16.8603C26.1475 17.1263 25.549 17.2593 24.8906 17.2593C24.5714 17.2593 24.2822 17.2261 24.0228 17.1596C23.7635 17.0997 23.5241 17.0133 23.3046 16.9002C23.0852 16.7872 22.8824 16.6508 22.6962 16.4913C22.5166 16.325 22.3437 16.1421 22.1775 15.9426L22.0678 16.6309C22.0279 16.8038 21.958 16.9268 21.8583 17C21.7652 17.0731 21.6355 17.1097 21.4693 17.1097H19.8434V2.28711H22.3072V8.13235Z" fill="black"/>
<path d="M37.7558 10.8156C37.7558 10.4964 37.7093 10.1971 37.6162 9.91785C37.5297 9.6319 37.3967 9.38253 37.2172 9.16973C37.0376 8.95694 36.8082 8.79069 36.5289 8.67099C36.2563 8.54465 35.9371 8.48147 35.5713 8.48147C34.8598 8.48147 34.2979 8.68429 33.8856 9.08994C33.4799 9.49558 33.2206 10.0708 33.1076 10.8156H37.7558ZM33.0577 12.3018C33.0976 12.8272 33.1907 13.2827 33.337 13.6684C33.4833 14.0474 33.6761 14.3633 33.9155 14.616C34.1549 14.862 34.4375 15.0482 34.7634 15.1746C35.0959 15.2943 35.4616 15.3541 35.8606 15.3541C36.2596 15.3541 36.6021 15.3076 36.888 15.2145C37.1806 15.1214 37.4333 15.0183 37.6461 14.9053C37.8655 14.7922 38.0551 14.6891 38.2147 14.596C38.3809 14.5029 38.5405 14.4564 38.6935 14.4564C38.8996 14.4564 39.0525 14.5329 39.1523 14.6858L39.8605 15.5835C39.5879 15.9027 39.282 16.1721 38.9428 16.3915C38.6037 16.6043 38.2479 16.7772 37.8755 16.9102C37.5098 17.0365 37.1341 17.1263 36.7484 17.1795C36.3693 17.2327 36.0003 17.2593 35.6412 17.2593C34.9296 17.2593 34.268 17.1429 33.6562 16.9102C33.0444 16.6708 32.5124 16.3217 32.0602 15.8628C31.608 15.3973 31.2522 14.8255 30.9929 14.1472C30.7335 13.4622 30.6039 12.6709 30.6039 11.7732C30.6039 11.0749 30.7169 10.4199 30.943 9.80812C31.1691 9.18968 31.4916 8.65437 31.9106 8.20218C32.3362 7.74334 32.8515 7.38092 33.4567 7.11492C34.0685 6.84893 34.7567 6.71593 35.5215 6.71593C36.1665 6.71593 36.7617 6.819 37.307 7.02515C37.8522 7.2313 38.3211 7.53386 38.7134 7.93286C39.1057 8.3252 39.4116 8.81064 39.6311 9.38918C39.8572 9.96107 39.9702 10.6161 39.9702 11.3542C39.9702 11.7266 39.9303 11.9793 39.8505 12.1123C39.7707 12.2387 39.6178 12.3018 39.3917 12.3018H33.0577Z" fill="black"/>
<path d="M47.2255 12.7407C46.514 12.774 45.9155 12.8371 45.43 12.9302C44.9446 13.0167 44.5556 13.1297 44.263 13.2694C43.9704 13.409 43.7609 13.572 43.6346 13.7582C43.5082 13.9443 43.4451 14.1472 43.4451 14.3666C43.4451 14.7989 43.5714 15.1081 43.8241 15.2943C44.0834 15.4805 44.4193 15.5736 44.8316 15.5736C45.3369 15.5736 45.7725 15.4838 46.1383 15.3042C46.5106 15.1181 46.8731 14.8388 47.2255 14.4664V12.7407ZM41.5798 8.30193C42.7568 7.22464 44.1732 6.686 45.829 6.686C46.4275 6.686 46.9628 6.78575 47.435 6.98525C47.9071 7.1781 48.3061 7.45074 48.632 7.80318C48.9578 8.14898 49.2038 8.5646 49.3701 9.05004C49.543 9.53548 49.6294 10.0675 49.6294 10.646V17.1097H48.5123C48.2795 17.1097 48.1 17.0764 47.9736 17.0099C47.8473 16.9368 47.7475 16.7938 47.6744 16.581L47.4549 15.8429C47.1956 16.0756 46.9429 16.2818 46.6968 16.4613C46.4508 16.6342 46.1948 16.7805 45.9288 16.9002C45.6628 17.0199 45.3768 17.1097 45.0709 17.1695C44.7717 17.236 44.4392 17.2693 44.0735 17.2693C43.6412 17.2693 43.2422 17.2128 42.8765 17.0997C42.5107 16.98 42.1949 16.8038 41.9289 16.5711C41.6629 16.3383 41.4567 16.049 41.3104 15.7032C41.1641 15.3574 41.091 14.9551 41.091 14.4963C41.091 14.2369 41.1342 13.9809 41.2207 13.7282C41.3071 13.4689 41.4468 13.2228 41.6396 12.9901C41.8391 12.7573 42.0951 12.5379 42.4077 12.3318C42.7202 12.1256 43.1026 11.9461 43.5548 11.7931C44.0136 11.6402 44.5456 11.5171 45.1507 11.424C45.7559 11.3243 46.4475 11.2644 47.2255 11.2445V10.646C47.2255 9.96107 47.0792 9.45568 46.7866 9.12984C46.494 8.79734 46.0718 8.63109 45.5198 8.63109C45.1208 8.63109 44.7883 8.67764 44.5223 8.77074C44.263 8.86384 44.0336 8.97024 43.8341 9.08994C43.6346 9.20298 43.4517 9.30606 43.2855 9.39916C43.1259 9.49225 42.9463 9.5388 42.7468 9.5388C42.5739 9.5388 42.4276 9.49558 42.3079 9.40913C42.1882 9.31603 42.0918 9.20963 42.0187 9.08994L41.5798 8.30193Z" fill="black"/>
<path d="M54.254 8.13235C54.4602 7.92621 54.6763 7.73669 54.9024 7.56379C55.1351 7.38424 55.3778 7.23462 55.6305 7.11492C55.8899 6.98857 56.1659 6.89215 56.4585 6.82565C56.751 6.7525 57.0702 6.71593 57.416 6.71593C57.9746 6.71593 58.47 6.81235 58.9023 7.0052C59.3345 7.1914 59.6936 7.45739 59.9796 7.80318C60.2722 8.14233 60.4916 8.5513 60.6379 9.03009C60.7908 9.50223 60.8673 10.0242 60.8673 10.5961V17.1097H58.4035V10.5961C58.4035 9.97105 58.2606 9.48893 57.9746 9.14979C57.6887 8.80399 57.2531 8.63109 56.6679 8.63109C56.2423 8.63109 55.8433 8.72752 55.4709 8.92036C55.0985 9.11321 54.7461 9.37588 54.4136 9.70837V17.1097H51.9498V6.87553H53.456C53.7752 6.87553 53.9847 7.02515 54.0844 7.32439L54.254 8.13235Z" fill="black"/>
<path d="M69.4547 8.87049C69.3882 8.97689 69.3184 9.05336 69.2452 9.09991C69.1721 9.13981 69.079 9.15976 68.9659 9.15976C68.8462 9.15976 68.7166 9.12651 68.5769 9.06001C68.4439 8.99351 68.2876 8.92036 68.1081 8.84057C67.9286 8.75412 67.7224 8.67764 67.4897 8.61114C67.2636 8.54465 66.9943 8.5114 66.6817 8.5114C66.1963 8.5114 65.8139 8.61447 65.5346 8.82062C65.262 9.02676 65.1256 9.29608 65.1256 9.62858C65.1256 9.84802 65.1955 10.0342 65.3351 10.1872C65.4814 10.3335 65.6709 10.4631 65.9037 10.5762C66.1431 10.6892 66.4124 10.7923 66.7116 10.8854C67.0109 10.9719 67.3134 11.0683 67.6193 11.1747C67.9319 11.2811 68.2378 11.4041 68.537 11.5437C68.8363 11.6767 69.1023 11.8496 69.335 12.0624C69.5744 12.2686 69.7639 12.5179 69.9036 12.8105C70.0499 13.1031 70.123 13.4556 70.123 13.8679C70.123 14.36 70.0332 14.8155 69.8537 15.2344C69.6808 15.6467 69.4215 16.0058 69.0757 16.3117C68.7299 16.611 68.3009 16.847 67.7889 17.0199C67.2835 17.1862 66.6983 17.2693 66.0333 17.2693C65.6809 17.2693 65.3351 17.236 64.996 17.1695C64.6635 17.1097 64.3409 17.0232 64.0284 16.9102C63.7225 16.7971 63.4366 16.6641 63.1706 16.5112C62.9112 16.3583 62.6818 16.192 62.4823 16.0125L63.0509 15.0748C63.124 14.9618 63.2105 14.8753 63.3102 14.8155C63.41 14.7556 63.5363 14.7257 63.6893 14.7257C63.8422 14.7257 63.9852 14.7689 64.1182 14.8554C64.2578 14.9418 64.4174 15.0349 64.597 15.1347C64.7765 15.2344 64.986 15.3275 65.2254 15.414C65.4714 15.5004 65.7806 15.5436 66.153 15.5436C66.4456 15.5436 66.695 15.5104 66.9011 15.4439C67.1139 15.3707 67.2868 15.2776 67.4198 15.1646C67.5595 15.0516 67.6592 14.9219 67.7191 14.7756C67.7856 14.6226 67.8188 14.4664 67.8188 14.3068C67.8188 14.0674 67.7457 13.8712 67.5994 13.7183C67.4597 13.5653 67.2702 13.4323 67.0308 13.3193C66.7981 13.2062 66.5288 13.1065 66.2229 13.02C65.9236 12.9269 65.6144 12.8272 65.2952 12.7208C64.9827 12.6144 64.6734 12.4914 64.3675 12.3517C64.0683 12.2054 63.799 12.0225 63.5596 11.8031C63.3268 11.5836 63.1373 11.3143 62.991 10.9951C62.8514 10.6759 62.7816 10.2902 62.7816 9.83805C62.7816 9.41911 62.8647 9.02011 63.0309 8.64107C63.1972 8.26203 63.4399 7.93286 63.7591 7.65356C64.0849 7.36762 64.4872 7.14152 64.966 6.97527C65.4515 6.80238 66.0101 6.71593 66.6418 6.71593C67.3467 6.71593 67.9884 6.8323 68.5669 7.06505C69.1455 7.29779 69.6276 7.60369 70.0133 7.98273L69.4547 8.87049Z" fill="black"/>
<path d="M8.23633 18.2637C12.7565 18.2637 16.4209 14.5993 16.4209 10.0791C16.4209 8.34484 15.8815 6.7366 14.9613 5.41293C14.7062 6.06446 14.3414 6.74732 13.7303 7.43978C12.6918 8.61664 10.9953 9.76713 8.06874 10.9593C5.25809 12.1042 4.0651 13.1468 3.46986 14.0221C3.17075 14.4617 3.00101 14.8901 2.86148 15.3345C2.82177 15.4608 2.78132 15.6015 2.73872 15.7495C2.70973 15.8502 2.67981 15.9543 2.64849 16.0595C4.11124 17.4268 6.0761 18.2637 8.23633 18.2637Z" fill="black"/>
<path d="M1.53575 14.7801C1.6944 14.2969 1.9113 13.7678 2.286 13.2168C3.10364 12.0147 4.58651 10.8318 7.52868 9.63338C10.3549 8.48205 11.8242 7.43605 12.6568 6.49248C13.3441 5.71371 13.6336 4.96841 13.8778 4.14937C12.4096 2.75216 10.4231 1.89453 8.23633 1.89453C3.71612 1.89453 0.0517578 5.55889 0.0517578 10.0791C0.0517578 11.8287 0.600764 13.4499 1.53575 14.7801Z" fill="black"/>
</g>
<defs>
<clipPath id="clip0_3686_21073">
<rect width="70.1575" height="18.3" fill="white" transform="translate(0 0.849609)"/>
</clipPath>
</defs>
</svg>
