<svg width="18" height="18" viewBox="0 0 24 24" fill="none" xmlns="http://www.w3.org/2000/svg">
<path d="M12 24C18.6274 24 24 18.6274 24 12C24 9.45727 23.2091 7.09931 21.86 5.15857C21.486 6.11384 20.9511 7.11502 20.0551 8.13028C18.5324 9.85578 16.0451 11.5426 11.7543 13.2905C7.63338 14.9691 5.88425 16.4978 5.01153 17.7811C4.57298 18.4257 4.32412 19.0538 4.11953 19.7053C4.06132 19.8904 4.002 20.0968 3.93955 20.3138C3.89705 20.4614 3.85318 20.6141 3.80726 20.7682C5.9519 22.7729 8.83273 24 12 24Z" fill="#F0F5FA"/>
<path d="M2.17579 18.8925C2.40839 18.1841 2.7264 17.4083 3.27578 16.6004C4.47458 14.8379 6.64873 13.1035 10.9625 11.3465C15.1062 9.65844 17.2604 8.12482 18.4812 6.74139C19.4888 5.59958 19.9133 4.50683 20.2713 3.30599C18.1188 1.25743 15.2062 0 12 0C5.37259 0 0 5.37259 0 12C0 14.5651 0.804938 16.9421 2.17579 18.8925Z" fill="#F0F5FA"/>
</svg>
