<svg width="29" height="29" viewBox="0 0 29 29" fill="none" xmlns="http://www.w3.org/2000/svg">
<path d="M28.9995 19.626C28.9995 16.0273 26.935 12.8156 23.843 11.2533C23.747 18.1533 18.1528 23.7475 11.2528 23.8435C12.8151 26.9355 16.0268 29 19.6255 29C21.3128 29 22.9536 28.5506 24.3953 27.6968L28.9586 28.9591L27.6964 24.3957C28.5502 22.954 28.9995 21.3132 28.9995 19.626Z" fill="#82878C"/>
<path fill-rule="evenodd" clip-rule="evenodd" d="M11.0733 0C17.1792 0 22.1465 4.96735 22.1465 11.0733C22.1465 17.1792 17.1792 22.1465 11.0733 22.1465C9.08332 22.1465 7.14581 21.6169 5.44481 20.611L0.0407105 22.1056L1.5355 16.7017C0.52968 15.0007 0 13.0632 0 11.0733C0 4.96735 4.96735 0 11.0733 0ZM9.28571 8.41232H7.57143C7.57143 6.53066 9.10938 5 11 5C12.8906 5 14.4286 6.53066 14.4286 8.41232C14.4286 9.36737 14.0223 10.2853 13.3136 10.9305L11.8571 12.2572V13.5877H10.1429V11.5058L12.1562 9.67173C12.5161 9.34405 12.7143 8.89684 12.7143 8.41232C12.7143 7.47149 11.9453 6.70616 11 6.70616C10.0547 6.70616 9.28571 7.47149 9.28571 8.41232ZM10.1429 17V15.2938H11.8571V17H10.1429Z" fill="#82878C"/>
</svg>
