<svg width="572" height="429" viewBox="0 0 572 429" fill="none" xmlns="http://www.w3.org/2000/svg">
<rect x="0.815063" y="69.7158" width="518" height="359" fill="white"/>
<g filter="url(#filter0_f)">
<path opacity="0.1" d="M494.055 218.006H179.681V258.606H494.055V218.006Z" fill="#D0D0D0"/>
<path opacity="0.1" d="M494.055 260.653H179.681V301.254H494.055V260.653Z" fill="#D0D0D0"/>
<path opacity="0.1" d="M496.59 305.738H177.098C175.782 305.738 174.71 304.666 174.71 303.35C174.71 302.034 175.782 300.961 177.098 300.961H496.59C497.906 300.961 498.978 302.034 498.978 303.35C498.978 304.666 497.906 305.738 496.59 305.738Z" fill="#B5B5B5"/>
<path opacity="0.1" d="M496.59 260.994H177.098C175.782 260.994 174.71 259.922 174.71 258.606C174.71 257.29 175.782 256.218 177.098 256.218H496.59C497.906 256.218 498.978 257.29 498.978 258.606C498.978 259.922 497.906 260.994 496.59 260.994Z" fill="#B5B5B5"/>
<path opacity="0.1" d="M496.59 220.394H177.098C175.782 220.394 174.71 219.322 174.71 218.006C174.71 216.69 175.782 215.617 177.098 215.617H496.59C497.906 215.617 498.978 216.69 498.978 218.006C498.978 219.322 497.906 220.394 496.59 220.394Z" fill="#B5B5B5"/>
<path opacity="0.1" d="M442.439 234.187V254.512C442.439 255.487 441.659 256.218 440.733 256.218H425.673C424.698 256.218 423.967 255.438 423.967 254.512V234.187C423.967 233.212 424.747 232.481 425.673 232.481V227.997H440.733V232.481C441.659 232.481 442.439 233.212 442.439 234.187Z" fill="#9F9F9F"/>
<g opacity="0.1">
<g opacity="0.5">
<path opacity="0.5" d="M441.757 234.87V253.732C441.757 254.609 441.026 255.341 440.149 255.341H426.16C425.283 255.341 424.552 254.609 424.552 253.732V234.87C424.552 233.992 425.283 233.261 426.16 233.261V229.411H440.149V233.261C441.075 233.261 441.757 233.992 441.757 234.87Z" fill="#9F9F9F"/>
</g>
</g>
<path opacity="0.1" d="M440.733 228.339H425.478C424.893 228.339 424.405 227.851 424.405 227.266V225.999C424.405 225.414 424.893 224.927 425.478 224.927H440.733C441.318 224.927 441.806 225.414 441.806 225.999V227.266C441.757 227.851 441.318 228.339 440.733 228.339Z" fill="#4C4C4C"/>
<path opacity="0.1" d="M442.439 238.915H437.858C436.639 237.648 434.982 236.868 433.081 236.868C431.229 236.868 429.523 237.648 428.305 238.915H423.869V247.932H428.207C429.426 249.248 431.132 250.028 433.032 250.028C434.933 250.028 436.639 249.2 437.858 247.932H442.391V238.915H442.439Z" fill="#9F9F9F"/>
<path opacity="0.1" d="M437.322 243.448C437.322 245.788 435.421 247.688 433.081 247.688C430.742 247.688 428.841 245.788 428.841 243.448C428.841 241.109 430.742 239.208 433.081 239.208C435.421 239.208 437.322 241.109 437.322 243.448Z" fill="#CFCFCF"/>
<path opacity="0.1" d="M464.714 234.187V254.512C464.714 255.487 463.934 256.218 463.008 256.218H447.947C446.972 256.218 446.241 255.438 446.241 254.512V234.187C446.241 233.212 447.021 232.481 447.947 232.481V227.997H463.008V232.481C463.934 232.481 464.714 233.212 464.714 234.187Z" fill="#9F9F9F"/>
<g opacity="0.1">
<g opacity="0.5">
<path opacity="0.5" d="M464.031 234.87V253.732C464.031 254.609 463.3 255.341 462.423 255.341H448.434C447.557 255.341 446.826 254.609 446.826 253.732V234.87C446.826 233.992 447.557 233.261 448.434 233.261V229.411H462.423V233.261C463.3 233.261 464.031 233.992 464.031 234.87Z" fill="#9F9F9F"/>
</g>
</g>
<path opacity="0.1" d="M462.959 228.339H447.703C447.118 228.339 446.631 227.851 446.631 227.266V225.999C446.631 225.414 447.118 224.927 447.703 224.927H462.959C463.544 224.927 464.031 225.414 464.031 225.999V227.266C464.031 227.851 463.544 228.339 462.959 228.339Z" fill="#4C4C4C"/>
<path opacity="0.1" d="M464.714 238.915H460.132C458.914 237.648 457.256 236.868 455.355 236.868C453.455 236.868 451.797 237.648 450.579 238.915H446.192V247.932H450.53C451.749 249.248 453.455 250.028 455.355 250.028C457.256 250.028 458.962 249.2 460.181 247.932H464.714V238.915Z" fill="#9F9F9F"/>
<path opacity="0.1" d="M459.596 243.448C459.596 245.788 457.695 247.688 455.355 247.688C453.016 247.688 451.115 245.788 451.115 243.448C451.115 241.109 453.016 239.208 455.355 239.208C457.695 239.208 459.596 241.109 459.596 243.448Z" fill="#CFCFCF"/>
<path opacity="0.1" d="M486.939 234.187V254.512C486.939 255.487 486.159 256.218 485.233 256.218H470.172C469.198 256.218 468.467 255.438 468.467 254.512V234.187C468.467 233.212 469.246 232.481 470.172 232.481V227.997H485.233V232.481C486.208 232.481 486.939 233.212 486.939 234.187Z" fill="#9F9F9F"/>
<g opacity="0.1">
<g opacity="0.5">
<path opacity="0.5" d="M486.305 234.87V253.732C486.305 254.609 485.574 255.341 484.697 255.341H470.709C469.831 255.341 469.1 254.609 469.1 253.732V234.87C469.1 233.992 469.831 233.261 470.709 233.261V229.411H484.697V233.261C485.574 233.261 486.305 233.992 486.305 234.87Z" fill="#9F9F9F"/>
</g>
</g>
<path opacity="0.1" d="M485.233 228.339H469.978C469.393 228.339 468.905 227.851 468.905 227.266V225.999C468.905 225.414 469.393 224.927 469.978 224.927H485.233C485.818 224.927 486.306 225.414 486.306 225.999V227.266C486.306 227.851 485.818 228.339 485.233 228.339Z" fill="#4C4C4C"/>
<path opacity="0.1" d="M486.939 238.915H482.357C481.139 237.648 479.482 236.868 477.581 236.868C475.729 236.868 474.023 237.648 472.804 238.915H468.369V247.932H472.707C473.925 249.248 475.631 250.028 477.532 250.028C479.433 250.028 481.139 249.2 482.357 247.932H486.89V238.915H486.939Z" fill="#9F9F9F"/>
<path opacity="0.1" d="M481.87 243.448C481.87 245.788 479.969 247.688 477.63 247.688C475.29 247.688 473.389 245.788 473.389 243.448C473.389 241.109 475.29 239.208 477.63 239.208C479.969 239.208 481.87 241.109 481.87 243.448Z" fill="#CFCFCF"/>
<path opacity="0.1" d="M250.403 244.374C250.403 248.663 248.6 252.562 245.773 255.146C244.993 255.877 243.969 256.218 242.946 256.218H231.346C230.273 256.218 229.25 255.828 228.519 255.146C225.692 252.562 223.888 248.663 223.888 244.374C223.888 240.816 225.107 237.55 227.154 235.065C227.934 234.09 228.86 233.261 229.835 232.53H244.505C245.529 233.213 246.406 234.09 247.186 235.065C249.185 237.55 250.403 240.816 250.403 244.374Z" fill="#9F9F9F"/>
<g opacity="0.1">
<path d="M249.964 244.423C249.964 248.566 248.21 252.319 245.48 254.805C244.749 255.487 243.726 255.877 242.751 255.877H231.541C230.517 255.877 229.542 255.487 228.811 254.805C226.082 252.27 224.327 248.566 224.327 244.423C224.327 240.962 225.497 237.843 227.495 235.406H246.845C248.795 237.843 249.964 240.962 249.964 244.423Z" fill="#9F9F9F"/>
</g>
<path opacity="0.1" d="M244.7 229.996V232.53H229.786V229.996C229.786 229.508 230.176 229.07 230.712 229.07H243.823C244.31 229.07 244.7 229.508 244.7 229.996Z" fill="#999999"/>
<path opacity="0.1" d="M247.04 244.374C247.04 247.884 242.751 250.711 237.487 250.711C232.223 250.711 227.934 247.884 227.934 244.374C227.934 240.865 232.223 238.038 237.487 238.038C242.751 237.989 247.04 240.865 247.04 244.374Z" fill="#CFCFCF"/>
<path opacity="0.1" d="M245.529 244.374C245.529 247.299 241.922 249.687 237.487 249.687C233.052 249.687 229.445 247.299 229.445 244.374C229.445 241.45 233.052 239.062 237.487 239.062C241.922 239.013 245.529 241.401 245.529 244.374Z" fill="#F8F8F8"/>
<g opacity="0.1">
<path d="M295.78 244.374C295.78 248.663 293.977 252.562 291.15 255.146C290.37 255.877 289.346 256.218 288.323 256.218H276.723C275.65 256.218 274.627 255.828 273.896 255.146C271.069 252.562 269.265 248.663 269.265 244.374C269.265 240.816 270.484 237.551 272.531 235.065C273.311 234.09 274.237 233.261 275.212 232.53H289.883C290.906 233.213 291.783 234.09 292.563 235.065C294.513 237.551 295.78 240.816 295.78 244.374Z" fill="#9F9F9F"/>
<path d="M295.293 244.423C295.293 248.566 293.538 252.319 290.809 254.804C290.078 255.487 289.054 255.877 288.079 255.877H276.869C275.845 255.877 274.871 255.487 274.139 254.804C271.41 252.27 269.655 248.566 269.655 244.423C269.655 240.962 270.825 237.843 272.824 235.406H292.173C294.123 237.843 295.293 240.962 295.293 244.423Z" fill="#9F9F9F"/>
<path d="M290.029 229.996V232.53H275.114V229.996C275.114 229.508 275.504 229.07 276.04 229.07H289.151C289.639 229.07 290.029 229.508 290.029 229.996Z" fill="#999999"/>
<path d="M292.417 244.374C292.417 247.883 288.128 250.71 282.864 250.71C277.6 250.71 273.311 247.883 273.311 244.374C273.311 240.865 277.6 238.038 282.864 238.038C288.128 237.989 292.417 240.865 292.417 244.374Z" fill="#CFCFCF"/>
<path d="M290.857 244.374C290.857 247.298 287.251 249.687 282.815 249.687C278.38 249.687 274.773 247.298 274.773 244.374C274.773 241.449 278.38 239.061 282.815 239.061C287.251 239.012 290.857 241.401 290.857 244.374Z" fill="#F8F8F8"/>
</g>
<g opacity="0.1">
<path d="M320.589 240.816L319.37 255.194C319.273 255.779 318.785 256.218 318.201 256.218H313.327C312.742 256.218 312.254 255.779 312.157 255.194L310.792 240.865C310.5 238.623 311.718 236.576 313.619 235.698V229.362H317.469V235.601C319.517 236.43 320.881 238.525 320.589 240.816Z" fill="#CFCFCF"/>
<path d="M320.102 240.865L318.981 254.805C318.932 255.39 318.444 255.78 317.908 255.78H313.522C312.985 255.78 312.547 255.341 312.498 254.805L311.28 240.962C310.987 238.818 312.644 236.82 314.35 235.991V229.85H316.787V235.894C318.639 236.625 320.345 238.672 320.102 240.865Z" fill="#CFCFCF"/>
<path d="M317.469 229.411H313.619V234.139H317.469V229.411Z" fill="#C8C8C8"/>
<path d="M318.054 245.69C318.054 247.786 317.031 249.443 315.715 249.443C314.448 249.443 313.375 247.737 313.375 245.69C313.375 243.594 314.399 241.937 315.715 241.937C317.031 241.937 318.054 243.594 318.054 245.69Z" fill="#C8C8C8"/>
</g>
<g opacity="0.1">
<path d="M351.539 240.816L350.32 255.194C350.223 255.779 349.735 256.218 349.151 256.218H344.277C343.692 256.218 343.204 255.779 343.107 255.194L341.742 240.865C341.45 238.623 342.668 236.576 344.569 235.698V229.362H348.42V235.601C350.467 236.43 351.831 238.525 351.539 240.816Z" fill="#CFCFCF"/>
<path d="M351.051 240.865L349.979 254.756C349.93 255.341 349.443 255.731 348.907 255.731H344.52C343.984 255.731 343.546 255.292 343.497 254.756L342.278 240.962C341.986 238.818 343.643 236.82 345.349 235.991V229.85H347.786V235.894C349.589 236.625 351.295 238.672 351.051 240.865Z" fill="#CFCFCF"/>
<path d="M348.468 229.411H344.618V234.139H348.468V229.411Z" fill="#C8C8C8"/>
<path d="M349.053 245.69C349.053 247.786 348.03 249.443 346.714 249.443C345.446 249.443 344.374 247.737 344.374 245.69C344.374 243.594 345.398 241.937 346.714 241.937C347.981 241.937 349.053 243.594 349.053 245.69Z" fill="#C8C8C8"/>
</g>
<path opacity="0.1" d="M381.758 240.816L380.539 255.194C380.442 255.779 379.954 256.218 379.37 256.218H374.496C373.911 256.218 373.423 255.779 373.326 255.194L371.961 240.865C371.669 238.623 372.887 236.576 374.788 235.698V229.362H378.638V235.601C380.686 236.43 382.002 238.525 381.758 240.816Z" fill="#CFCFCF"/>
<g opacity="0.1">
<path d="M381.222 240.865L380.149 254.756C380.101 255.341 379.613 255.731 379.077 255.731H374.69C374.154 255.731 373.716 255.292 373.667 254.756L372.448 240.962C372.156 238.818 373.813 236.82 375.519 235.991V229.85H377.956V235.894C379.759 236.625 381.514 238.672 381.222 240.865Z" fill="#CFCFCF"/>
</g>
<path opacity="0.1" d="M378.638 229.411H374.788V234.139H378.638V229.411Z" fill="#C8C8C8"/>
<path opacity="0.1" d="M378.638 227.364H374.739C374.642 227.364 374.544 227.461 374.544 227.559V229.265C374.544 229.362 374.642 229.459 374.739 229.459H378.638C378.736 229.459 378.833 229.362 378.833 229.265V227.559C378.882 227.461 378.785 227.364 378.638 227.364Z" fill="#999999"/>
<path opacity="0.1" d="M379.223 245.69C379.223 247.786 378.2 249.443 376.884 249.443C375.568 249.443 374.544 247.786 374.544 245.69C374.544 243.594 375.568 241.937 376.884 241.937C378.2 241.937 379.223 243.594 379.223 245.69Z" fill="#C8C8C8"/>
<path opacity="0.1" d="M430.839 282.538C430.742 281.855 430.595 281.222 430.352 280.588C430.303 280.539 430.303 280.442 430.254 280.393C429.279 278.395 428.938 276.201 428.938 274.008H426.014C426.014 276.201 425.624 278.443 424.698 280.393C424.649 280.49 424.6 280.588 424.6 280.685C424.357 281.27 424.21 281.904 424.162 282.538C424.113 282.879 424.113 283.22 424.113 283.561V299.499C424.113 300.279 424.747 300.961 425.575 300.961H429.474C430.254 300.961 430.937 300.328 430.937 299.499V283.561C430.937 283.22 430.888 282.879 430.839 282.538Z" fill="#CFCFCF"/>
<path opacity="0.1" d="M430.449 283.513V298.915C430.449 299.694 429.864 300.328 429.182 300.328H425.819C425.137 300.328 424.552 299.694 424.552 298.915V283.513C424.552 283.172 424.552 282.83 424.601 282.489H430.352C430.449 282.83 430.449 283.172 430.449 283.513Z" fill="#353535"/>
<path opacity="0.1" d="M428.938 274.252H426.063C425.575 274.252 425.185 273.862 425.185 273.374C425.185 272.887 425.575 272.497 426.063 272.497H428.938C429.426 272.497 429.816 272.887 429.816 273.374C429.864 273.813 429.474 274.252 428.938 274.252Z" fill="#353535"/>
<path opacity="0.1" d="M430.937 287.46H423.967V295.161H430.937V287.46Z" fill="#F8F8F8"/>
<path opacity="0.1" d="M441.854 282.538C441.757 281.855 441.611 281.222 441.367 280.588C441.318 280.539 441.318 280.442 441.27 280.393C440.295 278.395 439.954 276.201 439.954 274.008H437.029C437.029 276.201 436.639 278.443 435.713 280.393C435.664 280.49 435.616 280.588 435.616 280.685C435.372 281.27 435.226 281.904 435.177 282.538C435.128 282.879 435.128 283.22 435.128 283.561V299.499C435.128 300.279 435.762 300.961 436.591 300.961H440.49C441.27 300.961 441.952 300.328 441.952 299.499V283.561C441.952 283.22 441.903 282.879 441.854 282.538Z" fill="#CFCFCF"/>
<path opacity="0.1" d="M441.464 283.513V298.915C441.464 299.694 440.88 300.328 440.197 300.328H436.834C436.152 300.328 435.567 299.694 435.567 298.915V283.513C435.567 283.172 435.567 282.83 435.616 282.489H441.367C441.416 282.83 441.464 283.172 441.464 283.513Z" fill="#353535"/>
<path opacity="0.1" d="M439.954 274.252H437.078C436.59 274.252 436.201 273.862 436.201 273.374C436.201 272.887 436.59 272.497 437.078 272.497H439.954C440.441 272.497 440.831 272.887 440.831 273.374C440.831 273.813 440.441 274.252 439.954 274.252Z" fill="#353535"/>
<path opacity="0.1" d="M441.952 287.46H434.982V295.161H441.952V287.46Z" fill="#F8F8F8"/>
<path opacity="0.1" d="M452.87 282.538C452.772 281.855 452.626 281.222 452.382 280.588C452.334 280.539 452.334 280.442 452.285 280.393C451.31 278.395 450.969 276.201 450.969 274.008H448.044C448.044 276.201 447.654 278.443 446.728 280.393C446.68 280.49 446.631 280.588 446.631 280.685C446.387 281.27 446.241 281.904 446.192 282.538C446.144 282.879 446.144 283.22 446.144 283.561V299.499C446.144 300.279 446.777 300.961 447.606 300.961H451.505C452.285 300.961 452.967 300.328 452.967 299.499V283.561C452.918 283.22 452.918 282.879 452.87 282.538Z" fill="#767676"/>
<path opacity="0.1" d="M452.48 283.513V298.915C452.48 299.694 451.895 300.328 451.213 300.328H447.85C447.167 300.328 446.582 299.694 446.582 298.915V283.513C446.582 283.172 446.582 282.83 446.631 282.489H452.382C452.431 282.83 452.48 283.172 452.48 283.513Z" fill="#A8A8A8"/>
<path opacity="0.1" d="M450.969 274.252H448.093C447.606 274.252 447.216 273.862 447.216 273.374C447.216 272.887 447.606 272.497 448.093 272.497H450.969C451.456 272.497 451.846 272.887 451.846 273.374C451.846 273.813 451.456 274.252 450.969 274.252Z" fill="#A8A8A8"/>
<path opacity="0.1" d="M452.967 287.46H445.997V295.161H452.967V287.46Z" fill="#D0D0D0"/>
<path opacity="0.1" d="M463.885 282.538C463.787 281.855 463.641 281.222 463.398 280.588C463.349 280.539 463.349 280.442 463.3 280.393C462.325 278.395 461.984 276.201 461.984 274.008H459.06C459.06 276.201 458.67 278.443 457.744 280.393C457.695 280.49 457.646 280.588 457.646 280.685C457.403 281.27 457.256 281.904 457.208 282.538C457.159 282.879 457.159 283.22 457.159 283.561V299.499C457.159 300.279 457.792 300.961 458.621 300.961H462.52C463.3 300.961 463.982 300.328 463.982 299.499V283.561C463.934 283.22 463.934 282.879 463.885 282.538Z" fill="#767676"/>
<path opacity="0.1" d="M463.446 283.513V298.915C463.446 299.694 462.861 300.328 462.179 300.328H458.816C458.134 300.328 457.549 299.694 457.549 298.915V283.513C457.549 283.172 457.549 282.83 457.598 282.489H463.349C463.446 282.83 463.446 283.172 463.446 283.513Z" fill="#A8A8A8"/>
<path opacity="0.1" d="M461.984 274.252H459.108C458.621 274.252 458.231 273.862 458.231 273.374C458.231 272.887 458.621 272.497 459.108 272.497H461.984C462.472 272.497 462.861 272.887 462.861 273.374C462.861 273.813 462.472 274.252 461.984 274.252Z" fill="#A8A8A8"/>
<path opacity="0.1" d="M463.982 287.46H457.013V295.161H463.982V287.46Z" fill="#D0D0D0"/>
<g opacity="0.1">
<path d="M220.525 266.892V300.62C220.525 300.815 220.379 301.01 220.135 301.01H198.885C198.69 301.01 198.495 300.864 198.495 300.62V266.892C198.495 266.697 198.641 266.502 198.885 266.502H220.135C220.379 266.502 220.525 266.649 220.525 266.892Z" fill="#A8A8A8"/>
<path d="M220.525 296.136H198.543V297.55H220.525V296.136Z" fill="#353535"/>
<path d="M217.747 289.702H201.322C200.786 289.702 200.396 289.264 200.396 288.776V278.638C200.396 278.102 200.834 277.712 201.322 277.712H217.747C218.283 277.712 218.673 278.151 218.673 278.638V288.776C218.673 289.313 218.235 289.702 217.747 289.702Z" fill="#D0D0D0"/>
<path d="M220.525 269.67H212.629C212.337 269.67 211.996 269.524 211.801 269.281C211.216 268.647 210.436 268.257 209.51 268.257C208.584 268.257 207.804 268.647 207.219 269.281C207.024 269.524 206.732 269.67 206.391 269.67H198.543V273.18H206.488C206.781 273.18 207.073 273.326 207.317 273.521C207.902 274.106 208.681 274.496 209.559 274.496C210.436 274.496 211.216 274.106 211.801 273.521C211.996 273.277 212.288 273.18 212.629 273.18H220.525V269.67Z" fill="#353535"/>
<path d="M248.6 266.892V300.62C248.6 300.815 248.453 301.01 248.21 301.01H226.959C226.764 301.01 226.569 300.864 226.569 300.62V266.892C226.569 266.697 226.715 266.502 226.959 266.502H248.21C248.453 266.502 248.6 266.648 248.6 266.892Z" fill="#4C4C4C"/>
<path d="M248.6 296.136H226.618V297.55H248.6V296.136Z" fill="#9F9F9F"/>
<path d="M245.821 289.702H229.396C228.86 289.702 228.47 289.264 228.47 288.776V278.638C228.47 278.102 228.909 277.712 229.396 277.712H245.821C246.358 277.712 246.748 278.151 246.748 278.638V288.776C246.748 289.313 246.309 289.702 245.821 289.702Z" fill="#F8F8F8"/>
<path d="M248.6 269.67H240.704C240.411 269.67 240.07 269.524 239.875 269.281C239.29 268.647 238.51 268.257 237.584 268.257C236.658 268.257 235.878 268.647 235.294 269.281C235.099 269.524 234.806 269.67 234.465 269.67H226.569V273.18H234.514C234.806 273.18 235.099 273.326 235.342 273.521C235.927 274.106 236.707 274.496 237.584 274.496C238.462 274.496 239.242 274.106 239.826 273.521C240.021 273.277 240.314 273.18 240.655 273.18H248.6V269.67Z" fill="#9F9F9F"/>
<path d="M275.699 266.892V300.62C275.699 300.815 275.553 301.01 275.309 301.01H254.059C253.864 301.01 253.669 300.864 253.669 300.62V266.892C253.669 266.697 253.815 266.502 254.059 266.502H275.309C275.553 266.502 275.699 266.648 275.699 266.892Z" fill="#A8A8A8"/>
<path d="M275.699 296.136H253.717V297.55H275.699V296.136Z" fill="#353535"/>
<path d="M272.921 289.702H256.496C255.959 289.702 255.569 289.264 255.569 288.776V278.638C255.569 278.102 256.008 277.712 256.496 277.712H272.921C273.457 277.712 273.847 278.151 273.847 278.638V288.776C273.847 289.313 273.457 289.702 272.921 289.702Z" fill="#D0D0D0"/>
<path d="M275.699 269.67H267.803C267.511 269.67 267.17 269.524 266.975 269.281C266.39 268.647 265.61 268.257 264.684 268.257C263.758 268.257 262.978 268.647 262.393 269.281C262.198 269.524 261.906 269.67 261.565 269.67H253.669V273.18H261.613C261.906 273.18 262.198 273.326 262.442 273.521C263.027 274.106 263.807 274.496 264.684 274.496C265.561 274.496 266.341 274.106 266.926 273.521C267.121 273.277 267.413 273.18 267.755 273.18H275.699V269.67Z" fill="#353535"/>
</g>
<g opacity="0.1">
<path d="M359.289 285.803L357.485 299.938C357.388 300.523 356.9 300.961 356.364 300.961H346.811C346.226 300.961 345.739 300.523 345.69 299.938L343.887 285.803C343.838 285.608 343.838 285.364 343.838 285.169C343.838 282.391 346.08 280.052 348.956 280.052C349.053 280.052 349.151 279.954 349.151 279.857V268.452H354.025V279.857C354.025 279.954 354.122 280.052 354.22 280.052C357.29 280.003 359.679 282.732 359.289 285.803Z" fill="#CFCFCF"/>
<path d="M353.878 270.889H349.346C349.053 270.889 348.858 270.645 348.858 270.402V268.354C348.858 268.062 349.102 267.867 349.346 267.867H353.878C354.171 267.867 354.366 268.111 354.366 268.354V270.402C354.366 270.645 354.122 270.889 353.878 270.889Z" fill="#8E8E8E"/>
<path d="M354.025 272.692H349.151V277.615H354.025V272.692Z" fill="#F8F8F8"/>
<path d="M354.902 290.19C354.902 293.066 353.44 295.405 351.636 295.405C349.833 295.405 348.371 293.066 348.371 290.19C348.371 287.314 349.833 284.975 351.636 284.975C353.391 284.975 354.902 287.314 354.902 290.19Z" fill="#F8F8F8"/>
</g>
<g opacity="0.1">
<path d="M394.966 285.803L393.163 299.938C393.065 300.523 392.578 300.961 392.042 300.961H382.489C381.904 300.961 381.417 300.523 381.368 299.938L379.564 285.803C379.516 285.608 379.516 285.364 379.516 285.169C379.516 282.391 381.758 280.052 384.633 280.052C384.731 280.052 384.828 279.954 384.828 279.857V268.452H389.702V279.857C389.702 279.954 389.8 280.052 389.897 280.052C392.968 280.003 395.356 282.732 394.966 285.803Z" fill="#424242"/>
<path d="M389.556 270.889H385.023C384.731 270.889 384.536 270.645 384.536 270.402V268.354C384.536 268.062 384.78 267.867 385.023 267.867H389.556C389.849 267.867 390.044 268.111 390.044 268.354V270.402C390.044 270.645 389.8 270.889 389.556 270.889Z" fill="#999999"/>
<path d="M389.702 272.692H384.828V277.615H389.702V272.692Z" fill="#D0D0D0"/>
<path d="M390.58 290.19C390.58 293.066 389.118 295.405 387.265 295.405C385.462 295.405 384 293.066 384 290.19C384 287.314 385.462 284.975 387.265 284.975C389.069 284.975 390.58 287.314 390.58 290.19Z" fill="#D0D0D0"/>
</g>
<path opacity="0.1" d="M467.735 300.377L469.246 295.308C469.539 294.381 469.539 293.455 469.295 292.529L469.003 291.457L468.71 290.385H476.119L475.778 291.457L475.436 292.481C475.095 293.455 475.095 294.576 475.436 295.551L476.947 300.328C477.045 300.62 476.801 300.913 476.509 300.913H468.174C467.833 300.961 467.638 300.669 467.735 300.377Z" fill="#424242"/>
<g opacity="0.1">
<g opacity="0.5">
<path opacity="0.5" d="M468.223 300.133L469.588 295.259C469.831 294.382 469.831 293.456 469.636 292.578L469.393 291.555H475.436L475.144 292.529C474.852 293.504 474.852 294.528 475.144 295.503L476.509 300.133C476.606 300.425 476.411 300.718 476.119 300.718H468.613C468.32 300.669 468.125 300.377 468.223 300.133Z" fill="#424242"/>
</g>
</g>
<path opacity="0.1" d="M472.366 292.481C471.488 292.481 470.757 293.163 470.66 293.992L470.27 298.086C470.172 299.061 470.952 299.938 471.976 299.938H472.756C473.73 299.938 474.559 299.061 474.462 298.086L474.072 293.992C473.974 293.163 473.243 292.481 472.366 292.481Z" fill="#A8A8A8"/>
<path opacity="0.1" d="M476.07 287.704H468.71C468.515 287.704 468.32 287.85 468.32 288.094V290.044C468.32 290.239 468.467 290.385 468.661 290.385H476.021C476.216 290.385 476.362 290.239 476.362 290.044V288.094C476.411 287.899 476.265 287.704 476.07 287.704Z" fill="#767676"/>
<path opacity="0.1" d="M478.312 300.377L479.823 295.308C480.116 294.381 480.116 293.455 479.872 292.529L479.579 291.457L479.287 290.385H486.695L486.354 291.457L486.013 292.481C485.672 293.455 485.672 294.576 486.013 295.551L487.524 300.328C487.622 300.62 487.378 300.913 487.085 300.913H478.751C478.458 300.961 478.263 300.669 478.312 300.377Z" fill="#424242"/>
<g opacity="0.1">
<g opacity="0.5">
<path opacity="0.5" d="M478.8 300.133L480.164 295.259C480.408 294.382 480.408 293.456 480.164 292.578L479.921 291.555H485.964L485.672 292.529C485.379 293.504 485.379 294.528 485.672 295.503L487.037 300.133C487.134 300.425 486.939 300.718 486.647 300.718H479.189C478.946 300.669 478.751 300.377 478.8 300.133Z" fill="#424242"/>
</g>
</g>
<path opacity="0.1" d="M482.942 292.481C482.065 292.481 481.334 293.163 481.236 293.992L480.847 298.086C480.749 299.061 481.529 299.938 482.552 299.938H483.332C484.307 299.938 485.087 299.061 485.038 298.086L484.648 293.992C484.551 293.163 483.82 292.481 482.942 292.481Z" fill="#A8A8A8"/>
<path opacity="0.1" d="M486.647 287.704H479.287C479.092 287.704 478.897 287.85 478.897 288.094V290.044C478.897 290.239 479.043 290.385 479.238 290.385H486.647C486.842 290.385 486.988 290.239 486.988 290.044V288.094C487.037 287.899 486.89 287.704 486.647 287.704Z" fill="#767676"/>
<path opacity="0.1" d="M312.254 284.731V274.057H308.404V284.828C306.503 285.706 305.284 287.753 305.577 289.995L306.942 299.889C307.039 300.474 307.527 300.913 308.111 300.913H312.985C313.57 300.913 314.106 300.474 314.155 299.889L315.374 289.946C315.666 287.607 314.301 285.511 312.254 284.731Z" fill="#999999"/>
<path opacity="0.1" d="M312.254 274.057H308.404V278.785H312.254V274.057Z" fill="#F8F8F8"/>
<path opacity="0.1" d="M312.254 272.643H308.355C308.258 272.643 308.16 272.741 308.16 272.838V274.544C308.16 274.642 308.258 274.739 308.355 274.739H312.254C312.352 274.739 312.449 274.642 312.449 274.544V272.838C312.449 272.741 312.352 272.643 312.254 272.643Z" fill="#353535"/>
<path opacity="0.1" d="M312.79 292.286C312.79 294.381 311.767 296.038 310.451 296.038C309.184 296.038 308.111 294.333 308.111 292.286C308.111 290.19 309.135 288.533 310.451 288.533C311.767 288.484 312.79 290.19 312.79 292.286Z" fill="#CFCFCF"/>
<path opacity="0.1" d="M348.468 227.705H344.569C344.472 227.705 344.374 227.802 344.374 227.9V229.606C344.374 229.703 344.472 229.801 344.569 229.801H348.468C348.566 229.801 348.663 229.703 348.663 229.606V227.9C348.663 227.754 348.614 227.705 348.468 227.705Z" fill="#999999"/>
<path opacity="0.1" d="M317.372 227.705H313.473C313.375 227.705 313.278 227.802 313.278 227.9V229.606C313.278 229.703 313.375 229.801 313.473 229.801H317.372C317.469 229.801 317.567 229.703 317.567 229.606V227.9C317.567 227.754 317.469 227.705 317.372 227.705Z" fill="#999999"/>
</g>
<g opacity="0.3">
<path d="M86.2456 149.26H20.3184V377.165H86.2456V149.26Z" fill="#FAFAFA"/>
<path d="M168.607 114.963H12.1269V139.509H168.607V114.963Z" fill="#E0E0E0"/>
<path d="M160.364 149.26H94.4372V377.165H160.364V149.26Z" fill="#FAFAFA"/>
<path d="M86.2456 204.541H20.3184V208.797H86.2456V204.541Z" fill="#E0E0E0"/>
<path d="M86.2456 258.981H20.3184V263.237H86.2456V258.981Z" fill="#E0E0E0"/>
<path d="M86.2456 313.371H20.3184V317.628H86.2456V313.371Z" fill="#E0E0E0"/>
<path d="M160.364 204.541H94.4372V208.797H160.364V204.541Z" fill="#E0E0E0"/>
<path d="M160.364 258.981H94.4372V263.237H160.364V258.981Z" fill="#E0E0E0"/>
<path d="M160.364 313.371H94.4372V317.628H160.364V313.371Z" fill="#E0E0E0"/>
<path d="M66.507 166.483V203.997C66.507 204.244 66.3096 204.393 66.1122 204.393H42.5245C42.2777 204.393 42.1297 204.195 42.1297 203.997V166.483C42.1297 166.235 42.3271 166.087 42.5245 166.087H66.1122C66.3096 166.087 66.507 166.285 66.507 166.483Z" fill="#E3E3E3"/>
<path d="M66.507 199.048H42.1297V200.631H66.507V199.048Z" fill="#B3B3B3"/>
<path d="M63.3981 191.921H45.1892C44.597 191.921 44.1529 191.476 44.1529 190.882V179.647C44.1529 179.054 44.597 178.608 45.1892 178.608H63.3981C63.9903 178.608 64.4344 179.054 64.4344 179.647V190.882C64.4344 191.426 63.9903 191.921 63.3981 191.921Z" fill="white"/>
<path d="M66.507 169.601H57.7726C57.4272 169.601 57.0818 169.452 56.835 169.205C56.1935 168.512 55.3053 168.067 54.3183 168.067C53.3314 168.067 52.3938 168.512 51.8017 169.205C51.5549 169.452 51.2588 169.601 50.8641 169.601H42.1297V173.461H50.9628C51.3082 173.461 51.6043 173.61 51.851 173.857C52.4925 174.5 53.3808 174.946 54.3183 174.946C55.3053 174.946 56.1935 174.55 56.7857 173.857C57.0324 173.61 57.3285 173.461 57.6739 173.461H66.507V169.601Z" fill="#B3B3B3"/>
<path d="M140.28 177.47V202.166C140.28 203.304 139.343 204.244 138.208 204.244H119.95C118.815 204.244 117.877 203.304 117.877 202.166V177.47C117.877 176.331 118.815 175.391 119.95 175.391V169.947H138.208V175.391C139.343 175.391 140.28 176.331 140.28 177.47Z" fill="#D6D6D6"/>
<path d="M139.441 178.014V201.275C139.441 202.364 138.553 203.255 137.468 203.255H120.295C119.209 203.255 118.321 202.364 118.321 201.275V178.014C118.321 176.925 119.209 176.035 120.295 176.035V171.333H137.468V176.035C138.603 176.084 139.441 176.975 139.441 178.014Z" fill="#F4F4F4"/>
<path d="M138.208 170.343H119.703C119.012 170.343 118.42 169.749 118.42 169.056V167.522C118.42 166.829 119.012 166.235 119.703 166.235H138.208C138.899 166.235 139.491 166.829 139.491 167.522V169.056C139.441 169.749 138.899 170.343 138.208 170.343Z" fill="#B3B3B3"/>
<path d="M140.28 183.211H134.704C133.273 181.676 131.201 180.736 128.931 180.736C126.661 180.736 124.637 181.676 123.157 183.211H117.828V194.148H123.108C124.539 195.732 126.611 196.722 128.931 196.722C131.25 196.722 133.322 195.732 134.754 194.148H140.231V183.211H140.28Z" fill="#DEDEDE"/>
<path d="M134.063 188.704C134.063 191.525 131.743 193.851 128.931 193.851C126.118 193.851 123.799 191.525 123.799 188.704C123.799 185.883 126.118 183.557 128.931 183.557C131.793 183.557 134.063 185.883 134.063 188.704Z" fill="white"/>
<path d="M51.3082 242.006V230.771H47.2618V242.105C45.2879 243.045 44.0049 245.173 44.301 247.499L45.732 257.843C45.8307 258.437 46.3242 258.932 46.9657 258.932H52.0484C52.6899 258.932 53.1834 258.486 53.2821 257.843L54.5651 247.4C54.8118 245.025 53.4301 242.847 51.3082 242.006Z" fill="#C7C7C7"/>
<path d="M51.3082 230.771H47.2618V235.72H51.3082V230.771Z" fill="#E3E3E3"/>
<path d="M51.3082 228.693H47.2125C47.1138 228.693 47.0151 228.792 47.0151 228.891V230.672C47.0151 230.771 47.1138 230.87 47.2125 230.87H51.3082C51.4069 230.87 51.5056 230.771 51.5056 230.672V228.891C51.555 228.792 51.4563 228.693 51.3082 228.693Z" fill="#ADADAD"/>
<path d="M51.8511 249.924C51.8511 252.102 50.7654 253.884 49.4331 253.884C48.1007 253.884 47.0151 252.102 47.0151 249.924C47.0151 247.747 48.1007 245.965 49.4331 245.965C50.7654 245.965 51.8511 247.747 51.8511 249.924Z" fill="#E3E3E3"/>
<path d="M63.7929 236.265V225.03H59.5491V236.364C57.4766 237.304 56.1442 239.086 56.4403 241.511L57.9207 257.793C58.0194 258.437 58.5622 258.932 59.2037 258.932H64.5331C65.1746 258.932 65.7175 258.437 65.8162 257.793L67.1485 241.461C67.4939 238.937 66.0135 237.156 63.7929 236.265Z" fill="#ABABAB"/>
<path d="M63.8423 220.923H59.5985V226.07H63.8423V220.923Z" fill="#E3E3E3"/>
<path d="M63.8423 219.784H59.5985C59.4998 219.784 59.4011 219.883 59.4011 219.982V221.863C59.4011 221.962 59.4998 222.061 59.5985 222.061H63.8423C63.941 222.061 64.0397 221.962 64.0397 221.863V219.982C64.089 219.883 63.9903 219.784 63.8423 219.784Z" fill="#ADADAD"/>
<path d="M148.126 258.981H106.626C106.379 258.981 106.182 258.783 106.182 258.536V232.306C106.182 232.058 106.379 231.86 106.626 231.86H148.126C148.373 231.86 148.571 232.058 148.571 232.306V258.536C148.571 258.783 148.373 258.981 148.126 258.981Z" fill="#E0E0E0"/>
<path d="M123.502 237.997H135.642C139.738 237.997 142.994 241.313 142.994 245.371C142.994 249.479 139.688 252.745 135.642 252.745H123.502C119.407 252.745 116.15 249.429 116.15 245.371C116.15 241.313 119.407 237.997 123.502 237.997Z" fill="white"/>
<path d="M124.144 239.234H135C138.405 239.234 141.119 242.006 141.119 245.371C141.119 248.786 138.356 251.508 135 251.508H124.144C120.739 251.508 118.025 248.737 118.025 245.371C118.025 242.006 120.788 239.234 124.144 239.234Z" fill="#ADADAD"/>
<path d="M37.7378 377.066V347.322C37.7378 347.124 37.9352 346.976 38.1819 346.976H64.3357C64.5824 346.976 64.7798 347.124 64.7798 347.322V377.066C64.7798 377.264 64.5824 377.412 64.3357 377.412H38.1819C37.9352 377.363 37.7378 377.264 37.7378 377.066Z" fill="#E0E0E0"/>
<path d="M58.6608 359.398V368.108C58.6608 371.028 55.3546 373.404 51.3082 373.404C47.2124 373.404 43.9555 371.028 43.9555 368.108V359.398C43.9555 356.478 47.2618 354.102 51.3082 354.102C55.3546 354.102 58.6608 356.478 58.6608 359.398Z" fill="white"/>
<path d="M57.4272 359.893V367.663C57.4272 370.088 54.6638 372.067 51.3082 372.067C47.9033 372.067 45.1892 370.088 45.1892 367.663V359.893C45.1892 357.468 47.9526 355.488 51.3082 355.488C54.6638 355.488 57.4272 357.468 57.4272 359.893Z" fill="#ADADAD"/>
<path d="M65.076 309.462C65.076 309.808 65.076 310.204 65.076 310.55C65.076 311.144 65.076 311.738 65.0266 312.283C65.0266 312.827 64.5332 313.322 63.9903 313.322H42.6232C42.031 313.322 41.5869 312.876 41.5869 312.332C41.5869 311.738 41.5376 311.144 41.5376 310.6C41.5376 310.204 41.5376 309.858 41.4882 309.511C41.4389 306.591 41.4389 303.671 41.5869 300.9C41.6856 298.772 41.883 296.743 42.1297 294.713C42.6232 290.556 43.4621 286.646 44.7945 283.034H61.8191C63.1021 286.498 63.941 290.457 64.4345 294.713C64.6812 296.693 64.8292 298.772 64.9279 300.9C65.076 303.671 65.076 306.542 65.076 309.462Z" fill="#E0E0E0"/>
<path d="M64.9279 300.85H41.6362C41.7349 298.722 41.9323 296.693 42.1791 294.664H64.4838C64.6812 296.693 64.8292 298.722 64.9279 300.85Z" fill="#ADADAD"/>
<path d="M61.8191 282.984H44.7451L44.2023 280.51C44.1036 280.064 44.4491 279.668 44.8932 279.668H61.7204C62.1645 279.668 62.51 280.064 62.4113 280.51L61.8191 282.984Z" fill="#C7C7C7"/>
<path d="M65.0266 309.511C65.0266 309.858 65.0266 310.253 65.0266 310.6H41.5376C41.5376 310.253 41.5376 309.858 41.4882 309.511H65.0266Z" fill="#ADADAD"/>
<path d="M58.8089 297.633C58.8089 302.632 56.3416 306.69 53.2821 306.69C50.2226 306.69 47.7552 302.632 47.7552 297.633C47.7552 292.635 50.2226 288.577 53.2821 288.577C56.3416 288.577 58.8089 292.635 58.8089 297.633Z" fill="#ADADAD"/>
<path d="M57.822 297.633C57.822 301.741 55.7987 305.106 53.2821 305.106C50.7654 305.106 48.7422 301.741 48.7422 297.633C48.7422 293.526 50.7654 290.16 53.2821 290.16C55.7987 290.16 57.822 293.476 57.822 297.633Z" fill="white"/>
<path d="M105.145 312.53L107.317 305.403C107.711 304.117 107.711 302.78 107.366 301.494L106.971 300.009L106.527 298.475H116.939L116.446 300.009L115.952 301.444C115.459 302.83 115.459 304.364 115.903 305.799L118.074 312.53C118.222 312.926 117.926 313.371 117.482 313.371H105.787C105.294 313.371 104.997 312.975 105.145 312.53Z" fill="#C9C9C9"/>
<path d="M105.787 312.184L107.711 305.255C108.057 304.018 108.057 302.681 107.761 301.444L107.366 300.009H115.854L115.41 301.395C114.965 302.78 114.965 304.216 115.36 305.601L117.285 312.134C117.383 312.53 117.137 312.926 116.742 312.926H106.28C105.984 312.975 105.688 312.579 105.787 312.184Z" fill="#C9C9C9"/>
<path d="M111.61 301.395C110.376 301.395 109.34 302.335 109.241 303.572L108.698 309.363C108.55 310.748 109.685 311.986 111.067 311.986H112.153C113.534 311.986 114.669 310.798 114.521 309.363L113.979 303.572C113.88 302.335 112.844 301.395 111.61 301.395Z" fill="white"/>
<path d="M116.841 294.713H106.478C106.182 294.713 105.984 294.961 105.984 295.208V297.98C105.984 298.277 106.231 298.475 106.478 298.475H116.841C117.137 298.475 117.334 298.227 117.334 297.98V295.208C117.383 294.911 117.137 294.713 116.841 294.713Z" fill="#ADADAD"/>
<path d="M121.973 312.481L124.391 304.562C124.835 303.127 124.835 301.642 124.44 300.207L123.996 298.524L123.502 296.842H135.05L134.507 298.524L133.964 300.157C133.421 301.741 133.421 303.424 133.915 305.008L136.283 312.53C136.431 312.976 136.086 313.421 135.642 313.421H122.664C122.17 313.371 121.874 312.926 121.973 312.481Z" fill="#C9C9C9"/>
<path d="M122.762 312.085L124.934 304.414C125.328 303.028 125.328 301.593 124.983 300.207L124.588 298.623H134.013L133.52 300.207C133.076 301.741 133.026 303.374 133.471 304.909L135.592 312.184C135.74 312.629 135.444 313.075 135 313.075H123.354C122.91 312.926 122.614 312.481 122.762 312.085Z" fill="#C9C9C9"/>
<path d="M129.227 300.058C127.845 300.058 126.71 301.098 126.562 302.484L125.92 308.917C125.772 310.501 127.006 311.837 128.585 311.837H129.77C131.349 311.837 132.533 310.501 132.434 308.917L131.842 302.484C131.743 301.098 130.608 300.058 129.227 300.058Z" fill="white"/>
<path d="M135.05 292.585H123.503C123.206 292.585 122.91 292.833 122.91 293.179V296.248C122.91 296.545 123.157 296.842 123.503 296.842H135.05C135.346 296.842 135.642 296.594 135.642 296.248V293.179C135.592 292.833 135.346 292.585 135.05 292.585Z" fill="#ADADAD"/>
<path d="M141.909 312.679L143.735 306.74C144.08 305.651 144.08 304.513 143.784 303.473L143.439 302.236L143.093 300.999H151.778L151.383 302.236L150.989 303.473C150.594 304.661 150.594 305.899 150.989 307.086L152.765 312.728C152.864 313.075 152.617 313.421 152.272 313.421H142.402C142.057 313.372 141.81 313.025 141.909 312.679Z" fill="#C9C9C9"/>
<path d="M142.452 312.382L144.08 306.641C144.376 305.601 144.376 304.513 144.129 303.473L143.833 302.286H150.89L150.544 303.473C150.199 304.612 150.199 305.849 150.544 306.987L152.173 312.431C152.272 312.778 152.025 313.074 151.729 313.074H142.994C142.6 313.025 142.402 312.728 142.452 312.382Z" fill="#C9C9C9"/>
<path d="M147.337 303.375C146.301 303.375 145.462 304.166 145.363 305.156L144.919 310.006C144.82 311.194 145.708 312.184 146.893 312.184H147.781C148.965 312.184 149.854 311.194 149.755 310.006L149.311 305.156C149.212 304.166 148.373 303.375 147.337 303.375Z" fill="white"/>
<path d="M151.679 297.782H143.044C142.797 297.782 142.6 297.98 142.6 298.227V300.504C142.6 300.751 142.797 300.949 143.044 300.949H151.679C151.926 300.949 152.124 300.751 152.124 300.504V298.227C152.124 297.98 151.926 297.782 151.679 297.782Z" fill="#ADADAD"/>
</g>
<path d="M16.8151 378.716H158.225L195.687 407.716H513.815" stroke="#949494" stroke-width="1.05625"/>
<path d="M230.372 317.886L234.263 318.231L233.576 325.991L229.685 325.646L230.372 317.886Z" fill="#69497C"/>
<path d="M230.145 318.217L234.435 318.597C234.984 318.646 235.472 318.238 235.521 317.691L235.547 317.392C235.596 316.845 235.186 316.358 234.638 316.309L230.347 315.929C229.799 315.881 229.31 316.288 229.261 316.836L229.235 317.134C229.187 317.681 229.596 318.169 230.145 318.217Z" fill="#F3F3F3"/>
<path d="M252.025 319.805L255.916 320.15L255.228 327.909L251.337 327.564L252.025 319.805Z" fill="#FAD243"/>
<path d="M251.797 320.135L256.087 320.516C256.636 320.564 257.124 320.156 257.173 319.609L257.199 319.311C257.248 318.764 256.838 318.276 256.29 318.228L252 317.847C251.451 317.799 250.962 318.207 250.914 318.754L250.887 319.052C250.839 319.599 251.248 320.087 251.797 320.135Z" fill="#69497C"/>
<path d="M253.754 261.105C253.822 261.087 253.916 261.026 253.984 261.008C261.233 259.931 261.746 270.288 262.273 272.502C262.799 274.716 263.466 282.075 264.374 286.369L266.306 295.256C273.45 295.448 274.799 302.258 274.799 302.258C274.239 305.692 266.497 300.577 266.497 300.577C269.348 303.636 266.172 302.817 266.172 302.817C261.397 299.672 261.133 296.16 261.133 296.16C261.133 296.16 260.68 294.853 260.004 292.836C257.437 285.429 251.501 268.119 251.429 267.845C250.513 264.357 251.826 262.116 253.754 261.105Z" fill="#C1876F"/>
<path d="M191.363 393.335L191.33 393.131C192.999 391.324 194.667 389.517 196.231 387.751C196.901 387.008 197.515 386.31 198.18 385.617C235.149 344.026 240.109 320.955 240.109 320.955C250.668 340.238 257.03 363.209 262.446 388.904C262.653 389.975 262.909 391.051 263.116 392.122C263.814 395.593 264.512 399.063 265.201 402.633C266.873 401.929 269.069 400.971 270.482 400.344C270.411 397.18 270.335 394.065 270.196 391.095C270.138 390.037 270.127 389.033 270.065 388.025C267.377 333.246 255.858 307.762 255.858 307.762L219.591 304.549C220.069 324.694 210.073 351.831 192.821 380.28L191.173 382.991C189.71 385.318 188.242 387.694 186.675 390.062L186.395 390.388L191.363 393.335Z" fill="#203544"/>
<path d="M253.335 237.067L252.525 233.428C252.172 231.748 250.632 230.613 248.909 230.717L253.335 237.067Z" fill="#A4CF52"/>
<path d="M237.49 222.015L240.764 233.854L253.185 237.621L253.357 237.677L253.167 237.367L248.326 229.069L247.161 227.112L242.966 224.904L238.524 222.558L237.49 222.015Z" fill="#C1876F"/>
<path d="M237.113 222.233L237.319 222.636C237.436 222.805 237.489 222.945 237.606 223.114C238.921 225.18 240.792 226.875 243.032 227.845C244.691 228.553 246.396 228.817 247.914 228.725C248.277 228.694 248.64 228.664 248.986 228.587C249.63 228.45 250.304 228.25 250.913 228.02C254.374 226.553 256.238 221.42 254.645 217.058C258.516 215.117 252.29 212.236 252.29 212.236C249.135 204.3 245.436 202.867 242.178 203.456C240.872 203.682 239.642 204.253 238.524 204.835C236.831 205.741 235.726 207.919 235.096 210.505C234.233 214.46 235.029 218.696 237.113 222.233Z" fill="#C1876F"/>
<path d="M238.167 227.012C238.39 227.035 238.548 227.028 238.771 227.051C239.691 227.078 240.429 226.906 240.956 226.6C241.623 226.242 242.062 225.702 242.272 224.983C242.535 223.976 242.346 222.767 241.665 221.529C242.432 221.293 242.988 220.923 243.369 220.512C241.845 220.447 239.741 219.693 239.23 218.339C238.542 216.517 239.073 214.662 240.385 214.166C241.182 213.866 242.096 214.161 242.818 214.796C242.718 214.674 242.601 214.505 242.548 214.364C241.661 213.151 241.619 211.619 242.104 210.209C242.086 210.162 242.133 210.145 242.115 210.098C242.372 209.36 242.324 208.525 241.925 207.608C243.836 208.274 247.885 208.081 248.227 205.443C248.245 205.49 248.309 205.519 248.327 205.565C250.932 208.212 256.024 203.408 252.629 201.22C255.089 200.505 248.329 196.492 242.749 200.572C242.702 200.59 242.655 200.607 242.626 200.672C241.777 201.259 240.811 201.677 239.797 201.686C220.784 202.51 224.49 226.089 238.167 227.012Z" fill="#673919"/>
<path d="M246.943 318.152L235.437 304.45C235.027 303.962 234.279 303.896 233.84 304.308C233.352 304.716 233.285 305.462 233.699 305.9L245.205 319.602C245.615 320.089 246.363 320.156 246.802 319.743C247.29 319.336 247.352 318.639 246.943 318.152Z" fill="#B5B5B5"/>
<path d="M239.632 306.476L225.896 317.942C225.407 318.349 224.659 318.283 224.3 317.8C223.89 317.313 223.956 316.567 224.441 316.208L238.181 304.693C238.67 304.285 239.418 304.351 239.777 304.834C240.187 305.322 240.121 306.068 239.632 306.476Z" fill="#B5B5B5"/>
<path d="M213.63 316.203C214.466 315.274 215.662 314.829 216.909 314.939L224.442 315.607L226.737 315.81L231.626 316.243L233.92 316.446L238.809 316.88L241.104 317.083L245.993 317.516L248.288 317.719L254.124 318.236C255.322 318.342 256.371 318.987 257.04 319.948C257.704 320.96 257.898 322.18 257.497 323.297L257.295 323.881L256.606 325.976L255.77 328.609L255.081 330.703L254.245 333.336L253.556 335.431L252.72 338.064L252.031 340.158L251.262 342.596C250.705 344.352 248.998 345.454 247.152 345.29L245.756 345.167L243.461 344.963L238.572 344.53L236.277 344.327L231.388 343.894L229.093 343.69L224.205 343.257L221.91 343.054L219.715 342.86C217.919 342.7 216.478 341.37 216.179 339.639L215.714 336.941L215.305 334.749L214.795 331.997L214.386 329.805L213.875 327.053L213.466 324.861L212.956 322.109L212.547 319.917L212.486 319.46C212.438 318.303 212.798 317.082 213.63 316.203ZM226.211 321.177L231.1 321.611L231.355 318.726L226.467 318.293L226.211 321.177ZM238.144 324.39L233.255 323.957L233.017 326.643L237.906 327.076L238.144 324.39ZM232.54 331.463L237.429 331.896L237.667 329.21L232.778 328.777L232.54 331.463ZM240.201 327.279L245.09 327.713L245.328 325.027L240.439 324.593L240.201 327.279ZM239.773 332.104L244.662 332.537L244.9 329.851L240.011 329.418L239.773 332.104ZM239.346 336.929L244.235 337.362L244.473 334.676L239.584 334.243L239.346 336.929ZM237.289 334.04L232.4 333.607L232.162 336.292L237.051 336.726L237.289 334.04ZM230.056 333.399L225.167 332.966L224.929 335.652L229.818 336.085L230.056 333.399ZM230.483 328.574L225.594 328.141L225.356 330.827L230.245 331.26L230.483 328.574ZM230.91 323.749L226.022 323.316L225.784 326.002L230.672 326.435L230.91 323.749ZM233.395 321.814L238.283 322.247L238.539 319.362L233.65 318.929L233.395 321.814ZM240.628 322.455L245.517 322.888L245.773 320.003L240.884 319.57L240.628 322.455ZM255.097 322.584C255.232 322.194 255.172 321.738 254.903 321.363C254.635 320.989 254.253 320.754 253.854 320.719L248.017 320.202L247.762 323.087L254.696 323.701L255.097 322.584ZM254.107 325.804L247.622 325.23L247.384 327.916L253.271 328.437L254.107 325.804ZM252.583 330.532L247.195 330.055L246.957 332.741L251.746 333.165L252.583 330.532ZM251.058 335.259L246.767 334.879L246.529 337.565L250.221 337.892L251.058 335.259ZM247.468 342.862C248.166 342.924 248.755 342.525 248.962 341.891L249.583 339.991L246.39 339.708L246.121 342.743L247.468 342.862ZM244.045 339.501L239.156 339.068L238.888 342.102L243.776 342.535L244.045 339.501ZM236.862 338.864L231.973 338.431L231.704 341.465L236.593 341.898L236.862 338.864ZM229.628 338.223L224.739 337.79L224.47 340.824L229.359 341.258L229.628 338.223ZM218.676 339.258C218.773 339.869 219.332 340.369 219.981 340.427L222.176 340.621L222.444 337.587L218.304 337.22L218.676 339.258ZM217.945 335.033L222.634 335.448L222.872 332.762L217.434 332.281L217.945 335.033ZM217.075 330.093L223.061 330.624L223.299 327.938L216.565 327.341L217.075 330.093ZM216.156 325.149L223.489 325.799L223.727 323.113L215.695 322.401L216.156 325.149ZM223.916 320.974L224.172 318.089L216.639 317.422C216.19 317.382 215.773 317.546 215.443 317.867C215.163 318.193 215.023 318.632 215.084 319.089L215.286 320.21L223.916 320.974Z" fill="#E16651"/>
<path d="M265.251 402.638C265.283 402.841 265.315 403.045 265.348 403.248L265.397 403.252C265.598 403.822 265.78 409.151 272.217 406.864L272.534 406.692C273.535 406.179 274.695 406.131 275.766 406.527C278.149 407.44 280.805 406.973 282.709 405.338C282.818 405.247 282.927 405.156 283.035 405.066C283.809 404.282 283.42 402.994 282.331 402.798C282.331 402.798 271.984 400.979 270.46 400.593L270.564 400.552C270.568 400.502 270.577 400.403 270.582 400.353C269.119 400.975 266.922 401.934 265.251 402.638Z" fill="#A4CF52"/>
<path d="M184.64 395.998C185.985 397.27 187 398.864 187.549 400.617C187.86 401.647 188.755 402.328 189.852 402.425L195.939 402.964C196.539 401.864 196.059 400.468 194.897 399.964L193.785 399.465C192.573 398.956 191.718 397.828 191.633 396.517L191.362 393.335L186.348 390.334L184.78 392.15C183.59 393.098 183.531 394.897 184.64 395.998Z" fill="#A4CF52"/>
<path d="M257.564 244.249C258.115 245.401 258.458 246.634 258.648 247.904L262.396 270.294C262.396 270.294 254.223 276.287 253.832 274.448L249.267 251.635C248.648 248.974 248.487 246.252 248.77 243.621C248.916 241.979 249.87 240.861 251.024 240.311C252.65 239.553 254.823 239.996 256.211 241.924C256.752 242.623 257.185 243.414 257.564 244.249Z" fill="#D10048"/>
<path d="M219.274 304.722C226.118 306.932 232.76 308.573 239.082 309.284C245.849 310.084 252.205 309.845 258.032 308.206C258.494 308.096 258.787 307.621 258.727 307.164C258.129 301.998 254.996 273.798 257.161 265.819C260.296 254.266 259.803 240.537 251.093 235.003C251.047 234.949 250.952 234.89 250.911 234.786L250.815 234.728L245.946 231.239C244.197 229.981 242.119 229.596 240.18 229.926C239.056 230.127 237.964 230.531 237.046 231.252C236.62 231.515 236.236 231.882 235.851 232.249C230.896 237.675 224.647 248.05 227.577 264.351C227.728 266.62 227.684 268.822 227.485 271.06C227.195 274.343 226.559 277.545 225.579 280.667L224.751 283.2L223.132 288.421C223.132 288.421 223.132 288.421 223.128 288.47L218.732 303.471C218.484 304 218.784 304.578 219.274 304.722Z" fill="#EF1766"/>
<path d="M219.273 304.722C226.116 306.932 232.758 308.573 239.081 309.284C236.739 273.284 244.687 248.271 250.814 234.728L245.945 231.238C244.196 229.981 242.118 229.596 240.178 229.925C239.054 230.127 237.963 230.531 237.044 231.252C236.619 231.515 236.234 231.882 235.85 232.249C230.894 237.675 224.646 248.05 227.576 264.351C227.727 266.62 227.682 268.822 227.484 271.06C227.193 274.343 226.558 277.545 225.577 280.666L224.75 283.2L223.131 288.42C223.131 288.42 223.131 288.42 223.126 288.47L218.73 303.47C218.482 304 218.783 304.578 219.273 304.722Z" fill="#EF1766"/>
<path d="M238.362 231.117L253.435 236.775L253.601 236.845C253.543 236.806 253.475 236.717 253.466 236.668C251.376 234.214 248.777 232.314 245.779 230.996L240.778 228.784L240.222 228.533C239.274 228.101 238.243 228.853 238.28 229.862L238.362 231.117Z" fill="#A4CF52"/>
<g opacity="0.5">
<g opacity="0.5">
<path opacity="0.5" d="M238.167 227.011L239.719 231.123L239.127 230.972C238.119 230.712 237.235 231.633 237.447 232.62L237.73 233.795L253.559 236.734L253.571 236.623L253.583 236.512L248.007 228.689C248.371 228.658 248.734 228.628 249.08 228.551C244.537 221.619 242.637 215.451 242.122 210.255C242.039 209.326 241.991 208.49 241.99 207.636C241.965 206.151 242.069 204.724 242.225 203.438C242.33 202.438 242.516 201.513 242.72 200.636C241.871 201.223 240.905 201.641 239.891 201.65C220.785 202.509 224.49 226.088 238.167 227.011Z" fill="#C1876F"/>
</g>
</g>
<path d="M236.472 232.054C231.68 233.935 222.394 244.542 213.172 274.856L220.13 275.773C220.13 275.773 246.344 253.983 243.821 237.066C243.221 233.053 239.91 230.704 236.472 232.054Z" fill="#FF2B7A"/>
<path d="M237.294 310.73C238.858 310.668 240.215 309.535 240.551 308.011L240.708 307.373C240.879 306.586 240.804 305.727 240.417 304.991L238.521 301.414L226.978 275.076C226.589 273.788 224.23 271.474 224.23 271.474C220.295 268.218 214.761 267.126 213.713 272.146L213.547 272.884C213.126 274.801 213.602 276.799 214.772 278.356L234.52 300.609L233.132 305.499C232.84 306.525 233.042 307.646 233.67 308.504L234.302 309.312C234.971 310.274 236.133 310.778 237.294 310.73Z" fill="#C1876F"/>
<g filter="url(#filter1_d)">
<rect x="288.509" y="21.3101" width="221.94" height="302.007" rx="9.012" fill="white"/>
</g>
<rect x="376.505" y="57.991" width="57.9902" height="47.0143" rx="6.31966" fill="#F14EB9"/>
<path d="M405.5 68.5552L408.995 74.5033L415.825 73.5274L413.354 79.9686L418.375 84.6998L411.798 86.7838L411.23 93.6594L405.5 89.8169L399.77 93.6594L399.202 86.7838L392.625 84.6998L397.646 79.9686L395.175 73.5274L402.005 74.5033L405.5 68.5552Z" fill="white"/>
<g filter="url(#filter2_bd)">
<rect x="325.352" y="140.185" width="160.296" height="27.0501" rx="4.48896" fill="white" fill-opacity="0.68"/>
<rect x="325.801" y="140.634" width="159.398" height="26.1523" rx="4.04006" stroke="#D3D3D3" stroke-width="0.897791"/>
</g>
<path opacity="0.8" d="M338.596 156.469V157.541H334.125V151.767H338.489V152.839H335.454V154.093H338.135V155.132H335.454V156.469H338.596ZM342.266 153.037C342.816 153.037 343.259 153.202 343.595 153.532C343.936 153.862 344.106 154.351 344.106 155V157.541H342.819V155.198C342.819 154.846 342.742 154.585 342.588 154.415C342.434 154.239 342.211 154.151 341.92 154.151C341.596 154.151 341.337 154.252 341.145 154.456C340.952 154.654 340.856 154.951 340.856 155.347V157.541H339.569V153.103H340.798V153.623C340.969 153.436 341.18 153.293 341.433 153.194C341.686 153.089 341.964 153.037 342.266 153.037ZM348.135 157.327C348.008 157.42 347.852 157.492 347.665 157.541C347.483 157.585 347.291 157.607 347.087 157.607C346.559 157.607 346.15 157.472 345.858 157.203C345.572 156.933 345.429 156.537 345.429 156.015V154.192H344.745V153.202H345.429V152.121H346.716V153.202H347.821V154.192H346.716V155.998C346.716 156.185 346.763 156.331 346.856 156.436C346.955 156.535 347.093 156.584 347.269 156.584C347.472 156.584 347.645 156.529 347.788 156.419L348.135 157.327ZM353.068 155.339C353.068 155.355 353.059 155.471 353.043 155.685H349.685C349.746 155.96 349.889 156.177 350.114 156.337C350.34 156.496 350.62 156.576 350.956 156.576C351.187 156.576 351.39 156.543 351.566 156.477C351.748 156.405 351.915 156.295 352.069 156.147L352.754 156.889C352.336 157.368 351.726 157.607 350.923 157.607C350.422 157.607 349.98 157.511 349.595 157.318C349.21 157.12 348.913 156.848 348.704 156.502C348.495 156.155 348.39 155.762 348.39 155.322C348.39 154.888 348.492 154.497 348.696 154.151C348.905 153.799 349.188 153.526 349.545 153.334C349.908 153.136 350.312 153.037 350.758 153.037C351.192 153.037 351.585 153.131 351.937 153.318C352.289 153.504 352.564 153.774 352.762 154.126C352.966 154.472 353.068 154.877 353.068 155.339ZM350.766 154.01C350.475 154.01 350.23 154.093 350.032 154.258C349.834 154.423 349.713 154.648 349.669 154.934H351.855C351.811 154.654 351.69 154.431 351.492 154.266C351.294 154.096 351.052 154.01 350.766 154.01ZM355.153 153.689C355.307 153.474 355.514 153.312 355.772 153.202C356.036 153.092 356.339 153.037 356.679 153.037V154.225C356.537 154.214 356.44 154.208 356.391 154.208C356.022 154.208 355.734 154.313 355.525 154.522C355.316 154.725 355.211 155.033 355.211 155.446V157.541H353.924V153.103H355.153V153.689ZM364.218 153.103L362.214 157.813C362.01 158.325 361.757 158.685 361.455 158.894C361.158 159.103 360.797 159.207 360.374 159.207C360.143 159.207 359.915 159.172 359.689 159.1C359.464 159.029 359.28 158.93 359.137 158.803L359.607 157.887C359.706 157.975 359.819 158.044 359.945 158.094C360.077 158.143 360.206 158.168 360.333 158.168C360.509 158.168 360.652 158.124 360.762 158.036C360.872 157.953 360.971 157.813 361.059 157.615L361.075 157.574L359.153 153.103H360.481L361.727 156.114L362.981 153.103H364.218ZM366.734 157.607C366.267 157.607 365.846 157.511 365.472 157.318C365.103 157.12 364.815 156.848 364.606 156.502C364.397 156.155 364.292 155.762 364.292 155.322C364.292 154.882 364.397 154.489 364.606 154.142C364.815 153.796 365.103 153.526 365.472 153.334C365.846 153.136 366.267 153.037 366.734 153.037C367.201 153.037 367.619 153.136 367.988 153.334C368.356 153.526 368.645 153.796 368.854 154.142C369.063 154.489 369.168 154.882 369.168 155.322C369.168 155.762 369.063 156.155 368.854 156.502C368.645 156.848 368.356 157.12 367.988 157.318C367.619 157.511 367.201 157.607 366.734 157.607ZM366.734 156.551C367.064 156.551 367.333 156.441 367.542 156.221C367.757 155.996 367.864 155.696 367.864 155.322C367.864 154.948 367.757 154.651 367.542 154.431C367.333 154.206 367.064 154.093 366.734 154.093C366.404 154.093 366.132 154.206 365.917 154.431C365.703 154.651 365.596 154.948 365.596 155.322C365.596 155.696 365.703 155.996 365.917 156.221C366.132 156.441 366.404 156.551 366.734 156.551ZM374.499 153.103V157.541H373.278V157.013C373.107 157.206 372.904 157.354 372.667 157.459C372.431 157.558 372.175 157.607 371.9 157.607C371.317 157.607 370.855 157.439 370.514 157.104C370.173 156.768 370.003 156.271 370.003 155.611V153.103H371.29V155.421C371.29 156.136 371.589 156.493 372.189 156.493C372.497 156.493 372.744 156.394 372.931 156.196C373.118 155.993 373.212 155.693 373.212 155.297V153.103H374.499ZM376.92 153.689C377.074 153.474 377.28 153.312 377.539 153.202C377.803 153.092 378.105 153.037 378.446 153.037V154.225C378.303 154.214 378.207 154.208 378.157 154.208C377.789 154.208 377.5 154.313 377.291 154.522C377.082 154.725 376.978 155.033 376.978 155.446V157.541H375.691V153.103H376.92V153.689ZM385.927 155.339C385.927 155.355 385.919 155.471 385.902 155.685H382.545C382.605 155.96 382.748 156.177 382.974 156.337C383.199 156.496 383.48 156.576 383.815 156.576C384.046 156.576 384.25 156.543 384.425 156.477C384.607 156.405 384.775 156.295 384.929 156.147L385.613 156.889C385.195 157.368 384.585 157.607 383.782 157.607C383.282 157.607 382.839 157.511 382.454 157.318C382.069 157.12 381.772 156.848 381.563 156.502C381.354 156.155 381.25 155.762 381.25 155.322C381.25 154.888 381.351 154.497 381.555 154.151C381.764 153.799 382.047 153.526 382.404 153.334C382.767 153.136 383.172 153.037 383.617 153.037C384.052 153.037 384.445 153.131 384.797 153.318C385.149 153.504 385.424 153.774 385.622 154.126C385.825 154.472 385.927 154.877 385.927 155.339ZM383.625 154.01C383.334 154.01 383.089 154.093 382.891 154.258C382.693 154.423 382.572 154.648 382.528 154.934H384.714C384.67 154.654 384.549 154.431 384.351 154.266C384.153 154.096 383.911 154.01 383.625 154.01ZM392.467 153.037C393.023 153.037 393.463 153.202 393.787 153.532C394.117 153.856 394.282 154.346 394.282 155V157.541H392.995V155.198C392.995 154.846 392.921 154.585 392.772 154.415C392.629 154.239 392.423 154.151 392.154 154.151C391.851 154.151 391.612 154.25 391.436 154.448C391.26 154.64 391.172 154.929 391.172 155.314V157.541H389.885V155.198C389.885 154.5 389.605 154.151 389.044 154.151C388.747 154.151 388.51 154.25 388.334 154.448C388.158 154.64 388.07 154.929 388.07 155.314V157.541H386.784V153.103H388.013V153.614C388.178 153.427 388.378 153.285 388.615 153.186C388.857 153.087 389.121 153.037 389.407 153.037C389.72 153.037 390.003 153.1 390.256 153.227C390.509 153.348 390.713 153.526 390.867 153.763C391.048 153.532 391.277 153.353 391.551 153.227C391.832 153.1 392.137 153.037 392.467 153.037ZM397.225 153.037C397.913 153.037 398.441 153.202 398.809 153.532C399.178 153.856 399.362 154.349 399.362 155.009V157.541H398.158V156.988C397.916 157.401 397.465 157.607 396.805 157.607C396.464 157.607 396.167 157.549 395.914 157.434C395.666 157.318 395.477 157.159 395.345 156.955C395.213 156.752 395.147 156.521 395.147 156.262C395.147 155.85 395.301 155.525 395.609 155.289C395.922 155.053 396.403 154.934 397.052 154.934H398.075C398.075 154.654 397.99 154.439 397.819 154.291C397.649 154.137 397.393 154.06 397.052 154.06C396.816 154.06 396.582 154.098 396.351 154.175C396.126 154.247 395.933 154.346 395.774 154.472L395.312 153.573C395.554 153.403 395.842 153.271 396.178 153.177C396.519 153.084 396.868 153.037 397.225 153.037ZM397.126 156.741C397.346 156.741 397.542 156.691 397.712 156.592C397.883 156.488 398.004 156.337 398.075 156.139V155.685H397.192C396.664 155.685 396.401 155.858 396.401 156.205C396.401 156.37 396.464 156.502 396.59 156.601C396.722 156.694 396.901 156.741 397.126 156.741ZM400.527 153.103H401.813V157.541H400.527V153.103ZM401.17 152.484C400.934 152.484 400.741 152.416 400.593 152.278C400.444 152.141 400.37 151.97 400.37 151.767C400.37 151.563 400.444 151.393 400.593 151.255C400.741 151.118 400.934 151.049 401.17 151.049C401.406 151.049 401.599 151.115 401.747 151.247C401.896 151.379 401.97 151.544 401.97 151.742C401.97 151.956 401.896 152.135 401.747 152.278C401.599 152.416 401.406 152.484 401.17 152.484ZM403.008 151.42H404.295V157.541H403.008V151.42ZM409.243 159.102H408.231V149.122H409.243V159.102Z" fill="#949494"/>
<g filter="url(#filter3_bd)">
<rect x="325.352" y="177.885" width="160.296" height="27.0501" rx="4.48896" fill="white" fill-opacity="0.68"/>
<rect x="325.801" y="178.334" width="159.398" height="26.1523" rx="4.04006" stroke="#D9D9D9" stroke-width="0.897791"/>
</g>
<path opacity="0.8" d="M336.625 188.293C337.136 188.293 337.579 188.378 337.953 188.549C338.333 188.719 338.624 188.961 338.827 189.275C339.031 189.588 339.133 189.959 339.133 190.388C339.133 190.812 339.031 191.183 338.827 191.502C338.624 191.815 338.333 192.057 337.953 192.228C337.579 192.393 337.136 192.475 336.625 192.475H335.462V194.067H334.125V188.293H336.625ZM336.551 191.386C336.952 191.386 337.257 191.301 337.466 191.131C337.675 190.955 337.78 190.707 337.78 190.388C337.78 190.064 337.675 189.816 337.466 189.646C337.257 189.47 336.952 189.382 336.551 189.382H335.462V191.386H336.551ZM341.746 189.563C342.433 189.563 342.961 189.728 343.33 190.058C343.698 190.383 343.882 190.875 343.882 191.535V194.067H342.678V193.515C342.436 193.927 341.985 194.133 341.325 194.133C340.984 194.133 340.687 194.076 340.434 193.96C340.187 193.845 339.997 193.685 339.865 193.482C339.733 193.278 339.667 193.047 339.667 192.789C339.667 192.376 339.821 192.052 340.129 191.815C340.442 191.579 340.924 191.461 341.573 191.461H342.595C342.595 191.18 342.51 190.966 342.34 190.817C342.169 190.663 341.913 190.586 341.573 190.586C341.336 190.586 341.102 190.625 340.871 190.702C340.646 190.773 340.453 190.872 340.294 190.999L339.832 190.1C340.074 189.929 340.363 189.797 340.698 189.704C341.039 189.61 341.388 189.563 341.746 189.563ZM341.647 193.267C341.867 193.267 342.062 193.218 342.232 193.119C342.403 193.014 342.524 192.863 342.595 192.665V192.211H341.713C341.185 192.211 340.921 192.385 340.921 192.731C340.921 192.896 340.984 193.028 341.111 193.127C341.243 193.22 341.421 193.267 341.647 193.267ZM346.54 194.133C346.172 194.133 345.811 194.089 345.459 194.001C345.107 193.908 344.827 193.792 344.618 193.655L345.047 192.731C345.245 192.858 345.484 192.962 345.765 193.044C346.045 193.121 346.32 193.16 346.589 193.16C347.134 193.16 347.406 193.025 347.406 192.756C347.406 192.629 347.332 192.539 347.183 192.484C347.035 192.429 346.807 192.382 346.499 192.343C346.136 192.288 345.836 192.225 345.6 192.154C345.363 192.082 345.157 191.956 344.981 191.774C344.81 191.593 344.725 191.334 344.725 190.999C344.725 190.718 344.805 190.471 344.964 190.256C345.129 190.036 345.366 189.866 345.674 189.745C345.987 189.624 346.356 189.563 346.779 189.563C347.093 189.563 347.403 189.599 347.711 189.671C348.025 189.737 348.283 189.83 348.487 189.951L348.058 190.867C347.667 190.647 347.241 190.537 346.779 190.537C346.504 190.537 346.298 190.575 346.161 190.652C346.023 190.729 345.954 190.828 345.954 190.949C345.954 191.087 346.029 191.183 346.177 191.238C346.326 191.293 346.562 191.345 346.886 191.395C347.249 191.455 347.546 191.521 347.777 191.593C348.008 191.659 348.209 191.782 348.38 191.964C348.55 192.145 348.635 192.398 348.635 192.723C348.635 192.998 348.553 193.242 348.388 193.457C348.223 193.671 347.981 193.839 347.662 193.96C347.348 194.076 346.974 194.133 346.54 194.133ZM350.922 194.133C350.554 194.133 350.194 194.089 349.842 194.001C349.49 193.908 349.209 193.792 349 193.655L349.429 192.731C349.627 192.858 349.866 192.962 350.147 193.044C350.427 193.121 350.702 193.16 350.972 193.16C351.516 193.16 351.788 193.025 351.788 192.756C351.788 192.629 351.714 192.539 351.566 192.484C351.417 192.429 351.189 192.382 350.881 192.343C350.518 192.288 350.218 192.225 349.982 192.154C349.745 192.082 349.539 191.956 349.363 191.774C349.193 191.593 349.108 191.334 349.108 190.999C349.108 190.718 349.187 190.471 349.347 190.256C349.512 190.036 349.748 189.866 350.056 189.745C350.37 189.624 350.738 189.563 351.162 189.563C351.475 189.563 351.786 189.599 352.094 189.671C352.407 189.737 352.666 189.83 352.869 189.951L352.44 190.867C352.05 190.647 351.623 190.537 351.162 190.537C350.887 190.537 350.68 190.575 350.543 190.652C350.405 190.729 350.337 190.828 350.337 190.949C350.337 191.087 350.411 191.183 350.559 191.238C350.708 191.293 350.944 191.345 351.269 191.395C351.632 191.455 351.929 191.521 352.16 191.593C352.391 191.659 352.591 191.782 352.762 191.964C352.932 192.145 353.018 192.398 353.018 192.723C353.018 192.998 352.935 193.242 352.77 193.457C352.605 193.671 352.363 193.839 352.044 193.96C351.731 194.076 351.357 194.133 350.922 194.133ZM360.858 189.629L359.25 194.067H358.012L357.014 191.312L355.983 194.067H354.746L353.145 189.629H354.358L355.406 192.632L356.494 189.629H357.583L358.639 192.632L359.72 189.629H360.858ZM363.447 194.133C362.98 194.133 362.559 194.037 362.185 193.845C361.817 193.647 361.528 193.374 361.319 193.028C361.11 192.682 361.006 192.288 361.006 191.848C361.006 191.408 361.11 191.015 361.319 190.669C361.528 190.322 361.817 190.053 362.185 189.86C362.559 189.662 362.98 189.563 363.447 189.563C363.915 189.563 364.333 189.662 364.701 189.86C365.07 190.053 365.358 190.322 365.567 190.669C365.776 191.015 365.881 191.408 365.881 191.848C365.881 192.288 365.776 192.682 365.567 193.028C365.358 193.374 365.07 193.647 364.701 193.845C364.333 194.037 363.915 194.133 363.447 194.133ZM363.447 193.077C363.777 193.077 364.047 192.968 364.256 192.748C364.47 192.522 364.577 192.222 364.577 191.848C364.577 191.474 364.47 191.177 364.256 190.957C364.047 190.732 363.777 190.619 363.447 190.619C363.117 190.619 362.845 190.732 362.631 190.957C362.416 191.177 362.309 191.474 362.309 191.848C362.309 192.222 362.416 192.522 362.631 192.748C362.845 192.968 363.117 193.077 363.447 193.077ZM367.97 190.215C368.124 190.001 368.33 189.838 368.589 189.728C368.853 189.618 369.155 189.563 369.496 189.563V190.751C369.353 190.74 369.257 190.735 369.207 190.735C368.839 190.735 368.55 190.839 368.341 191.048C368.132 191.252 368.028 191.56 368.028 191.972V194.067H366.741V189.629H367.97V190.215ZM374.741 187.947V194.067H373.512V193.556C373.193 193.941 372.731 194.133 372.127 194.133C371.709 194.133 371.329 194.04 370.988 193.853C370.653 193.666 370.389 193.399 370.196 193.053C370.004 192.706 369.908 192.305 369.908 191.848C369.908 191.392 370.004 190.99 370.196 190.644C370.389 190.298 370.653 190.031 370.988 189.844C371.329 189.657 371.709 189.563 372.127 189.563C372.693 189.563 373.136 189.742 373.455 190.1V187.947H374.741ZM372.349 193.077C372.674 193.077 372.943 192.968 373.158 192.748C373.372 192.522 373.479 192.222 373.479 191.848C373.479 191.474 373.372 191.177 373.158 190.957C372.943 190.732 372.674 190.619 372.349 190.619C372.019 190.619 371.747 190.732 371.533 190.957C371.318 191.177 371.211 191.474 371.211 191.848C371.211 192.222 371.318 192.522 371.533 192.748C371.747 192.968 372.019 193.077 372.349 193.077Z" fill="#949494"/>
<g filter="url(#filter4_d)">
<rect x="315.588" y="259.127" width="226.309" height="38.3615" rx="3.70512" fill="#26488A"/>
</g>
<path d="M362.926 283.476C361.975 283.476 361.114 283.272 360.341 282.863C359.577 282.446 358.973 281.873 358.529 281.145C358.094 280.407 357.876 279.577 357.876 278.653C357.876 277.729 358.094 276.903 358.529 276.175C358.973 275.438 359.577 274.865 360.341 274.456C361.114 274.039 361.98 273.83 362.939 273.83C363.747 273.83 364.476 273.972 365.124 274.257C365.781 274.541 366.332 274.949 366.776 275.482L365.39 276.761C364.76 276.033 363.978 275.669 363.046 275.669C362.468 275.669 361.953 275.798 361.5 276.055C361.047 276.304 360.692 276.655 360.434 277.108C360.185 277.561 360.061 278.076 360.061 278.653C360.061 279.231 360.185 279.746 360.434 280.199C360.692 280.652 361.047 281.007 361.5 281.265C361.953 281.513 362.468 281.638 363.046 281.638C363.978 281.638 364.76 281.269 365.39 280.532L366.776 281.811C366.332 282.353 365.781 282.766 365.124 283.05C364.467 283.334 363.734 283.476 362.926 283.476ZM371.251 283.423C370.496 283.423 369.816 283.267 369.212 282.957C368.617 282.637 368.151 282.197 367.813 281.638C367.476 281.078 367.307 280.443 367.307 279.732C367.307 279.022 367.476 278.387 367.813 277.827C368.151 277.268 368.617 276.832 369.212 276.521C369.816 276.202 370.496 276.042 371.251 276.042C372.006 276.042 372.681 276.202 373.276 276.521C373.871 276.832 374.337 277.268 374.675 277.827C375.012 278.387 375.181 279.022 375.181 279.732C375.181 280.443 375.012 281.078 374.675 281.638C374.337 282.197 373.871 282.637 373.276 282.957C372.681 283.267 372.006 283.423 371.251 283.423ZM371.251 281.717C371.783 281.717 372.219 281.54 372.556 281.185C372.903 280.82 373.076 280.336 373.076 279.732C373.076 279.128 372.903 278.649 372.556 278.293C372.219 277.929 371.783 277.747 371.251 277.747C370.718 277.747 370.278 277.929 369.932 278.293C369.585 278.649 369.412 279.128 369.412 279.732C369.412 280.336 369.585 280.82 369.932 281.185C370.278 281.54 370.718 281.717 371.251 281.717ZM380.927 276.042C381.815 276.042 382.53 276.308 383.072 276.841C383.623 277.374 383.898 278.165 383.898 279.213L383.898 283.316L381.819 283.316L381.819 279.532C381.819 278.964 381.695 278.542 381.446 278.267C381.198 277.983 380.838 277.84 380.367 277.84C379.843 277.84 379.426 278.005 379.115 278.333C378.804 278.653 378.649 279.133 378.649 279.772L378.649 283.316L376.57 283.316L376.57 276.148L378.555 276.148L378.555 276.988C378.831 276.686 379.173 276.455 379.581 276.295C379.99 276.126 380.438 276.042 380.927 276.042ZM390.139 276.042C391.027 276.042 391.742 276.308 392.284 276.841C392.834 277.374 393.11 278.165 393.11 279.213L393.11 283.316L391.031 283.316L391.031 279.532C391.031 278.964 390.907 278.542 390.658 278.267C390.409 277.983 390.05 277.84 389.579 277.84C389.055 277.84 388.637 278.005 388.327 278.333C388.016 278.653 387.86 279.133 387.86 279.772L387.86 283.316L385.782 283.316L385.782 276.148L387.767 276.148L387.767 276.988C388.042 276.686 388.384 276.455 388.793 276.295C389.202 276.126 389.65 276.042 390.139 276.042ZM402.093 279.759C402.093 279.786 402.08 279.972 402.053 280.319L396.631 280.319C396.728 280.763 396.959 281.114 397.323 281.371C397.687 281.629 398.14 281.757 398.682 281.757C399.055 281.757 399.384 281.704 399.668 281.598C399.961 281.482 400.232 281.304 400.481 281.065L401.587 282.264C400.912 283.036 399.926 283.423 398.629 283.423C397.821 283.423 397.106 283.267 396.484 282.957C395.862 282.637 395.383 282.197 395.045 281.638C394.708 281.078 394.539 280.443 394.539 279.732C394.539 279.031 394.703 278.4 395.032 277.84C395.369 277.272 395.827 276.832 396.404 276.521C396.99 276.202 397.643 276.042 398.363 276.042C399.064 276.042 399.699 276.193 400.268 276.495C400.836 276.797 401.28 277.232 401.6 277.8C401.929 278.36 402.093 279.013 402.093 279.759ZM398.376 277.614C397.905 277.614 397.51 277.747 397.19 278.014C396.87 278.28 396.675 278.644 396.604 279.106L400.135 279.106C400.063 278.653 399.868 278.293 399.548 278.027C399.229 277.752 398.838 277.614 398.376 277.614ZM406.941 283.423C406.177 283.423 405.489 283.267 404.876 282.957C404.272 282.637 403.797 282.197 403.45 281.638C403.113 281.078 402.944 280.443 402.944 279.732C402.944 279.022 403.113 278.387 403.45 277.827C403.797 277.268 404.272 276.832 404.876 276.521C405.489 276.202 406.177 276.042 406.941 276.042C407.696 276.042 408.353 276.202 408.913 276.521C409.481 276.832 409.894 277.281 410.152 277.867L408.54 278.733C408.167 278.076 407.629 277.747 406.927 277.747C406.386 277.747 405.937 277.925 405.582 278.28C405.227 278.635 405.049 279.119 405.049 279.732C405.049 280.345 405.227 280.829 405.582 281.185C405.937 281.54 406.386 281.717 406.927 281.717C407.638 281.717 408.175 281.389 408.54 280.732L410.152 281.611C409.894 282.179 409.481 282.623 408.913 282.943C408.353 283.263 407.696 283.423 406.941 283.423ZM416.076 282.97C415.871 283.121 415.618 283.236 415.316 283.316C415.023 283.387 414.712 283.423 414.384 283.423C413.531 283.423 412.869 283.205 412.398 282.77C411.937 282.335 411.706 281.695 411.706 280.851L411.706 277.907L410.6 277.907L410.6 276.308L411.706 276.308L411.706 274.563L413.784 274.563L413.784 276.308L415.569 276.308L415.569 277.907L413.784 277.907L413.784 280.825C413.784 281.127 413.86 281.362 414.011 281.531C414.17 281.691 414.392 281.771 414.677 281.771C415.005 281.771 415.285 281.682 415.516 281.504L416.076 282.97ZM432.527 276.148L429.929 283.316L427.93 283.316L426.318 278.866L424.653 283.316L422.654 283.316L420.07 276.148L422.028 276.148L423.72 280.998L425.479 276.148L427.237 276.148L428.943 280.998L430.688 276.148L432.527 276.148ZM433.493 276.148L435.571 276.148L435.571 283.316L433.493 283.316L433.493 276.148ZM434.532 275.149C434.15 275.149 433.839 275.038 433.6 274.816C433.36 274.594 433.24 274.319 433.24 273.99C433.24 273.661 433.36 273.386 433.6 273.164C433.839 272.942 434.15 272.831 434.532 272.831C434.914 272.831 435.225 272.938 435.465 273.151C435.705 273.364 435.825 273.63 435.825 273.95C435.825 274.296 435.705 274.585 435.465 274.816C435.225 275.038 434.914 275.149 434.532 275.149ZM442.124 282.97C441.919 283.121 441.666 283.236 441.364 283.316C441.071 283.387 440.76 283.423 440.431 283.423C439.579 283.423 438.917 283.205 438.446 282.77C437.984 282.335 437.754 281.695 437.754 280.851L437.754 277.907L436.648 277.907L436.648 276.308L437.754 276.308L437.754 274.563L439.832 274.563L439.832 276.308L441.617 276.308L441.617 277.907L439.832 277.907L439.832 280.825C439.832 281.127 439.907 281.362 440.058 281.531C440.218 281.691 440.44 281.771 440.725 281.771C441.053 281.771 441.333 281.682 441.564 281.504L442.124 282.97ZM447.647 276.042C448.535 276.042 449.25 276.308 449.792 276.841C450.343 277.374 450.618 278.165 450.618 279.213L450.618 283.316L448.54 283.316L448.54 279.532C448.54 278.964 448.415 278.542 448.167 278.267C447.918 277.983 447.558 277.84 447.087 277.84C446.563 277.84 446.146 278.005 445.835 278.333C445.524 278.653 445.369 279.133 445.369 279.772L445.369 283.316L443.29 283.316L443.29 273.43L445.369 273.43L445.369 276.894C445.644 276.619 445.977 276.41 446.368 276.268C446.759 276.117 447.185 276.042 447.647 276.042ZM458.58 275.722L458.58 278.187L462.897 278.187L462.897 279.919L458.58 279.919L458.58 283.316L456.422 283.316L456.422 273.99L463.47 273.99L463.47 275.722L458.58 275.722ZM467.48 276.042C468.591 276.042 469.443 276.308 470.038 276.841C470.633 277.365 470.931 278.16 470.931 279.226L470.931 283.316L468.986 283.316L468.986 282.424C468.595 283.09 467.867 283.423 466.801 283.423C466.25 283.423 465.77 283.33 465.362 283.143C464.962 282.957 464.656 282.699 464.443 282.37C464.229 282.042 464.123 281.669 464.123 281.251C464.123 280.585 464.372 280.061 464.869 279.679C465.375 279.297 466.152 279.106 467.201 279.106L468.853 279.106C468.853 278.653 468.715 278.307 468.44 278.067C468.164 277.818 467.751 277.694 467.201 277.694C466.819 277.694 466.441 277.756 466.068 277.88C465.704 277.996 465.393 278.156 465.135 278.36L464.389 276.908C464.78 276.632 465.246 276.419 465.788 276.268C466.339 276.117 466.903 276.042 467.48 276.042ZM467.32 282.024C467.676 282.024 467.991 281.944 468.266 281.784C468.542 281.615 468.737 281.371 468.853 281.051L468.853 280.319L467.427 280.319C466.574 280.319 466.148 280.598 466.148 281.158C466.148 281.424 466.25 281.638 466.454 281.797C466.668 281.948 466.956 282.024 467.32 282.024ZM476.354 283.423C475.59 283.423 474.902 283.267 474.289 282.957C473.685 282.637 473.21 282.197 472.863 281.638C472.526 281.078 472.357 280.443 472.357 279.732C472.357 279.022 472.526 278.387 472.863 277.827C473.21 277.268 473.685 276.832 474.289 276.521C474.902 276.202 475.59 276.042 476.354 276.042C477.109 276.042 477.766 276.202 478.326 276.521C478.894 276.832 479.307 277.281 479.565 277.867L477.953 278.733C477.58 278.076 477.043 277.747 476.341 277.747C475.799 277.747 475.35 277.925 474.995 278.28C474.64 278.635 474.462 279.119 474.462 279.732C474.462 280.345 474.64 280.829 474.995 281.185C475.35 281.54 475.799 281.717 476.341 281.717C477.051 281.717 477.589 281.389 477.953 280.732L479.565 281.611C479.307 282.179 478.894 282.623 478.326 282.943C477.766 283.263 477.109 283.423 476.354 283.423ZM487.692 279.759C487.692 279.786 487.679 279.972 487.652 280.319L482.23 280.319C482.327 280.763 482.558 281.114 482.922 281.371C483.286 281.629 483.739 281.757 484.281 281.757C484.654 281.757 484.983 281.704 485.267 281.598C485.56 281.482 485.831 281.304 486.08 281.065L487.186 282.264C486.511 283.036 485.525 283.423 484.228 283.423C483.42 283.423 482.705 283.267 482.083 282.957C481.461 282.637 480.982 282.197 480.644 281.638C480.307 281.078 480.138 280.443 480.138 279.732C480.138 279.031 480.302 278.4 480.631 277.84C480.968 277.272 481.426 276.832 482.003 276.521C482.589 276.202 483.242 276.042 483.962 276.042C484.663 276.042 485.298 276.193 485.867 276.495C486.435 276.797 486.879 277.232 487.199 277.8C487.528 278.36 487.692 279.013 487.692 279.759ZM483.975 277.614C483.504 277.614 483.109 277.747 482.789 278.014C482.469 278.28 482.274 278.644 482.203 279.106L485.734 279.106C485.662 278.653 485.467 278.293 485.147 278.027C484.828 277.752 484.437 277.614 483.975 277.614ZM493.313 276.042C493.979 276.042 494.583 276.197 495.124 276.508C495.675 276.81 496.106 277.241 496.417 277.8C496.728 278.351 496.883 278.995 496.883 279.732C496.883 280.47 496.728 281.118 496.417 281.678C496.106 282.228 495.675 282.659 495.124 282.97C494.583 283.272 493.979 283.423 493.313 283.423C492.327 283.423 491.576 283.112 491.061 282.49L491.061 283.316L489.076 283.316L489.076 273.43L491.154 273.43L491.154 276.908C491.678 276.33 492.398 276.042 493.313 276.042ZM492.953 281.717C493.486 281.717 493.921 281.54 494.258 281.185C494.605 280.82 494.778 280.336 494.778 279.732C494.778 279.128 494.605 278.649 494.258 278.293C493.921 277.929 493.486 277.747 492.953 277.747C492.42 277.747 491.98 277.929 491.634 278.293C491.296 278.649 491.128 279.128 491.128 279.732C491.128 280.336 491.296 280.82 491.634 281.185C491.98 281.54 492.42 281.717 492.953 281.717ZM501.685 283.423C500.93 283.423 500.251 283.267 499.647 282.957C499.052 282.637 498.585 282.197 498.248 281.638C497.91 281.078 497.742 280.443 497.742 279.732C497.742 279.022 497.91 278.387 498.248 277.827C498.585 277.268 499.052 276.832 499.647 276.521C500.251 276.202 500.93 276.042 501.685 276.042C502.44 276.042 503.115 276.202 503.71 276.521C504.305 276.832 504.772 277.268 505.109 277.827C505.447 278.387 505.616 279.022 505.616 279.732C505.616 280.443 505.447 281.078 505.109 281.638C504.772 282.197 504.305 282.637 503.71 282.957C503.115 283.267 502.44 283.423 501.685 283.423ZM501.685 281.717C502.218 281.717 502.653 281.54 502.991 281.185C503.337 280.82 503.511 280.336 503.511 279.732C503.511 279.128 503.337 278.649 502.991 278.293C502.653 277.929 502.218 277.747 501.685 277.747C501.152 277.747 500.713 277.929 500.366 278.293C500.02 278.649 499.847 279.128 499.847 279.732C499.847 280.336 500.02 280.82 500.366 281.185C500.713 281.54 501.152 281.717 501.685 281.717ZM510.416 283.423C509.661 283.423 508.981 283.267 508.377 282.957C507.782 282.637 507.316 282.197 506.978 281.638C506.641 281.078 506.472 280.443 506.472 279.732C506.472 279.022 506.641 278.387 506.978 277.827C507.316 277.268 507.782 276.832 508.377 276.521C508.981 276.202 509.661 276.042 510.416 276.042C511.171 276.042 511.846 276.202 512.441 276.521C513.036 276.832 513.502 277.268 513.84 277.827C514.177 278.387 514.346 279.022 514.346 279.732C514.346 280.443 514.177 281.078 513.84 281.638C513.502 282.197 513.036 282.637 512.441 282.957C511.846 283.267 511.171 283.423 510.416 283.423ZM510.416 281.717C510.949 281.717 511.384 281.54 511.721 281.185C512.068 280.82 512.241 280.336 512.241 279.732C512.241 279.128 512.068 278.649 511.721 278.293C511.384 277.929 510.949 277.747 510.416 277.747C509.883 277.747 509.443 277.929 509.097 278.293C508.75 278.649 508.577 279.128 508.577 279.732C508.577 280.336 508.75 280.82 509.097 281.185C509.443 281.54 509.883 281.717 510.416 281.717ZM518.813 280.505L517.814 281.491L517.814 283.316L515.735 283.316L515.735 273.43L517.814 273.43L517.814 279.026L520.851 276.148L523.329 276.148L520.345 279.186L523.596 283.316L521.078 283.316L518.813 280.505Z" fill="white"/>
<rect x="326.409" y="264.316" width="27.9843" height="27.9843" rx="2.79843" fill="#26488A"/>
<path d="M344.256 270.731L342.205 270.728C339.901 270.728 338.412 272.276 338.412 274.673V276.492H336.35C336.172 276.492 336.028 276.639 336.028 276.819V279.455C336.028 279.635 336.172 279.782 336.35 279.782H338.412V286.432C338.412 286.613 338.557 286.759 338.735 286.759H341.425C341.603 286.759 341.748 286.613 341.748 286.432V279.782H344.158C344.337 279.782 344.481 279.635 344.481 279.455L344.482 276.819C344.482 276.733 344.448 276.649 344.387 276.588C344.327 276.527 344.245 276.492 344.159 276.492H341.748V274.95C341.748 274.209 341.922 273.833 342.874 273.833L344.256 273.832C344.434 273.832 344.578 273.686 344.578 273.505V271.058C344.578 270.878 344.434 270.732 344.256 270.731Z" fill="white"/>
<g filter="url(#filter5_d)">
<rect x="325.352" y="221.427" width="160.295" height="23.1617" rx="1.87888" fill="#969696"/>
</g>
<path d="M388.934 236.101L387.738 234.374L387.667 234.374L386.418 234.374L386.418 236.101L384.984 236.101L384.984 229.901L387.667 229.901C388.216 229.901 388.692 229.992 389.093 230.175C389.501 230.358 389.814 230.618 390.032 230.955C390.251 231.291 390.36 231.69 390.36 232.15C390.36 232.611 390.248 233.009 390.023 233.346C389.805 233.677 389.492 233.931 389.085 234.108L390.475 236.101L388.934 236.101ZM388.907 232.15C388.907 231.802 388.795 231.536 388.571 231.353C388.346 231.164 388.019 231.07 387.588 231.07L386.418 231.07L386.418 233.231L387.588 233.231C388.019 233.231 388.346 233.136 388.571 232.947C388.795 232.759 388.907 232.493 388.907 232.15ZM396.067 233.736C396.067 233.754 396.058 233.878 396.041 234.108L392.436 234.108C392.501 234.403 392.654 234.636 392.896 234.808C393.138 234.979 393.44 235.064 393.8 235.064C394.048 235.064 394.266 235.029 394.455 234.958C394.65 234.881 394.83 234.763 394.995 234.604L395.731 235.401C395.282 235.915 394.626 236.172 393.764 236.172C393.227 236.172 392.752 236.068 392.338 235.862C391.925 235.649 391.606 235.357 391.382 234.985C391.157 234.613 391.045 234.19 391.045 233.718C391.045 233.252 391.154 232.832 391.373 232.46C391.597 232.082 391.901 231.79 392.285 231.583C392.675 231.371 393.109 231.265 393.587 231.265C394.054 231.265 394.476 231.365 394.854 231.566C395.232 231.767 395.527 232.056 395.739 232.434C395.958 232.806 396.067 233.24 396.067 233.736ZM393.596 232.31C393.283 232.31 393.02 232.398 392.808 232.575C392.595 232.753 392.465 232.995 392.418 233.302L394.765 233.302C394.718 233.001 394.588 232.761 394.375 232.584C394.163 232.401 393.903 232.31 393.596 232.31ZM401.903 231.335L401.903 235.304C401.903 236.177 401.676 236.827 401.221 237.252C400.766 237.677 400.102 237.89 399.228 237.89C398.767 237.89 398.33 237.834 397.917 237.722C397.504 237.609 397.161 237.447 396.89 237.234L397.439 236.242C397.64 236.408 397.894 236.538 398.201 236.632C398.508 236.733 398.815 236.783 399.122 236.783C399.6 236.783 399.951 236.673 400.176 236.455C400.406 236.242 400.521 235.918 400.521 235.481L400.521 235.277C400.161 235.673 399.659 235.87 399.015 235.87C398.578 235.87 398.177 235.776 397.811 235.587C397.451 235.392 397.164 235.12 396.952 234.772C396.739 234.424 396.633 234.022 396.633 233.568C396.633 233.113 396.739 232.711 396.952 232.363C397.164 232.015 397.451 231.746 397.811 231.557C398.177 231.362 398.578 231.265 399.015 231.265C399.706 231.265 400.232 231.492 400.592 231.947L400.592 231.335L401.903 231.335ZM399.29 234.737C399.656 234.737 399.954 234.63 400.185 234.418C400.421 234.199 400.539 233.916 400.539 233.568C400.539 233.219 400.421 232.939 400.185 232.726C399.954 232.508 399.656 232.398 399.29 232.398C398.924 232.398 398.623 232.508 398.387 232.726C398.15 232.939 398.032 233.219 398.032 233.568C398.032 233.916 398.15 234.199 398.387 234.418C398.623 234.63 398.924 234.737 399.29 234.737ZM403.189 231.335L404.571 231.335L404.571 236.101L403.189 236.101L403.189 231.335ZM403.88 230.671C403.626 230.671 403.419 230.597 403.26 230.45C403.1 230.302 403.021 230.119 403.021 229.901C403.021 229.682 403.1 229.499 403.26 229.351C403.419 229.204 403.626 229.13 403.88 229.13C404.134 229.13 404.34 229.201 404.5 229.343C404.659 229.484 404.739 229.661 404.739 229.874C404.739 230.104 404.659 230.296 404.5 230.45C404.34 230.597 404.134 230.671 403.88 230.671ZM407.456 236.172C407.061 236.172 406.674 236.124 406.296 236.03C405.918 235.929 405.617 235.805 405.393 235.658L405.853 234.666C406.066 234.802 406.323 234.914 406.624 235.002C406.925 235.085 407.22 235.126 407.509 235.126C408.094 235.126 408.386 234.982 408.386 234.692C408.386 234.557 408.307 234.459 408.147 234.4C407.988 234.341 407.743 234.291 407.412 234.25C407.022 234.19 406.7 234.123 406.447 234.046C406.193 233.969 405.971 233.833 405.782 233.638C405.599 233.444 405.508 233.166 405.508 232.806C405.508 232.505 405.593 232.239 405.765 232.009C405.942 231.772 406.196 231.589 406.526 231.459C406.863 231.33 407.258 231.265 407.713 231.265C408.05 231.265 408.383 231.303 408.714 231.38C409.051 231.451 409.328 231.551 409.547 231.681L409.086 232.664C408.667 232.428 408.209 232.31 407.713 232.31C407.418 232.31 407.196 232.351 407.049 232.434C406.901 232.516 406.827 232.623 406.827 232.753C406.827 232.9 406.907 233.004 407.067 233.063C407.226 233.122 407.48 233.178 407.828 233.231C408.218 233.296 408.537 233.367 408.785 233.444C409.033 233.514 409.248 233.647 409.431 233.842C409.615 234.037 409.706 234.309 409.706 234.657C409.706 234.952 409.617 235.215 409.44 235.445C409.263 235.676 409.003 235.856 408.661 235.986C408.324 236.11 407.923 236.172 407.456 236.172ZM413.632 235.87C413.496 235.971 413.328 236.048 413.127 236.101C412.932 236.148 412.726 236.172 412.507 236.172C411.94 236.172 411.5 236.027 411.187 235.738C410.88 235.448 410.727 235.023 410.727 234.462L410.727 232.505L409.992 232.505L409.992 231.442L410.727 231.442L410.727 230.281L412.109 230.281L412.109 231.442L413.295 231.442L413.295 232.505L412.109 232.505L412.109 234.444C412.109 234.645 412.159 234.802 412.259 234.914C412.365 235.02 412.513 235.073 412.702 235.073C412.921 235.073 413.107 235.014 413.26 234.896L413.632 235.87ZM418.928 233.736C418.928 233.754 418.92 233.878 418.902 234.108L415.297 234.108C415.362 234.403 415.515 234.636 415.758 234.808C416 234.979 416.301 235.064 416.661 235.064C416.909 235.064 417.127 235.029 417.316 234.958C417.511 234.881 417.691 234.763 417.857 234.604L418.592 235.401C418.143 235.915 417.488 236.172 416.626 236.172C416.088 236.172 415.613 236.068 415.2 235.862C414.786 235.649 414.467 235.357 414.243 234.985C414.019 234.613 413.906 234.19 413.906 233.718C413.906 233.252 414.016 232.832 414.234 232.46C414.458 232.082 414.763 231.79 415.146 231.583C415.536 231.371 415.97 231.265 416.448 231.265C416.915 231.265 417.337 231.365 417.715 231.566C418.093 231.767 418.388 232.056 418.601 232.434C418.819 232.806 418.928 233.24 418.928 233.736ZM416.457 232.31C416.144 232.31 415.882 232.398 415.669 232.575C415.456 232.753 415.326 232.995 415.279 233.302L417.626 233.302C417.579 233.001 417.449 232.761 417.237 232.584C417.024 232.401 416.764 232.31 416.457 232.31ZM421.168 231.964C421.333 231.734 421.555 231.56 421.832 231.442C422.116 231.324 422.441 231.265 422.807 231.265L422.807 232.54C422.653 232.528 422.55 232.522 422.497 232.522C422.101 232.522 421.791 232.635 421.567 232.859C421.342 233.077 421.23 233.408 421.23 233.851L421.23 236.101L419.848 236.101L419.848 231.335L421.168 231.335L421.168 231.964Z" fill="white"/>
<rect x="344.301" y="117.664" width="118.58" height="6.02912" rx="3.01456" fill="#DDDDDD"/>
<defs>
<filter id="filter0_f" x="169.428" y="210.336" width="334.831" height="100.683" filterUnits="userSpaceOnUse" color-interpolation-filters="sRGB">
<feFlood flood-opacity="0" result="BackgroundImageFix"/>
<feBlend mode="normal" in="SourceGraphic" in2="BackgroundImageFix" result="shape"/>
<feGaussianBlur stdDeviation="2.64062" result="effect1_foregroundBlur"/>
</filter>
<filter id="filter1_d" x="258.645" y="0.715942" width="281.668" height="361.735" filterUnits="userSpaceOnUse" color-interpolation-filters="sRGB">
<feFlood flood-opacity="0" result="BackgroundImageFix"/>
<feColorMatrix in="SourceAlpha" type="matrix" values="0 0 0 0 0 0 0 0 0 0 0 0 0 0 0 0 0 0 127 0"/>
<feOffset dy="9.27"/>
<feGaussianBlur stdDeviation="14.9321"/>
<feColorMatrix type="matrix" values="0 0 0 0 0.12375 0 0 0 0 0.221925 0 0 0 0 0.4125 0 0 0 0.2 0"/>
<feBlend mode="normal" in2="BackgroundImageFix" result="effect1_dropShadow"/>
<feBlend mode="normal" in="SourceGraphic" in2="effect1_dropShadow" result="shape"/>
</filter>
<filter id="filter2_bd" x="321.761" y="136.594" width="167.478" height="37.8235" filterUnits="userSpaceOnUse" color-interpolation-filters="sRGB">
<feFlood flood-opacity="0" result="BackgroundImageFix"/>
<feGaussianBlur in="BackgroundImage" stdDeviation="1.79558"/>
<feComposite in2="SourceAlpha" operator="in" result="effect1_backgroundBlur"/>
<feColorMatrix in="SourceAlpha" type="matrix" values="0 0 0 0 0 0 0 0 0 0 0 0 0 0 0 0 0 0 127 0"/>
<feOffset dy="3.59117"/>
<feGaussianBlur stdDeviation="1.79558"/>
<feColorMatrix type="matrix" values="0 0 0 0 0 0 0 0 0 0 0 0 0 0 0 0 0 0 0.06 0"/>
<feBlend mode="normal" in2="effect1_backgroundBlur" result="effect2_dropShadow"/>
<feBlend mode="normal" in="SourceGraphic" in2="effect2_dropShadow" result="shape"/>
</filter>
<filter id="filter3_bd" x="321.761" y="174.294" width="167.478" height="37.8235" filterUnits="userSpaceOnUse" color-interpolation-filters="sRGB">
<feFlood flood-opacity="0" result="BackgroundImageFix"/>
<feGaussianBlur in="BackgroundImage" stdDeviation="1.79558"/>
<feComposite in2="SourceAlpha" operator="in" result="effect1_backgroundBlur"/>
<feColorMatrix in="SourceAlpha" type="matrix" values="0 0 0 0 0 0 0 0 0 0 0 0 0 0 0 0 0 0 127 0"/>
<feOffset dy="3.59117"/>
<feGaussianBlur stdDeviation="1.79558"/>
<feColorMatrix type="matrix" values="0 0 0 0 0 0 0 0 0 0 0 0 0 0 0 0 0 0 0.06 0"/>
<feBlend mode="normal" in2="effect1_backgroundBlur" result="effect2_dropShadow"/>
<feBlend mode="normal" in="SourceGraphic" in2="effect2_dropShadow" result="shape"/>
</filter>
<filter id="filter4_d" x="285.724" y="244.33" width="286.038" height="98.0897" filterUnits="userSpaceOnUse" color-interpolation-filters="sRGB">
<feFlood flood-opacity="0" result="BackgroundImageFix"/>
<feColorMatrix in="SourceAlpha" type="matrix" values="0 0 0 0 0 0 0 0 0 0 0 0 0 0 0 0 0 0 127 0"/>
<feOffset dy="15.0666"/>
<feGaussianBlur stdDeviation="14.9321"/>
<feColorMatrix type="matrix" values="0 0 0 0 0.12375 0 0 0 0 0.221925 0 0 0 0 0.4125 0 0 0 0.5 0"/>
<feBlend mode="normal" in2="BackgroundImageFix" result="effect1_dropShadow"/>
<feBlend mode="normal" in="SourceGraphic" in2="effect1_dropShadow" result="shape"/>
</filter>
<filter id="filter5_d" x="310.208" y="213.923" width="190.584" height="53.4501" filterUnits="userSpaceOnUse" color-interpolation-filters="sRGB">
<feFlood flood-opacity="0" result="BackgroundImageFix"/>
<feColorMatrix in="SourceAlpha" type="matrix" values="0 0 0 0 0 0 0 0 0 0 0 0 0 0 0 0 0 0 127 0"/>
<feOffset dy="7.64033"/>
<feGaussianBlur stdDeviation="7.57211"/>
<feColorMatrix type="matrix" values="0 0 0 0 0.879167 0 0 0 0 0.879167 0 0 0 0 0.879167 0 0 0 0.5 0"/>
<feBlend mode="normal" in2="BackgroundImageFix" result="effect1_dropShadow"/>
<feBlend mode="normal" in="SourceGraphic" in2="effect1_dropShadow" result="shape"/>
</filter>
</defs>
</svg>
