<svg width="587" height="391" viewBox="0 0 587 391" fill="none" xmlns="http://www.w3.org/2000/svg">
    <path fill-rule="evenodd" clip-rule="evenodd" d="M514.852 94.3868C514.472 94.1104 513.57 94.0123 513.151 93.9295C511.407 93.5857 509.61 93.436 507.832 93.436C502.35 93.4442 496.779 93.9824 491.387 94.9138C487.964 95.5051 483.826 97.495 480.421 96.4143C474.489 94.5314 468.493 94.6239 462.865 97.312C457.72 99.77 453.813 104.438 451.534 109.483C451.19 110.244 449.794 113.047 449.399 114.936C449.231 115.322 449.068 115.711 448.922 116.106C448.507 117.226 448.135 118.367 447.789 119.51C447.641 119.997 447.269 121.073 447.711 121.281C447.005 122.583 446.38 123.924 445.86 125.309C444.345 129.337 442.69 133.755 442.157 138.024C441.96 139.604 441.953 141.194 442.136 142.778C442.226 143.56 442.189 145.135 442.72 145.73C443.846 146.993 444.424 145.225 444.297 144.383C443.328 137.964 445.2 131.937 447.419 125.904C448.853 122.003 451.211 118.434 453.852 115.202C455.989 112.585 458.282 110.525 461.211 108.79C464.794 106.669 468.625 104.954 472.42 103.234C474.916 102.102 477.415 101.001 479.981 100.025C480.551 99.8084 481.449 99.2521 482.081 99.2499C483.419 99.2451 485.315 100.232 486.607 100.6C490.857 101.808 495.162 103.355 499.554 103.972C502.372 104.368 505.012 103.922 507.646 102.984C507.916 102.888 508.367 102.642 508.92 102.29C510.876 101.537 512.727 100.59 514.338 99.2236C515.267 98.4363 516.109 97.4189 516.877 96.4877C517.107 96.2094 517.209 95.8902 517.212 95.5869C517.386 95.4959 517.502 95.3897 517.528 95.2656C517.72 94.3491 515.972 94.3322 514.852 94.3868Z" fill="#89C5CC"/>
    <path fill-rule="evenodd" clip-rule="evenodd" d="M508.265 120.273C505.834 119.742 503.15 119.783 500.674 119.827C487.396 120.007 474.356 126.294 465.87 136.34C458.645 144.891 456.658 155.524 455.231 166.271C455.09 167.339 455.029 168.399 454.949 169.468C454.932 169.698 454.906 169.902 454.879 170.095C454.318 170.597 454.023 171.182 454.355 171.825C453.119 174.531 452.073 177.305 451.175 180.167C448.534 188.59 445.847 197.174 447.502 206.031C447.889 201.157 448.702 196.173 449.675 191.378C449.731 191.103 449.791 190.83 449.854 190.558C449.861 190.529 449.867 190.5 449.873 190.472C450.218 189.004 450.665 187.58 451.21 186.178C451.215 186.163 451.221 186.147 451.227 186.132C451.299 185.948 451.375 185.764 451.45 185.581C451.606 185.201 451.767 184.822 451.936 184.445C451.994 184.316 452.049 184.186 452.102 184.056C452.895 182.113 453.229 179.924 453.939 177.914C454.109 177.457 454.287 177.002 454.473 176.549C454.484 176.523 454.495 176.496 454.506 176.47C455.009 175.251 455.565 174.047 456.152 172.856C456.471 172.616 456.642 172.02 456.917 171.479C456.974 171.373 457.419 170.662 457.552 170.252C457.898 169.583 458.243 168.914 458.591 168.246C458.581 168.25 458.57 168.253 458.56 168.257C458.908 167.616 459.258 166.977 459.605 166.341C459.681 166.201 459.758 166.061 459.835 165.921C459.96 165.698 460.084 165.475 460.209 165.253C461.372 163.171 462.605 161.131 463.886 159.117C464.343 158.398 465.435 157.367 465.644 156.56C465.652 156.529 465.654 156.502 465.659 156.473C468.438 152.569 471.637 148.969 475.474 146.116C475.01 146.618 474.024 148.319 473.764 148.656C472.966 149.687 472.1 150.647 471.231 151.619C469.675 153.36 468.155 155.156 466.804 157.055C464.335 160.528 462.204 164.184 460.19 167.912C460.171 167.934 460.15 167.955 460.132 167.977C459.12 169.225 458.483 171.111 457.754 172.538C460.638 171.203 463.826 170.333 466.786 169.147C469.737 167.965 472.608 166.648 475.38 165.102C479.064 163.047 482.885 160.727 486.366 158.102C490.354 155.627 493.706 152.222 496.665 148.648C500.166 144.42 503.374 140.154 505.358 135.02C506.333 132.497 507.099 129.866 507.554 127.205C507.574 127.089 507.599 126.963 507.627 126.832C508.092 125.913 508.508 124.973 508.857 124.012C509.411 122.487 510.719 120.809 508.265 120.273Z" fill="#69A1AC"/>
    <path opacity="0.6" fill-rule="evenodd" clip-rule="evenodd" d="M583.303 310.778C521.139 417.535 369.376 387.053 226.213 386.74C83.0501 386.426 9.0122 333.421 71.1212 294.336C115.023 266.709 342.119 356.716 475.437 287.157C586.203 229.365 591.811 296.167 583.303 310.778Z" fill="#F9F9F9"/>
    <rect x="83.4181" y="0.421875" width="502.799" height="325.453" rx="7.52277" fill="#F9F9F9" stroke="#10A866" stroke-width="0.486413"/>
    <path d="M83.4435 27.7071C83.4435 23.5524 86.8116 20.1843 90.9663 20.1843H578.363C582.518 20.1843 585.886 23.5524 585.886 27.7071V56.3985H83.4435V27.7071Z" fill="#10A866"/>
    <path fill-rule="evenodd" clip-rule="evenodd" d="M95.9889 14.2484C97.7838 14.2484 99.2388 12.7905 99.2388 10.992C99.2388 9.19354 97.7838 7.7356 95.9889 7.7356C94.1941 7.7356 92.739 9.19354 92.739 10.992C92.739 12.7905 94.1941 14.2484 95.9889 14.2484Z" stroke="#10A866" stroke-width="0.468801"/>
    <path fill-rule="evenodd" clip-rule="evenodd" d="M114.924 14.2484C116.719 14.2484 118.174 12.7905 118.174 10.992C118.174 9.19354 116.719 7.7356 114.924 7.7356C113.129 7.7356 111.674 9.19354 111.674 10.992C111.674 12.7905 113.129 14.2484 114.924 14.2484Z" stroke="#10A866" stroke-width="0.468801"/>
    <path fill-rule="evenodd" clip-rule="evenodd" d="M133.858 14.2484C135.653 14.2484 137.108 12.7905 137.108 10.992C137.108 9.19354 135.653 7.7356 133.858 7.7356C132.063 7.7356 130.608 9.19354 130.608 10.992C130.608 12.7905 132.063 14.2484 133.858 14.2484Z" stroke="#10A866" stroke-width="0.468801"/>
    <rect x="111.385" y="33.2546" width="460.238" height="256.139" rx="3.76138" fill="white"/>
    <rect opacity="0.5" x="227.713" y="69.4695" width="148.086" height="4.52678" rx="1.91516" fill="#5D616B"/>
    <path fill-rule="evenodd" clip-rule="evenodd" d="M257.216 137.253C259.401 137.253 261.172 135.62 261.172 133.606C261.172 131.591 259.401 129.958 257.216 129.958C255.031 129.958 253.259 131.591 253.259 133.606C253.259 135.62 255.031 137.253 257.216 137.253Z" fill="#DDE3E9"/>
    <path fill-rule="evenodd" clip-rule="evenodd" d="M257.217 135.169C258.154 135.169 258.913 134.469 258.913 133.606C258.913 132.742 258.154 132.042 257.217 132.042C256.281 132.042 255.521 132.742 255.521 133.606C255.521 134.469 256.281 135.169 257.217 135.169Z" fill="#F2F2F2"/>
    <path fill-rule="evenodd" clip-rule="evenodd" d="M268.52 137.253C270.705 137.253 272.477 135.62 272.477 133.606C272.477 131.591 270.705 129.958 268.52 129.958C266.335 129.958 264.564 131.591 264.564 133.606C264.564 135.62 266.335 137.253 268.52 137.253Z" fill="#DDE3E9"/>
    <path fill-rule="evenodd" clip-rule="evenodd" d="M268.521 135.169C269.457 135.169 270.216 134.469 270.216 133.606C270.216 132.742 269.457 132.042 268.521 132.042C267.584 132.042 266.825 132.742 266.825 133.606C266.825 134.469 267.584 135.169 268.521 135.169Z" fill="#F2F2F2"/>
    <rect x="144.739" y="201.067" width="123.217" height="4.68852" rx="2.34426" fill="#F1F4F6"/>
    <rect x="144.739" y="213.516" width="82.7073" height="4.6885" rx="2.34425" fill="#F1F4F6"/>
    <rect x="144.739" y="178.621" width="123.217" height="4.6885" rx="2.34425" fill="#F1F4F6"/>
    <rect x="144.739" y="189.75" width="82.7073" height="4.68847" rx="2.34423" fill="#F1F4F6"/>
    <path opacity="0.5" d="M164.865 63.4116V74.4143H162.331L162.316 69.3766L160.229 74.4143H158.391L156.289 69.4384V74.4143H153.77V63.4116H156.042L159.333 70.9219L162.609 63.4116H164.865ZM174.841 66.5641L171.241 74.6925C170.767 75.7536 170.169 76.5262 169.448 77.0104C168.737 77.5049 167.857 77.814 166.806 77.9376L166.157 75.8051C166.878 75.6609 167.419 75.4754 167.779 75.2488C168.14 75.0221 168.413 74.7079 168.598 74.3061L168.799 73.8734L165.6 66.5641H168.506L170.267 71.0919L172.091 66.5641H174.841ZM183.984 74.5534C183.16 74.5534 182.346 74.4452 181.542 74.2289C180.739 74.0125 180.085 73.7189 179.58 73.348L180.492 71.2928C181.027 71.6327 181.594 71.8954 182.191 72.0809C182.799 72.256 183.407 72.3436 184.015 72.3436C184.633 72.3436 185.107 72.2612 185.437 72.0963C185.766 71.9212 185.931 71.6791 185.931 71.37C185.931 71.0919 185.782 70.8652 185.483 70.6901C185.184 70.5046 184.623 70.3244 183.799 70.1492C182.758 69.9432 181.949 69.6908 181.372 69.392C180.796 69.083 180.389 68.7224 180.152 68.3103C179.925 67.8982 179.812 67.3986 179.812 66.8113C179.812 66.1417 180.002 65.539 180.383 65.0033C180.765 64.4573 181.3 64.0349 181.991 63.7362C182.681 63.4271 183.469 63.2726 184.355 63.2726C185.148 63.2726 185.916 63.3859 186.657 63.6125C187.409 63.8289 187.997 64.1173 188.419 64.4779L187.523 66.5332C187.039 66.1932 186.529 65.9357 185.993 65.7605C185.457 65.5751 184.922 65.4824 184.386 65.4824C183.86 65.4824 183.438 65.5854 183.119 65.7914C182.799 65.9872 182.64 66.255 182.64 66.595C182.64 66.7804 182.696 66.935 182.81 67.0586C182.923 67.1822 183.134 67.3058 183.443 67.4295C183.752 67.5428 184.216 67.6664 184.834 67.8003C185.833 68.0167 186.616 68.2794 187.183 68.5885C187.76 68.8872 188.167 69.2426 188.404 69.6547C188.641 70.0565 188.759 70.5407 188.759 71.1073C188.759 72.1787 188.342 73.0235 187.507 73.6416C186.673 74.2495 185.498 74.5534 183.984 74.5534ZM195.479 66.3477C196.406 66.3477 197.097 66.6311 197.55 67.1977C198.014 67.754 198.245 68.5988 198.245 69.732V74.4143H195.448V69.8556C195.448 69.3714 195.366 69.0263 195.201 68.8203C195.036 68.6039 194.779 68.4957 194.428 68.4957C194.006 68.4957 193.666 68.64 193.409 68.9284C193.151 69.2066 193.022 69.5775 193.022 70.0411V74.4143H190.225V63.0408H193.022V67.5222C193.63 66.7392 194.449 66.3477 195.479 66.3477ZM203.824 74.5379C202.949 74.5379 202.186 74.3731 201.537 74.0434C200.888 73.7138 200.389 73.2399 200.038 72.6217C199.688 72.0036 199.513 71.2773 199.513 70.4428C199.513 69.6084 199.688 68.8821 200.038 68.2639C200.389 67.6458 200.888 67.1719 201.537 66.8422C202.186 66.5126 202.949 66.3477 203.824 66.3477C204.69 66.3477 205.442 66.5177 206.081 66.8577C206.73 67.1874 207.229 67.6613 207.579 68.2794C207.93 68.8872 208.105 69.6084 208.105 70.4428C208.105 71.2773 207.93 72.0036 207.579 72.6217C207.229 73.2296 206.73 73.7035 206.081 74.0434C205.442 74.3731 204.69 74.5379 203.824 74.5379ZM203.824 72.4518C204.834 72.4518 205.339 71.7821 205.339 70.4428C205.339 69.7629 205.21 69.2632 204.952 68.9439C204.705 68.6142 204.329 68.4494 203.824 68.4494C203.309 68.4494 202.923 68.6142 202.665 68.9439C202.408 69.2632 202.279 69.7629 202.279 70.4428C202.279 71.1331 202.408 71.643 202.665 71.9727C202.923 72.2921 203.309 72.4518 203.824 72.4518ZM214.598 66.3477C215.267 66.3477 215.865 66.5229 216.39 66.8731C216.916 67.2234 217.328 67.7128 217.627 68.3412C217.925 68.9696 218.075 69.6908 218.075 70.5046C218.075 71.3082 217.925 72.0191 217.627 72.6372C217.338 73.245 216.931 73.7138 216.406 74.0434C215.88 74.3731 215.278 74.5379 214.598 74.5379C214.083 74.5379 213.614 74.4401 213.192 74.2443C212.769 74.0383 212.445 73.755 212.218 73.3944V77.7522H209.421V68.8203C209.421 67.9755 209.38 67.2234 209.297 66.5641H211.924L212.079 67.7849C212.275 67.3522 212.599 67.0071 213.052 66.7495C213.506 66.4817 214.021 66.3477 214.598 66.3477ZM213.748 72.4518C214.253 72.4518 214.634 72.2869 214.891 71.9572C215.149 71.6276 215.278 71.1434 215.278 70.5046C215.278 69.8556 215.144 69.356 214.876 69.0057C214.618 68.6451 214.242 68.4648 213.748 68.4648C213.243 68.4648 212.857 68.6348 212.589 68.9748C212.321 69.3148 212.187 69.8144 212.187 70.4737C212.187 71.1125 212.321 71.6018 212.589 71.9418C212.857 72.2818 213.243 72.4518 213.748 72.4518Z" fill="#5D616B"/>
    <path fill-rule="evenodd" clip-rule="evenodd" d="M9.25753 198.107C11.7192 196.437 14.9927 196 17.9386 196C29.4445 196 40.2595 200.269 49.6024 206.63C54.7218 210.115 59.3016 214.553 63.3448 219.174C65.6786 221.842 67.7595 224.728 69.2328 227.937C70.227 230.104 70.9093 232.361 71.3718 234.689C71.9355 237.526 72.3833 240.421 72.5858 243.305C72.6656 244.441 73.3256 250.468 71.4371 250.57C71.4479 250.719 71.4504 250.861 71.4389 250.988C75.5395 257.399 78.0731 264.914 80.4225 272.038C82.4666 278.238 84.2881 284.49 85.4705 290.903C87.0272 299.347 88.0497 307.918 88.536 316.483C88.6404 318.324 88.712 320.166 88.7738 322.009C88.8261 323.581 88.8791 325.153 88.9307 326.725C88.9883 328.487 89.2985 330.516 89.0183 332.267C88.7745 333.792 87.4542 333.562 87.3959 332.044C87.3254 330.211 87.3369 328.374 87.2567 326.539C87.1501 324.105 87.0401 321.67 86.921 319.236C86.0916 302.328 82.9801 285.668 77.2377 269.697C74.9139 263.234 72.251 257.115 68.8286 251.136C65.8196 245.879 62.2002 240.79 58.5005 236.051C54.9046 231.444 51.166 226.945 46.76 223.042C43.1846 219.876 39.2517 217.117 35.209 214.55C30.0741 211.289 24.9491 208.108 19.387 205.606C16.4957 204.305 13.5499 203.14 10.6361 201.892C10.1118 201.667 9.54975 201.449 9.04552 201.189C7.36347 200.322 7.91724 199.015 9.25753 198.107Z" fill="#E7F6F0"/>
    <path fill-rule="evenodd" clip-rule="evenodd" d="M56.0955 257.458C51.4289 257.458 47.2764 258.065 42.9766 259.919C39.265 261.52 35.8826 263.639 32.5986 265.946C27.9792 269.19 24.3407 272.966 21.7939 277.97C20.2723 280.959 19.1562 285.188 20.178 288.448C21.3817 292.288 24.6868 295.491 29.0397 294.814C31.7313 294.396 34.1989 292.614 36.2447 290.937C38.692 288.931 40.6511 286.519 42.2687 283.839C44.9075 279.469 46.4581 274.528 48.6997 269.961C49.7634 267.794 50.7913 265.611 52.0653 263.551C52.696 262.531 53.3674 261.521 54.3242 260.763C54.8361 260.357 56.9944 259.655 56.169 258.745C68.2707 258.904 78.9915 268.198 81.3146 279.702C81.531 280.774 81.7001 281.855 81.8787 282.934C81.9915 283.615 81.9459 286.128 82.555 286.563C83.8981 287.523 83.3335 284.606 83.2759 284.187C83.1269 283.101 82.968 282.017 82.8013 280.934C81.8941 275.047 79.2729 269.573 74.9016 265.374C69.9028 260.573 63.1583 257.458 56.0955 257.458Z" fill="#E7F6F0"/>
    <path fill-rule="evenodd" clip-rule="evenodd" d="M132.755 240.528C131.057 239.569 128.894 239.459 126.969 239.618C119.451 240.237 112.613 243.609 106.85 248.268C103.692 250.821 100.938 253.968 98.5447 257.205C97.1632 259.074 95.9587 261.072 95.1687 263.248C94.6356 264.717 94.3111 266.229 94.1341 267.775C93.9185 269.659 93.7816 271.575 93.8045 273.471C93.8135 274.218 93.7065 278.192 94.9461 278.157C94.947 278.254 94.953 278.347 94.9674 278.429C92.6327 282.84 91.3815 287.887 90.2296 292.669C89.2274 296.83 88.3735 301.013 87.946 305.268C87.3831 310.87 87.1761 316.525 87.3192 322.149C87.3501 323.357 87.4023 324.565 87.4612 325.772C87.5116 326.803 87.5615 327.833 87.6124 328.863C87.6696 330.017 87.576 331.36 87.8534 332.489C88.0948 333.473 88.9451 333.251 88.9015 332.256C88.849 331.054 88.7426 329.854 88.6963 328.651C88.635 327.055 88.5758 325.458 88.5227 323.861C88.1549 312.767 89.2917 301.713 92.1848 290.967C93.3555 286.619 94.7664 282.477 96.6811 278.386C98.3645 274.789 100.456 271.269 102.618 267.972C104.72 264.769 106.921 261.627 109.591 258.84C111.757 256.578 114.178 254.564 116.682 252.669C119.862 250.262 123.04 247.908 126.54 245.973C128.359 244.967 130.221 244.048 132.058 243.075C132.389 242.9 132.744 242.728 133.06 242.531C134.112 241.873 133.68 241.049 132.755 240.528Z" fill="#E7F6F0"/>
    <path fill-rule="evenodd" clip-rule="evenodd" d="M105.342 281.833C108.391 281.582 111.138 281.754 114.047 282.735C116.559 283.581 118.883 284.784 121.153 286.115C124.346 287.986 126.927 290.258 128.861 293.39C130.016 295.262 130.973 297.966 130.48 300.151C129.9 302.725 127.913 304.995 125.032 304.787C123.251 304.659 121.542 303.628 120.115 302.642C118.408 301.463 116.998 299.992 115.797 298.328C113.837 295.614 112.558 292.469 110.848 289.605C110.036 288.246 109.247 286.875 108.303 285.597C107.836 284.964 107.343 284.34 106.677 283.896C106.321 283.659 104.873 283.317 105.363 282.677C97.4636 283.432 90.958 290.082 90.059 297.725C89.9753 298.438 89.9229 299.153 89.8642 299.868C89.8272 300.319 89.9922 301.958 89.6176 302.275C88.7916 302.975 89.0036 301.039 89.0187 300.761C89.0576 300.044 89.1031 299.327 89.1538 298.611C89.4298 294.714 90.8481 290.996 93.4787 288.017C96.4869 284.611 100.727 282.213 105.342 281.833Z" fill="#E7F6F0"/>
    <path fill-rule="evenodd" clip-rule="evenodd" d="M64.8439 0.820412C64.8403 0.828727 64.8367 0.837043 64.8313 0.847022C64.8367 0.838706 64.8439 0.805444 64.8439 0.820412Z" fill="#C5CFD6"/>
    <path fill-rule="evenodd" clip-rule="evenodd" d="M64.8355 0.83305C64.8355 0.834713 64.8337 0.838039 64.8337 0.841365C64.8337 0.833049 64.8499 0.808103 64.8355 0.83305Z" fill="#C5CFD6"/>
    <path fill-rule="evenodd" clip-rule="evenodd" d="M64.8982 0.692355C64.8855 0.725617 64.8693 0.757216 64.8549 0.790479C64.8621 0.773848 64.8693 0.760543 64.8765 0.743911C64.6889 1.17632 64.808 0.895256 64.8982 0.692355Z" fill="#C5CFD6"/>
    <path fill-rule="evenodd" clip-rule="evenodd" d="M64.8578 0.792515C64.8506 0.807483 64.8433 0.824114 64.8361 0.839082C64.7838 0.932217 64.8578 0.792515 64.8578 0.792515Z" fill="#C5CFD6"/>
    <path fill-rule="evenodd" clip-rule="evenodd" d="M64.8367 0.833469C64.8367 0.831806 64.8367 0.831806 64.8385 0.830143C64.8367 0.831806 64.8367 0.831806 64.8367 0.833469Z" fill="#C5CFD6"/>
    <path fill-rule="evenodd" clip-rule="evenodd" d="M64.8281 0.845403C64.8173 0.86536 64.8786 0.768899 64.8281 0.845403V0.845403Z" fill="#C5CFD6"/>
    <path fill-rule="evenodd" clip-rule="evenodd" d="M64.8358 0.833469L64.8394 0.830143C64.8376 0.831806 64.8376 0.833469 64.8358 0.833469Z" fill="#C5CFD6"/>
    <rect x="253.261" y="92.6128" width="125.478" height="4.52679" rx="2.26339" fill="#F1F4F6"/>
    <rect x="253.261" y="103.93" width="92.6954" height="4.52678" rx="2.26339" fill="#F1F4F6"/>
    <rect x="253.261" y="115.247" width="125.478" height="5.65846" rx="2.7189" fill="#F1F4F6"/>
    <g opacity="0.4">
        <rect x="408.131" y="61.5667" width="60.8584" height="64.9179" rx="7.25039" fill="white" stroke="#0077E4" stroke-width="0.468801"/>
        <path fill-rule="evenodd" clip-rule="evenodd" d="M438.56 99.235C446.242 99.235 452.47 93.4938 452.47 86.4117C452.47 79.3296 446.242 73.5884 438.56 73.5884C430.877 73.5884 424.649 79.3296 424.649 86.4117C424.649 93.4938 430.877 99.235 438.56 99.235Z" fill="#DDE3E9"/>
        <rect x="416.825" y="102.441" width="43.4702" height="4.80873" rx="2.40436" fill="#DDE3E9"/>
        <rect x="423.78" y="110.456" width="29.5598" height="4.80872" rx="2.40436" fill="#DDE3E9"/>
    </g>
    <g opacity="0.4">
        <rect x="480.478" y="62.0571" width="60.8584" height="64.9179" rx="7.25039" fill="white" stroke="#0077E4" stroke-width="0.468801"/>
        <path fill-rule="evenodd" clip-rule="evenodd" d="M510.907 99.7254C518.589 99.7254 524.817 93.9843 524.817 86.9021C524.817 79.82 518.589 74.0789 510.907 74.0789C503.224 74.0789 496.996 79.82 496.996 86.9021C496.996 93.9843 503.224 99.7254 510.907 99.7254Z" fill="#DDE3E9"/>
        <rect x="489.17" y="102.931" width="43.4703" height="4.80872" rx="2.40436" fill="#DDE3E9"/>
        <rect x="496.127" y="110.946" width="29.5597" height="4.80873" rx="2.40436" fill="#DDE3E9"/>
    </g>
    <g opacity="0.4">
        <rect x="408.131" y="142.407" width="60.8584" height="64.9179" rx="7.25039" fill="white" stroke="#0077E4" stroke-width="0.468801"/>
        <path fill-rule="evenodd" clip-rule="evenodd" d="M438.56 180.076C446.242 180.076 452.47 174.335 452.47 167.253C452.47 160.171 446.242 154.429 438.56 154.429C430.877 154.429 424.649 160.171 424.649 167.253C424.649 174.335 430.877 180.076 438.56 180.076Z" fill="#DDE3E9"/>
        <rect x="416.825" y="183.282" width="43.4702" height="4.80871" rx="2.40436" fill="#DDE3E9"/>
        <rect x="423.78" y="191.297" width="29.5598" height="4.80874" rx="2.40437" fill="#DDE3E9"/>
    </g>
    <g opacity="0.4">
        <rect x="480.478" y="142.898" width="60.8584" height="64.9179" rx="7.25039" fill="white" stroke="#0077E4" stroke-width="0.468801"/>
        <path fill-rule="evenodd" clip-rule="evenodd" d="M510.907 180.566C518.589 180.566 524.817 174.825 524.817 167.743C524.817 160.661 518.589 154.92 510.907 154.92C503.224 154.92 496.996 160.661 496.996 167.743C496.996 174.825 503.224 180.566 510.907 180.566Z" fill="#DDE3E9"/>
        <rect x="489.17" y="183.772" width="43.4703" height="4.80873" rx="2.40436" fill="#DDE3E9"/>
        <rect x="496.127" y="191.787" width="29.5597" height="4.80871" rx="2.40436" fill="#DDE3E9"/>
    </g>
    <g opacity="0.4">
        <path fill-rule="evenodd" clip-rule="evenodd" d="M399.293 251.84C401.903 251.84 404.018 249.89 404.018 247.484C404.018 245.078 401.903 243.128 399.293 243.128C396.683 243.128 394.567 245.078 394.567 247.484C394.567 249.89 396.683 251.84 399.293 251.84Z" fill="#DDE3E9"/>
        <path fill-rule="evenodd" clip-rule="evenodd" d="M399.295 249.351C400.413 249.351 401.32 248.515 401.32 247.484C401.32 246.453 400.413 245.617 399.295 245.617C398.176 245.617 397.269 246.453 397.269 247.484C397.269 248.515 398.176 249.351 399.295 249.351Z" fill="#F2F2F2"/>
    </g>
    <g opacity="0.4">
        <path fill-rule="evenodd" clip-rule="evenodd" d="M399.291 228.075C401.901 228.075 404.017 226.124 404.017 223.719C404.017 221.313 401.901 219.363 399.291 219.363C396.682 219.363 394.566 221.313 394.566 223.719C394.566 226.124 396.682 228.075 399.291 228.075Z" fill="#DDE3E9"/>
        <path fill-rule="evenodd" clip-rule="evenodd" d="M399.294 225.586C400.413 225.586 401.319 224.75 401.319 223.719C401.319 222.688 400.413 221.852 399.294 221.852C398.176 221.852 397.269 222.688 397.269 223.719C397.269 224.75 398.176 225.586 399.294 225.586Z" fill="#F2F2F2"/>
    </g>
    <rect x="408.132" y="221.626" width="133.391" height="4.52677" rx="2.26339" fill="#F1F4F6"/>
    <rect x="408.132" y="232.943" width="98.3475" height="4.52679" rx="2.26339" fill="#F1F4F6"/>
    <rect x="408.132" y="244.26" width="133.391" height="5.65847" rx="2.7189" fill="#F1F4F6"/>
    <rect x="408.132" y="256.708" width="133.391" height="5.65847" rx="2.7189" fill="#F1F4F6"/>
    <rect x="262.759" y="146.314" width="45.7081" height="16.408" rx="2.7189" fill="#10A866"/>
    <path d="M284.454 155.336C284.863 155.453 285.178 155.66 285.398 155.959C285.619 156.251 285.729 156.608 285.729 157.03C285.729 157.413 285.629 157.747 285.427 158.033C285.226 158.318 284.937 158.539 284.561 158.695C284.191 158.851 283.753 158.929 283.246 158.929H279.79V151.996H283.159C283.886 151.996 284.464 152.158 284.892 152.483C285.32 152.807 285.535 153.246 285.535 153.797C285.535 154.154 285.44 154.469 285.252 154.742C285.064 155.014 284.798 155.212 284.454 155.336ZM281.572 154.713H282.847C283.185 154.713 283.431 154.661 283.587 154.557C283.743 154.453 283.821 154.287 283.821 154.06C283.821 153.827 283.74 153.655 283.577 153.544C283.422 153.434 283.178 153.379 282.847 153.379H281.572V154.713ZM283.032 157.546C283.383 157.546 283.633 157.491 283.782 157.38C283.938 157.27 284.016 157.085 284.016 156.825C284.016 156.559 283.941 156.371 283.792 156.261C283.642 156.15 283.389 156.095 283.032 156.095H281.572V157.546H283.032ZM289.674 159.016C288.661 159.016 287.895 158.763 287.376 158.257C286.857 157.744 286.597 156.994 286.597 156.008V151.996H288.379V156.076C288.379 156.576 288.489 156.959 288.71 157.225C288.937 157.491 289.259 157.624 289.674 157.624C290.083 157.624 290.398 157.491 290.619 157.225C290.839 156.952 290.95 156.569 290.95 156.076V151.996H292.751V156.008C292.751 156.981 292.485 157.728 291.952 158.247C291.427 158.76 290.667 159.016 289.674 159.016ZM297.443 156.28V158.929H295.603V156.27L292.692 151.996H294.756L296.509 154.761L298.291 151.996H300.374L297.443 156.28Z" fill="white"/>
    <path d="M275.311 155.818C275.311 156.351 275.129 156.802 274.766 157.172C274.409 157.542 273.922 157.785 273.305 157.902V159.022H271.903V157.951C271.04 157.873 270.336 157.639 269.79 157.25L270.365 155.964C270.884 156.308 271.442 156.51 272.039 156.568V155.117C271.605 155.007 271.235 154.884 270.93 154.747C270.631 154.604 270.378 154.397 270.17 154.124C269.962 153.851 269.858 153.494 269.858 153.053C269.858 152.534 270.047 152.083 270.423 151.7C270.8 151.317 271.293 151.064 271.903 150.94V149.83H273.305V150.921C273.675 150.973 274.019 151.06 274.337 151.184C274.662 151.3 274.925 151.44 275.126 151.602L274.552 152.897C274.091 152.605 273.636 152.414 273.188 152.323V153.783C273.617 153.894 273.977 154.017 274.269 154.153C274.561 154.283 274.808 154.484 275.009 154.757C275.21 155.023 275.311 155.377 275.311 155.818ZM271.669 152.936C271.669 153.144 271.793 153.313 272.039 153.442V152.381C271.923 152.433 271.832 152.508 271.767 152.605C271.702 152.703 271.669 152.813 271.669 152.936ZM273.188 156.441C273.396 156.325 273.5 156.146 273.5 155.906C273.5 155.724 273.396 155.581 273.188 155.477V156.441Z" fill="white"/>
    <rect width="93.0973" height="67.3095" rx="3.6252" transform="matrix(-1 0 0 1 244.619 94.8762)" fill="#D9F5E9"/>
    <rect width="93.0973" height="67.3095" rx="3.6252" transform="matrix(-1 0 0 1 240.098 90.3494)" fill="#F5FCF9" stroke="#10A866" stroke-width="0.468801"/>
    <path d="M395.836 203.794L394.336 206.849L402.396 200.088C409.127 194.443 417.572 191.244 426.354 191.013L432.887 190.841C452.401 190.327 467.197 173.063 464.719 153.701C462.148 133.617 442.25 120.576 422.809 126.233L420.664 126.857C402.175 132.237 391.545 151.583 396.916 170.074L398.346 174.996C401.128 184.572 400.233 194.843 395.836 203.794Z" fill="white"/>
    <path d="M395.836 203.794L394.336 206.849L402.396 200.088C409.127 194.443 417.572 191.244 426.354 191.013L432.887 190.841C452.401 190.327 467.197 173.063 464.719 153.701C462.148 133.617 442.25 120.576 422.809 126.233L420.664 126.857C402.175 132.237 391.545 151.583 396.916 170.074L398.346 174.996C401.128 184.572 400.233 194.843 395.836 203.794Z" fill="#10A866" fill-opacity="0.1"/>
    <path d="M390.741 201.333L389.241 204.388L397.301 197.628C404.032 191.982 412.477 188.783 421.259 188.552L427.792 188.38C447.306 187.867 462.102 170.603 459.624 151.24C457.053 131.157 437.155 118.115 417.714 123.772L415.569 124.397C397.08 129.777 386.45 149.122 391.821 167.613L393.251 172.535C396.033 182.112 395.138 192.382 390.741 201.333Z" stroke="#10A866" stroke-width="0.891392"/>
    <path d="M444.121 162.138C444.121 163.894 443.521 165.383 442.322 166.604C441.144 167.825 439.538 168.628 437.503 169.013V172.708H432.877V169.174C430.028 168.917 427.704 168.146 425.905 166.861L427.801 162.62C429.514 163.755 431.356 164.419 433.327 164.612V159.825C431.892 159.461 430.671 159.054 429.664 158.604C428.679 158.133 427.844 157.448 427.158 156.548C426.473 155.649 426.13 154.471 426.13 153.014C426.13 151.301 426.751 149.812 427.994 148.549C429.236 147.285 430.864 146.45 432.877 146.043V142.38H437.503V145.978C438.724 146.15 439.859 146.439 440.908 146.846C441.979 147.231 442.847 147.692 443.511 148.227L441.615 152.5C440.095 151.536 438.595 150.905 437.118 150.605V155.424C438.531 155.788 439.72 156.195 440.684 156.644C441.647 157.073 442.461 157.737 443.125 158.636C443.789 159.514 444.121 160.682 444.121 162.138ZM432.106 152.629C432.106 153.314 432.513 153.871 433.327 154.299V150.797C432.941 150.969 432.641 151.215 432.427 151.536C432.213 151.858 432.106 152.222 432.106 152.629ZM437.118 164.194C437.803 163.809 438.146 163.22 438.146 162.427C438.146 161.828 437.803 161.356 437.118 161.014V164.194Z" fill="#10A866"/>
    <path d="M420.294 156.787V160.939H413.945V167.323H409.758V160.939H403.409V156.787H409.758V150.403H413.945V156.787H420.294Z" fill="#10A866"/>
    <path fill-rule="evenodd" clip-rule="evenodd" d="M359.13 214.153C355.01 214.153 353.511 209.2 351.17 206.482C349.494 204.537 346.636 205.117 345.789 202.395C343.661 195.549 349.357 190.73 356.787 190.73C364.217 190.73 369.226 194.956 370.308 201.309C371.39 207.661 366.56 214.153 359.13 214.153Z" fill="#191847"/>
    <path fill-rule="evenodd" clip-rule="evenodd" d="M354.465 213.26C352.129 214.674 349.834 215.357 348.756 215.078C346.056 214.379 345.808 204.462 347.897 200.552C349.986 196.642 360.728 194.938 361.269 202.685C361.457 205.372 360.334 207.771 358.673 209.729L361.653 223.67H352.999L354.465 213.26Z" fill="#B28B67"/>
    <path fill-rule="evenodd" clip-rule="evenodd" d="M360.71 197.246C367.338 203.762 360.685 210.687 358.862 210.687C358.744 209.747 358.385 208.833 357.859 207.963C358.139 207.599 358.305 207.147 358.305 206.658C358.305 205.458 357.311 204.486 356.085 204.486C355.702 204.486 355.341 204.581 355.027 204.748C352.369 202.473 349.036 200.886 347.381 200.574C344.503 200.032 354.082 190.731 360.71 197.246Z" fill="#191847"/>
    <path fill-rule="evenodd" clip-rule="evenodd" d="M364.536 253.714L350.968 298.246L344.395 336.117H339.241L346.187 253.714H364.536Z" fill="#997659"/>
    <path fill-rule="evenodd" clip-rule="evenodd" d="M369.393 253.714C368.472 278.165 369.556 290.777 369.763 292.998C369.969 295.219 372.793 309.623 379.48 336.863L373.988 334.97C363.421 309.987 359.82 297.002 358.608 293.722C357.396 290.441 354.177 277.105 348.951 253.714H369.393Z" fill="#B28B67"/>
    <path fill-rule="evenodd" clip-rule="evenodd" d="M377.053 335.052C378.224 334.725 379.566 335.166 379.871 336.343C379.971 336.73 380.04 337.096 380.04 337.369C380.04 338.348 379.715 340.226 379.715 340.226C378.584 340.226 359.379 340.226 359.379 340.226C359.379 340.226 358.586 337.596 360.294 337.386C362.002 337.176 363.131 337.007 363.131 337.007L371.947 333.062C372.481 332.823 373.106 333.073 373.329 333.614L373.672 334.449C373.672 334.449 375.253 335.189 376.241 335.189C376.473 335.189 376.756 335.135 377.053 335.052Z" fill="#111858"/>
    <path fill-rule="evenodd" clip-rule="evenodd" d="M343.161 335.052C344.332 334.725 345.674 335.166 345.979 336.343C346.079 336.73 346.149 337.096 346.149 337.369C346.149 338.348 345.824 340.226 345.824 340.226C344.692 340.226 325.487 340.226 325.487 340.226C325.487 340.226 324.694 337.596 326.402 337.386C328.11 337.176 329.24 337.007 329.24 337.007L338.055 333.062C338.589 332.823 339.215 333.073 339.437 333.614L339.78 334.449C339.78 334.449 341.361 335.189 342.349 335.189C342.581 335.189 342.864 335.135 343.161 335.052Z" fill="#111858"/>
    <path fill-rule="evenodd" clip-rule="evenodd" d="M366.34 253.714L360.571 276.403H342.95L345.577 253.714H366.34Z" fill="#69A1AC"/>
    <path fill-rule="evenodd" clip-rule="evenodd" d="M369.586 253.714C372.433 262.282 370.668 276.403 370.668 276.403H352.686L347.741 253.714H369.586Z" fill="#89C5CC"/>
    <path fill-rule="evenodd" clip-rule="evenodd" d="M330.418 205.332L320.626 194.915C319.415 191.917 318.06 189.454 316.561 187.525C316.053 187.087 315.072 186.602 315.474 188.619C315.876 190.637 316.208 192.776 315.545 193.14C314.881 193.504 313.9 192.372 313.027 193.051C312.446 193.505 314.233 195.106 318.389 197.855L324.457 208.603L330.418 205.332Z" fill="#B28B67"/>
    <path fill-rule="evenodd" clip-rule="evenodd" d="M378.127 249.378C378.127 249.378 381.725 270.352 382.782 272.504C383.299 273.556 387.122 276.752 389.775 278.578C390.84 279.311 390.399 280.249 389.997 280.499C386.725 282.525 384.571 280.129 381.74 278.806C378.638 277.358 378.9 281.449 376.441 280.344C377.196 278.645 378.961 275.484 378.127 273.408C377.571 272.024 370.592 249.408 370.592 249.408L378.127 249.378Z" fill="#B28B67"/>
    <path fill-rule="evenodd" clip-rule="evenodd" d="M357.253 231.711C358.172 231.812 359.016 231.22 359.268 230.331C359.519 229.447 359.116 228.511 358.312 228.065C346.766 221.662 336.581 212.076 327.758 199.305C326.875 198.027 325.133 197.663 323.835 198.515L315.669 203.873C314.203 204.835 313.964 206.891 315.2 208.137C328.238 221.28 342.159 230.049 357.253 231.711Z" fill="#191847"/>
    <path fill-rule="evenodd" clip-rule="evenodd" d="M370.306 256.972H342.542C342.542 256.972 352.19 233.421 352.19 216.96L360.565 215.707C367.147 226.334 369.006 239.418 370.306 256.972Z" fill="#DDE3E9"/>
    <path fill-rule="evenodd" clip-rule="evenodd" d="M379.853 268.918C381.506 268.918 382.806 267.499 382.612 265.857C378.766 233.484 360.83 215.784 360.752 215.707C360.75 215.705 360.75 215.709 360.748 215.711L360.747 215.711C360.745 215.713 360.741 215.713 360.739 215.71C360.738 215.708 360.737 215.707 360.735 215.707H360.191C359.896 215.717 359.508 215.733 359.109 215.749C357.958 215.795 356.953 216.543 356.574 217.632L355.321 221.226C355.227 221.497 355.175 221.766 355.165 222.053C354.846 230.953 352.604 253.125 351.754 261.321C351.581 262.985 352.887 264.431 354.56 264.431H367.417C368.618 264.431 369.588 265.402 369.533 266.602C369.476 267.845 370.455 268.918 371.7 268.918H379.853Z" fill="#2F3676"/>
    <path fill-rule="evenodd" clip-rule="evenodd" d="M369.599 264.574C369.744 258.15 369.177 252.119 368.23 246.661C367.735 253.138 366.699 260.931 364.537 264.574H369.599Z" fill="black" fill-opacity="0.1"/>
    <path fill-rule="evenodd" clip-rule="evenodd" d="M365.58 253.352L356.606 249.164V253.352H365.58Z" fill="white" fill-opacity="0.2"/>
    <path fill-rule="evenodd" clip-rule="evenodd" d="M240.333 216.502C242.963 218.088 245.547 218.854 246.76 218.541C249.802 217.757 250.081 206.631 247.728 202.245C245.375 197.859 233.277 195.947 232.667 204.637C232.456 207.653 233.722 210.345 235.593 212.541L232.237 228.18H241.984L240.333 216.502Z" fill="#FCD094"/>
    <path fill-rule="evenodd" clip-rule="evenodd" d="M240.82 205.596C241.663 204.342 242.472 203.384 243.525 202.829C247.81 202.896 248.311 202.128 248.311 199.539C247.619 199.044 245.177 198.21 242.443 197.976C241.048 197.576 239.395 197.651 237.803 198.317C235.838 198.875 233.86 199.905 233.125 202.153C230.466 206.742 232.798 211.69 235.518 213.322C236.242 212.464 236.874 211.633 237.438 210.837C236.985 210.395 236.704 209.777 236.704 209.094C236.704 207.748 237.795 206.658 239.14 206.658C239.24 206.658 239.337 206.664 239.434 206.675C239.494 208.358 239.743 214.049 240.398 216.027C241.17 218.358 245.673 218.93 247.243 218.93C248.6 218.93 248.554 217.645 248.52 216.725C248.516 216.592 248.511 216.467 248.511 216.355C248.511 216.119 248.205 216.12 247.86 216.121C247.411 216.122 246.895 216.123 246.895 215.608C246.895 215.047 247.671 214.616 248.365 214.231C248.798 213.99 249.199 213.768 249.36 213.542C249.87 212.829 250.041 211.868 249.273 211.868C248.853 211.868 248.277 212.11 247.584 212.401C246.538 212.841 245.226 213.392 243.781 213.392C241.38 213.392 240.82 205.596 240.82 205.596L240.82 205.596Z" fill="#191847"/>
    <path fill-rule="evenodd" clip-rule="evenodd" d="M230.32 258.716L257.853 304.746L278.495 343.661H282.941L248.355 258.716L230.32 258.716Z" fill="#FCD094"/>
    <path fill-rule="evenodd" clip-rule="evenodd" d="M276.732 341.418C276.375 341.259 275.95 341.418 275.816 341.785C275.544 342.527 275.156 343.698 275.156 344.349C275.156 345.351 275.49 347.274 275.49 347.274C276.653 347.274 296.389 347.274 296.389 347.274C296.389 347.274 297.204 344.581 295.449 344.366C293.694 344.151 292.533 343.978 292.533 343.978L282.784 339.633C282.613 339.556 282.412 339.636 282.34 339.81L281.701 341.36C281.701 341.36 280.076 342.118 279.06 342.118C278.419 342.118 277.397 341.715 276.732 341.418Z" fill="#CE8C3B"/>
    <path fill-rule="evenodd" clip-rule="evenodd" d="M272.763 337.43L281.338 334.836C281.338 334.836 275.703 317.991 267.525 297.761C259.347 277.531 249.959 258.716 249.959 258.716H225.743C225.743 258.716 236.18 282.516 247.872 301.967C259.564 321.417 272.763 337.43 272.763 337.43Z" fill="#004CAE"/>
    <path fill-rule="evenodd" clip-rule="evenodd" d="M228.511 258.716C225.913 274.891 220.901 295.557 220.428 296.195C220.112 296.62 208.76 300.424 186.371 307.607L187.332 311.527C214.031 307.675 228.099 304.687 229.536 302.561C231.691 299.374 242.455 274.19 246.625 258.716H228.511Z" fill="#FCD094"/>
    <path fill-rule="evenodd" clip-rule="evenodd" d="M194.242 304.218L195.934 310.532C215.903 312.284 228.139 311.018 232.641 306.736C237.142 302.453 242.273 286.447 248.033 258.716H224.941C221.292 281.424 219.251 293.254 218.82 294.207C218.389 295.161 210.197 298.497 194.242 304.218Z" fill="#0077E4"/>
    <path fill-rule="evenodd" clip-rule="evenodd" d="M194.242 304.218L195.934 310.532C215.903 312.284 228.139 311.018 232.641 306.736C237.142 302.453 242.273 286.447 248.033 258.716H224.941C221.292 281.424 219.251 293.254 218.82 294.207C218.389 295.161 210.197 298.497 194.242 304.218Z" fill="#E4E4E4" style="mix-blend-mode:multiply"/>
    <path fill-rule="evenodd" clip-rule="evenodd" d="M188.072 306.835C188.166 306.456 187.936 306.065 187.551 305.997C186.773 305.858 185.552 305.68 184.912 305.792C183.925 305.967 182.089 306.629 182.089 306.629C182.291 307.774 185.718 327.211 185.718 327.211C185.718 327.211 188.512 327.545 188.419 325.78C188.325 324.014 188.294 322.84 188.294 322.84L190.881 312.486C190.927 312.303 190.813 312.119 190.629 312.079L188.992 311.719C188.992 311.719 187.963 310.25 187.787 309.25C187.675 308.618 187.895 307.542 188.072 306.835Z" fill="#CE8C3B"/>
    <path fill-rule="evenodd" clip-rule="evenodd" d="M261.945 228.587L249.084 235.631L253.834 240.729L263.179 232.172C268.102 230.815 270.353 229.823 269.933 229.194C269.579 228.665 269.007 228.683 268.481 228.7C268.07 228.713 267.688 228.725 267.456 228.477C266.928 227.91 267.936 225.927 268.973 224.085C270.011 222.244 268.901 222.405 268.267 222.669C266.191 224.075 264.084 226.047 261.945 228.587ZM276.02 240.27L270.371 243.373L270.693 249.042C270.693 249.042 274.352 246.402 277.5 245.524C281.513 244.405 283.137 243.55 285.099 241.051C286.148 239.714 287.039 237.026 286.04 236.15C285.657 235.815 284.229 236.608 282.772 237.417C281.662 238.034 280.535 238.661 279.841 238.804C278.906 238.996 279.015 237.784 279.103 236.816C279.166 236.122 279.217 235.552 278.863 235.717C277.21 235.745 276.02 240.27 276.02 240.27Z" fill="#FCD094"/>
    <path fill-rule="evenodd" clip-rule="evenodd" d="M242.104 234.949C242.498 234.331 243.231 234.063 243.963 234.031C247.613 233.868 252.098 233.063 256.919 230.608C258.448 229.829 260.373 230.397 261.075 231.963L261.464 232.83C261.943 233.9 261.718 235.163 260.838 235.938C256.565 239.7 251.062 242.585 246.187 242.448C242.292 242.339 240.129 238.045 242.104 234.949Z" fill="#E18812"/>
    <path d="M230.674 272.521C227.688 272.132 224.871 271.765 222.649 271.733C221.207 271.713 219.783 270.864 219.478 269.455C217.909 262.21 219.88 257.568 221.686 253.122C222.895 250.145 224.043 247.318 224.045 244.041C224.052 234.498 231.715 219.809 232.842 219.809H240.519C241.989 219.809 243.204 220.942 243.412 222.397C244.15 227.562 245.83 233.038 247.519 238.543C247.819 239.519 248.118 240.495 248.413 241.471C248.708 242.447 249.499 243.21 250.515 243.296C256.515 243.808 266.122 241.052 270.559 239.639C271.928 239.203 273.418 239.824 273.986 241.144C274.984 243.465 276.393 247.068 276.752 249.66C276.884 250.613 276.304 251.473 275.443 251.905C267.686 255.797 260.846 257.857 254.967 258.459C253.385 258.622 252.156 259.958 252.094 261.547C251.978 264.535 251.391 267.391 250.138 270.056C247.921 274.77 239.403 273.229 230.674 272.521Z" fill="#FFA630"/>
    <path fill-rule="evenodd" clip-rule="evenodd" d="M521.65 224.903C531.201 239.675 542.326 253.978 549.007 270.129C548.738 268.226 548.453 266.324 548.133 264.425C546.438 254.358 544.331 244.365 542.117 234.384C540.99 229.302 539.797 224.238 538.574 219.175C537.916 216.456 537.267 213.735 536.595 211.018C536.433 210.36 536.293 209.21 536.089 208.045C542.582 227.686 548.843 247.342 553.423 267.455C554.024 270.094 554.536 272.729 554.955 275.359C555.098 274.759 555.239 274.159 555.394 273.561C557.247 266.387 560.026 259.271 563.336 252.563C564.918 249.356 566.736 246.218 568.876 243.295C570.21 241.473 573.357 239.307 574.574 237.44C567.917 248.696 565.513 262.78 561.669 275.017C560.731 278.003 559.787 280.984 558.862 283.971C564.659 273.254 573.652 264.449 586.157 260.634C571.021 269.853 561.942 285.999 555.824 302.511C555.804 302.707 555.78 302.903 555.759 303.099C557.559 299.95 559.827 297.101 562.901 295.105C569.479 290.834 576.776 292.078 583.157 295.742C578.149 292.808 569.098 295.48 564.884 298.463C561.868 300.598 559.29 303.462 557.051 306.257C556.514 306.927 555.783 307.708 555.009 308.542C553.925 315.029 552.159 321.471 549.658 327.862C550.071 326.027 549.772 323.093 549.887 321.726C549.899 321.578 549.909 321.43 549.922 321.282C549.541 322.682 549.174 324.065 548.821 325.426C549.524 322.829 549.906 320.118 550.204 317.378C550.281 316.201 550.356 315.024 550.435 313.847C550.41 311.613 550.31 309.37 550.141 307.123C549.542 304.94 548.872 302.88 548.319 301.168C546.325 294.988 543.401 289.067 539.802 283.544C536.518 278.504 532.587 273.938 528.05 269.81C525.603 267.584 523.043 265.465 520.519 263.316C519.607 262.54 517.975 260.63 516.564 259.634C526.84 264.856 537.416 270.506 544.912 278.92C544.033 275.809 543.079 272.742 542.069 269.736C536.946 254.488 530.478 238.685 521.65 224.903Z" fill="#27AE60"/>
    <path fill-rule="evenodd" clip-rule="evenodd" d="M531.916 308.521C531.916 325.455 533.37 339.183 552.896 339.183C572.421 339.183 573.876 325.455 573.876 308.521" fill="#273043"/>
    <path d="M218.28 123.07C216.513 122.725 213.52 122.722 209.954 122.014L210.444 125.145C210.528 125.678 210.188 126.184 209.688 126.272C209.637 126.281 209.586 126.284 209.535 126.284C209.094 126.284 208.704 125.946 208.63 125.468L208.12 122.214C208.064 121.858 207.753 121.5 207.427 121.407C207.243 121.353 207.058 121.298 206.872 121.241C206.546 121.141 206.329 121.344 206.384 121.699L206.641 123.339C206.725 123.873 206.385 124.377 205.885 124.468C205.834 124.476 205.783 124.481 205.732 124.481C205.292 124.481 204.902 124.143 204.827 123.664L204.403 120.96C204.348 120.603 204.048 120.209 203.735 120.069C203.515 119.973 203.295 119.871 203.074 119.765C202.765 119.618 202.564 119.78 202.62 120.136L202.839 121.533C202.923 122.068 202.585 122.573 202.084 122.661C202.032 122.67 201.982 122.676 201.931 122.676C201.491 122.676 201.102 122.336 201.026 121.857L200.576 118.981C200.521 118.625 200.239 118.189 199.95 118.001C199.677 117.82 199.402 117.632 199.127 117.437C198.846 117.238 198.666 117.357 198.722 117.713L199.037 119.728C199.122 120.262 198.783 120.766 198.282 120.854C198.23 120.865 198.179 120.869 198.13 120.869C197.688 120.869 197.299 120.53 197.224 120.05L196.442 115.052C196.259 114.829 196.09 114.611 195.957 114.421C194.826 112.819 192.566 109.897 190.699 109.193C188.745 108.458 187.179 109.96 186.842 111.353C186.674 112.053 186.969 113.216 187.179 113.903C187.309 114.329 187.512 114.794 187.827 115.177C188.272 115.721 188.441 116.296 187.924 116.761C186.716 117.856 184.429 119.71 181.838 120.733C176.731 122.747 175.836 119.971 175.836 119.971C175.836 119.971 174.706 116.068 172.896 114.663C172.349 114.237 171.216 114.084 170.558 114.25C170.325 114.31 170.11 114.403 169.905 114.511C170.309 117.025 172.079 123.092 179.821 127.073C189.862 132.241 209.86 133.272 213.607 133.421C213.946 133.435 213.95 133.497 213.617 133.557C211.176 133.996 201.717 135.489 192.308 134.259C180.744 132.744 170.101 129.196 167.315 119.208C167.258 119.426 167.203 119.631 167.15 119.807C166.701 121.316 166.285 122.321 166.198 125.603C166.18 126.325 165.902 127.415 165.663 128.09C165.377 128.897 165.074 130.09 165.034 131.564C164.995 133.031 164.996 134.284 165.006 135.156C165.015 135.877 165.442 136.861 166.025 137.227C166.442 137.491 166.97 137.76 167.577 137.926C168.233 138.107 169.25 138.431 169.896 138.65C170.175 138.745 170.5 138.826 170.862 138.866C171.535 138.94 172.324 138.844 172.62 138.862C172.916 138.879 173.156 139.043 173.156 139.229C173.156 139.416 173.509 139.566 173.947 139.566C174.384 139.566 174.864 139.37 175.019 139.131C175.174 138.89 175.483 138.695 175.709 138.695C175.935 138.695 176.118 138.891 176.118 139.131C176.118 139.371 176.449 139.566 176.859 139.566C177.268 139.566 177.714 139.359 177.854 139.102C177.996 138.848 178.282 138.639 178.494 138.639C178.705 138.639 179.002 138.847 179.157 139.102C179.313 139.358 179.736 139.566 180.103 139.566C180.47 139.566 180.881 139.37 181.022 139.131C181.164 138.89 181.495 138.89 181.762 139.131C182.03 139.371 182.649 139.566 183.142 139.566C183.635 139.566 184.093 139.408 184.163 139.213C184.233 139.017 184.496 138.858 184.751 138.858C185.004 138.858 185.325 139.016 185.466 139.213C185.607 139.408 186.098 139.48 186.564 139.376C187.029 139.27 187.509 138.965 187.636 138.695C187.763 138.425 188.027 138.375 188.224 138.585C188.42 138.797 188.958 139.029 189.424 139.102C189.889 139.178 190.45 139.093 190.675 138.911C190.901 138.731 191.267 138.622 191.491 138.665C191.717 138.712 191.9 138.93 191.9 139.156C191.9 139.383 192.29 139.565 192.769 139.565C193.249 139.565 193.774 139.444 193.944 139.293C194.113 139.142 194.444 139.056 194.684 139.102C194.923 139.146 195.118 139.305 195.118 139.456C195.118 139.606 195.358 139.727 195.654 139.727C195.951 139.727 196.385 139.629 196.625 139.51C196.865 139.389 197.196 139.316 197.365 139.347C197.535 139.376 197.673 139.535 197.673 139.701C197.673 139.867 198.221 140 198.898 140H199C199.678 140 200.226 139.804 200.226 139.565C200.226 139.324 200.421 139.129 200.659 139.129C200.899 139.129 201.094 139.325 201.094 139.565C201.094 139.805 201.574 140 202.166 140C202.758 140 203.444 139.867 203.699 139.701C203.952 139.535 204.33 139.535 204.541 139.701C204.752 139.867 205.462 140 206.125 140C206.788 140 207.44 139.83 207.581 139.62C207.722 139.41 208.031 139.178 208.27 139.102C208.509 139.029 208.795 139.137 208.908 139.347C209.021 139.557 209.65 139.614 210.316 139.478L210.515 139.435C211.179 139.297 211.787 138.952 211.872 138.665C211.956 138.38 212.151 138.124 212.306 138.094C212.461 138.065 212.724 138.224 212.893 138.448C213.062 138.674 213.566 138.747 214.017 138.61C214.468 138.476 214.891 138.024 214.962 137.604C215.032 137.183 215.33 136.757 215.626 136.653C215.922 136.547 216.162 136.706 216.162 137.006C216.162 137.307 216.675 137.343 217.309 137.09C217.947 136.831 218.46 136.382 218.46 136.081C218.46 135.78 218.631 135.462 218.843 135.373C219.055 135.283 219.329 135.319 219.456 135.454C219.583 135.589 219.96 135.493 220.299 135.236C220.638 134.982 220.958 134.578 221.015 134.339C221.071 134.099 221.593 133.604 222.089 133.112C223.113 132.096 224.495 130.1 223.823 127.074C222.8 122.474 222.034 123.807 218.28 123.07Z" fill="#273043"/>
</svg>
