<svg width="29" height="29" viewBox="0 0 29 29" fill="none" xmlns="http://www.w3.org/2000/svg">
<path d="M29 21.7499C29 22.3856 28.8212 22.975 28.5347 23.4935L19.3782 13.2487L28.4354 5.32447C28.7878 5.8836 29 6.54039 29 7.25013V21.7499ZM14.5 15.1089L27.1028 4.08172C26.5857 3.7986 26.0033 3.62498 25.3751 3.62498H3.62498C2.99598 3.62498 2.41342 3.7986 1.89835 4.08172L14.5 15.1089ZM18.0136 14.4418L15.0964 16.9959C14.9258 17.1445 14.7133 17.2187 14.5 17.2187C14.2867 17.2187 14.0742 17.1445 13.9035 16.9959L10.9857 14.4416L1.71336 24.8174C2.26914 25.1661 2.92049 25.375 3.62492 25.375H25.3751C26.0794 25.375 26.731 25.1661 27.2866 24.8174L18.0136 14.4418ZM0.564686 5.32441C0.212415 5.88354 0 6.54033 0 7.25013V21.7499C0 22.3857 0.177989 22.975 0.465531 23.4936L9.62094 13.247L0.564686 5.32441Z" fill="#82878C"/>
</svg>
