<svg width="29" height="29" viewBox="0 0 29 29" fill="none" xmlns="http://www.w3.org/2000/svg">
<path d="M3.7 1C2.20883 1 1 2.20883 1 3.7V25.3C1 26.7912 2.20883 28 3.7 28H13.2743C13.2698 27.9757 13.2675 27.9506 13.2675 27.9249V19.677H10.7103C10.4895 19.677 10.3103 19.4956 10.3103 19.2716V16.0029C10.3103 15.7789 10.4893 15.5973 10.7103 15.5973H13.2675V13.3413C13.2675 10.3688 15.1141 8.44828 17.9714 8.44828L20.5148 8.45241C20.7354 8.45283 20.9141 8.63423 20.9141 8.85782V11.893C20.9141 12.1168 20.7352 12.2984 20.5144 12.2984L18.8011 12.299C17.6199 12.299 17.4038 12.7656 17.4038 13.6848V15.5973H20.3948C20.5009 15.5973 20.603 15.6401 20.6778 15.7162C20.7527 15.7923 20.795 15.8953 20.795 16.0029L20.7937 19.2716C20.7937 19.4956 20.6148 19.677 20.3938 19.677H17.4038V27.9249C17.4038 27.9506 17.4015 27.9757 17.397 28H25.3C26.7912 28 28 26.7912 28 25.3V3.7C28 2.20883 26.7912 1 25.3 1H3.7Z" fill="#82878C"/>
</svg>
