<svg width="128" height="128" viewBox="0 0 128 128" fill="none" xmlns="http://www.w3.org/2000/svg">
<path d="M0 0H128V128H0V0Z" fill="white"/>
<path d="M128 0H0V128H128V0Z" fill="#FEC20A"/>
<path d="M64 104.039C86.113 104.039 104.039 86.113 104.039 64C104.039 55.516 101.4 47.6484 96.8988 41.173C95.6508 44.3603 93.8661 47.7008 90.8766 51.0884C85.796 56.8456 77.4967 62.4738 63.1801 68.3059C49.4304 73.9067 43.5943 79.0074 40.6823 83.289C39.2191 85.4399 38.3887 87.5356 37.7061 89.7093C37.5119 90.3272 37.314 91.0157 37.1056 91.7398C36.9638 92.2323 36.8174 92.7416 36.6642 93.2559C43.82 99.9448 53.4321 104.039 64 104.039Z" fill="#273043"/>
<path d="M31.2207 86.9976C31.9967 84.6337 33.0578 82.0451 34.8909 79.3498C38.8908 73.469 46.145 67.6821 60.5382 61.8195C74.3641 56.1872 81.5517 51.0701 85.6251 46.4542C88.987 42.6444 90.4033 38.9984 91.598 34.9917C84.4158 28.1564 74.6978 23.9609 64 23.9609C41.887 23.9609 23.9609 41.887 23.9609 64C23.9609 72.5588 26.6467 80.4898 31.2207 86.9976Z" fill="#273043"/>
</svg>
