<svg width="562" height="424" viewBox="0 0 562 424" fill="none" xmlns="http://www.w3.org/2000/svg">
    <path d="M168.774 327.312C85.468 323.143 18.0229 345.269 3.53196 392.674C2.73933 395.268 1.76983 397.819 1.0053 400.42C-1.28459 408.212 -0.738531 419.761 14.3501 423.385C36.6371 428.739 75.5385 397.381 108.969 396.616C142.399 395.851 502.804 400.736 533.262 375.497C563.721 350.257 534.748 299.777 496.86 299.013C458.973 298.248 275.752 332.666 168.774 327.312Z" fill="#F9F9F9"/>
    <g clip-path="url(#clip0)">
        <g opacity="0.7">
            <rect x="84" y="31" width="418" height="300" rx="5.80232" fill="#F9F9F9" stroke="#5D616B" stroke-width="0.375171"/>
            <path d="M83.8456 52.2305H500.794" stroke="#5D616B" stroke-width="0.375171"/>
            <path fill-rule="evenodd" clip-rule="evenodd" d="M95.1436 45.2365C96.9264 45.2365 98.3716 43.7913 98.3716 42.0085C98.3716 40.2257 96.9264 38.7805 95.1436 38.7805C93.3608 38.7805 91.9156 40.2257 91.9156 42.0085C91.9156 43.7913 93.3608 45.2365 95.1436 45.2365Z" stroke="#5D616B" stroke-width="0.361587"/>
            <path fill-rule="evenodd" clip-rule="evenodd" d="M114.512 45.2365C116.294 45.2365 117.74 43.7913 117.74 42.0085C117.74 40.2257 116.294 38.7805 114.512 38.7805C112.729 38.7805 111.284 40.2257 111.284 42.0085C111.284 43.7913 112.729 45.2365 114.512 45.2365Z" stroke="#5D616B" stroke-width="0.361587"/>
            <path fill-rule="evenodd" clip-rule="evenodd" d="M134.955 45.2365C136.738 45.2365 138.183 43.7913 138.183 42.0085C138.183 40.2257 136.738 38.7805 134.955 38.7805C133.173 38.7805 131.727 40.2257 131.727 42.0085C131.727 43.7913 133.173 45.2365 134.955 45.2365Z" stroke="#5D616B" stroke-width="0.361587"/>
            <rect opacity="0.4" x="373.906" y="148.871" width="113.727" height="106.314" rx="6.77942" fill="#F9F9F9" stroke="#DCDCDC" stroke-width="1.50654"/>
            <line opacity="0.3" x1="401.235" y1="266.232" x2="459.745" y2="266.232" stroke="#9FA8BB" stroke-width="4.17775" stroke-linecap="round"/>
            <line opacity="0.3" x1="389.769" y1="278.864" x2="471.213" y2="278.864" stroke="#9FA8BB" stroke-width="4.17775" stroke-linecap="round"/>
            <path d="M462.785 197.899C460.405 197.442 456.376 197.438 451.575 196.501L452.235 200.644C452.349 201.351 451.891 202.019 451.218 202.136C451.148 202.148 451.08 202.152 451.012 202.152C450.418 202.152 449.893 201.705 449.793 201.071L449.106 196.766C449.031 196.295 448.612 195.821 448.174 195.698C447.926 195.626 447.677 195.553 447.425 195.478C446.988 195.346 446.695 195.614 446.77 196.083L447.115 198.255C447.229 198.961 446.771 199.629 446.098 199.748C446.028 199.759 445.96 199.766 445.892 199.766C445.299 199.766 444.775 199.319 444.673 198.684L444.103 195.106C444.028 194.634 443.624 194.112 443.202 193.927C442.906 193.8 442.611 193.665 442.313 193.525C441.897 193.33 441.626 193.545 441.702 194.016L441.996 195.865C442.11 196.573 441.654 197.241 440.979 197.358C440.91 197.369 440.843 197.377 440.775 197.377C440.182 197.377 439.657 196.927 439.555 196.294L438.949 192.487C438.876 192.016 438.496 191.439 438.108 191.191C437.739 190.951 437.369 190.702 437 190.443C436.621 190.18 436.379 190.338 436.454 190.809L436.878 193.476C436.992 194.182 436.535 194.85 435.861 194.966C435.791 194.98 435.723 194.986 435.656 194.986C435.062 194.986 434.537 194.537 434.437 193.902L433.384 187.288C433.138 186.992 432.91 186.703 432.731 186.452C431.208 184.333 428.165 180.465 425.652 179.534C423.021 178.561 420.913 180.549 420.459 182.392C420.233 183.319 420.63 184.858 420.913 185.767C421.088 186.33 421.361 186.946 421.785 187.453C422.385 188.172 422.612 188.934 421.916 189.549C420.289 190.999 417.211 193.452 413.723 194.805C406.846 197.472 405.642 193.797 405.642 193.797C405.642 193.797 404.12 188.632 401.684 186.772C400.948 186.209 399.422 186.007 398.536 186.225C398.222 186.305 397.933 186.429 397.657 186.572C398.2 189.899 400.584 197.927 411.007 203.196C424.526 210.036 451.449 211.4 456.494 211.597C456.95 211.616 456.956 211.697 456.507 211.777C453.221 212.358 440.486 214.334 427.819 212.707C412.25 210.701 397.921 206.006 394.17 192.787C394.093 193.076 394.019 193.347 393.948 193.58C393.343 195.577 392.783 196.908 392.666 201.251C392.642 202.206 392.267 203.648 391.946 204.543C391.561 205.611 391.153 207.189 391.099 209.139C391.046 211.081 391.047 212.74 391.062 213.893C391.074 214.848 391.648 216.149 392.433 216.634C392.994 216.983 393.706 217.339 394.522 217.559C395.405 217.799 396.774 218.227 397.644 218.517C398.02 218.643 398.458 218.75 398.945 218.803C399.852 218.901 400.913 218.773 401.312 218.797C401.711 218.82 402.033 219.037 402.033 219.284C402.033 219.53 402.509 219.729 403.098 219.729C403.687 219.729 404.333 219.47 404.542 219.153C404.751 218.835 405.167 218.577 405.471 218.577C405.774 218.577 406.022 218.836 406.022 219.153C406.022 219.471 406.468 219.729 407.019 219.729C407.57 219.729 408.17 219.456 408.358 219.115C408.55 218.779 408.935 218.503 409.22 218.503C409.504 218.503 409.904 218.778 410.113 219.115C410.323 219.454 410.893 219.729 411.387 219.729C411.88 219.729 412.434 219.47 412.624 219.153C412.814 218.835 413.26 218.835 413.62 219.153C413.981 219.471 414.814 219.729 415.477 219.729C416.141 219.729 416.758 219.521 416.853 219.263C416.947 219.003 417.301 218.793 417.644 218.793C417.985 218.793 418.417 219.002 418.607 219.263C418.797 219.521 419.458 219.616 420.084 219.479C420.711 219.338 421.357 218.935 421.528 218.577C421.7 218.22 422.054 218.154 422.32 218.431C422.584 218.712 423.308 219.019 423.936 219.116C424.562 219.216 425.317 219.103 425.62 218.863C425.924 218.625 426.417 218.481 426.719 218.538C427.023 218.6 427.269 218.888 427.269 219.187C427.269 219.487 427.794 219.728 428.438 219.728C429.085 219.728 429.793 219.568 430.021 219.368C430.249 219.169 430.694 219.055 431.017 219.115C431.339 219.174 431.602 219.385 431.602 219.584C431.602 219.783 431.924 219.942 432.323 219.942C432.723 219.942 433.308 219.813 433.63 219.655C433.953 219.495 434.4 219.399 434.627 219.439C434.856 219.478 435.041 219.689 435.041 219.909C435.041 220.127 435.779 220.304 436.691 220.304H436.828C437.741 220.304 438.478 220.045 438.478 219.728C438.478 219.41 438.741 219.152 439.062 219.152C439.384 219.152 439.647 219.411 439.647 219.728C439.647 220.046 440.293 220.304 441.09 220.304C441.888 220.304 442.811 220.127 443.154 219.909C443.495 219.689 444.003 219.689 444.288 219.909C444.572 220.127 445.528 220.304 446.42 220.304C447.313 220.304 448.19 220.078 448.38 219.801C448.57 219.523 448.987 219.216 449.308 219.115C449.63 219.018 450.016 219.161 450.167 219.439C450.319 219.718 451.167 219.794 452.063 219.613L452.331 219.557C453.225 219.373 454.043 218.917 454.157 218.537C454.271 218.16 454.533 217.821 454.742 217.782C454.951 217.743 455.305 217.953 455.533 218.25C455.76 218.549 456.439 218.645 457.045 218.465C457.653 218.287 458.223 217.689 458.318 217.133C458.413 216.576 458.813 216.011 459.212 215.874C459.61 215.734 459.933 215.944 459.933 216.342C459.933 216.74 460.625 216.788 461.477 216.453C462.336 216.111 463.028 215.515 463.028 215.117C463.028 214.719 463.258 214.298 463.543 214.18C463.828 214.061 464.197 214.109 464.369 214.287C464.539 214.466 465.047 214.339 465.503 213.999C465.96 213.663 466.391 213.129 466.467 212.812C466.543 212.494 467.246 211.839 467.913 211.189C469.292 209.844 471.152 207.201 470.247 203.198C468.87 197.11 467.839 198.873 462.785 197.899Z" fill="#798295"/>
            <path d="M425.732 241.646C425.203 241.559 424.697 241.407 424.214 241.191C423.736 240.97 423.331 240.706 423 240.398L423.662 239.439C423.717 239.36 423.791 239.296 423.883 239.245C423.979 239.19 424.081 239.163 424.186 239.163C424.297 239.163 424.409 239.193 424.524 239.252C424.639 239.308 424.763 239.377 424.897 239.459C425.035 239.542 425.184 239.627 425.345 239.715C425.506 239.797 425.69 239.866 425.897 239.922L426.152 237.314C425.821 237.222 425.492 237.114 425.166 236.99C424.839 236.865 424.545 236.698 424.283 236.486C424.021 236.274 423.807 236.005 423.641 235.679C423.48 235.352 423.4 234.943 423.4 234.451C423.4 234.088 423.473 233.733 423.621 233.388C423.768 233.044 423.982 232.733 424.262 232.457C424.547 232.181 424.897 231.956 425.311 231.781C425.725 231.602 426.198 231.498 426.732 231.471L426.808 230.705C426.822 230.576 426.879 230.461 426.98 230.36C427.081 230.254 427.213 230.201 427.373 230.201H428.16L428.022 231.56C428.519 231.652 428.946 231.802 429.305 232.009C429.664 232.211 429.967 232.43 430.216 232.664L429.691 233.43C429.613 233.545 429.533 233.63 429.45 233.685C429.372 233.736 429.278 233.761 429.167 233.761C429.094 233.761 429.011 233.745 428.919 233.713C428.827 233.681 428.726 233.641 428.615 233.595C428.505 233.545 428.385 233.492 428.257 233.437C428.132 233.382 427.999 233.333 427.856 233.292L427.615 235.741C427.836 235.805 428.056 235.877 428.277 235.955C428.498 236.028 428.71 236.116 428.912 236.217C429.119 236.314 429.31 236.426 429.484 236.555C429.664 236.684 429.818 236.836 429.947 237.01C430.08 237.185 430.184 237.387 430.257 237.617C430.331 237.843 430.367 238.1 430.367 238.39C430.367 238.827 430.294 239.239 430.147 239.625C430 240.007 429.783 240.345 429.498 240.639C429.213 240.933 428.864 241.175 428.45 241.363C428.036 241.547 427.562 241.66 427.029 241.701L426.946 242.564C426.932 242.692 426.874 242.807 426.773 242.909C426.672 243.014 426.541 243.067 426.38 243.067H425.594L425.732 241.646ZM428.339 238.707C428.339 238.445 428.254 238.236 428.084 238.08C427.918 237.923 427.698 237.792 427.422 237.686L427.201 239.963C427.96 239.83 428.339 239.411 428.339 238.707ZM425.414 234.244C425.414 234.515 425.499 234.736 425.669 234.906C425.844 235.072 426.072 235.212 426.352 235.327L426.559 233.244C426.348 233.276 426.169 233.324 426.021 233.388C425.879 233.448 425.761 233.522 425.669 233.609C425.582 233.697 425.518 233.795 425.476 233.906C425.435 234.012 425.414 234.124 425.414 234.244ZM433.735 241.646C433.206 241.559 432.7 241.407 432.217 241.191C431.739 240.97 431.334 240.706 431.003 240.398L431.666 239.439C431.721 239.36 431.794 239.296 431.886 239.245C431.983 239.19 432.084 239.163 432.19 239.163C432.3 239.163 432.413 239.193 432.528 239.252C432.643 239.308 432.767 239.377 432.9 239.459C433.038 239.542 433.188 239.627 433.349 239.715C433.51 239.797 433.694 239.866 433.901 239.922L434.156 237.314C433.825 237.222 433.496 237.114 433.169 236.99C432.843 236.865 432.549 236.698 432.286 236.486C432.024 236.274 431.81 236.005 431.645 235.679C431.484 235.352 431.403 234.943 431.403 234.451C431.403 234.088 431.477 233.733 431.624 233.388C431.771 233.044 431.985 232.733 432.266 232.457C432.551 232.181 432.9 231.956 433.314 231.781C433.728 231.602 434.202 231.498 434.735 231.471L434.811 230.705C434.825 230.576 434.883 230.461 434.984 230.36C435.085 230.254 435.216 230.201 435.377 230.201H436.163L436.025 231.56C436.522 231.652 436.95 231.802 437.309 232.009C437.667 232.211 437.971 232.43 438.219 232.664L437.695 233.43C437.617 233.545 437.536 233.63 437.454 233.685C437.375 233.736 437.281 233.761 437.171 233.761C437.097 233.761 437.014 233.745 436.922 233.713C436.83 233.681 436.729 233.641 436.619 233.595C436.508 233.545 436.389 233.492 436.26 233.437C436.136 233.382 436.002 233.333 435.86 233.292L435.618 235.741C435.839 235.805 436.06 235.877 436.281 235.955C436.502 236.028 436.713 236.116 436.915 236.217C437.122 236.314 437.313 236.426 437.488 236.555C437.667 236.684 437.821 236.836 437.95 237.01C438.084 237.185 438.187 237.387 438.261 237.617C438.334 237.843 438.371 238.1 438.371 238.39C438.371 238.827 438.297 239.239 438.15 239.625C438.003 240.007 437.787 240.345 437.502 240.639C437.217 240.933 436.867 241.175 436.453 241.363C436.039 241.547 435.566 241.66 435.032 241.701L434.949 242.564C434.936 242.692 434.878 242.807 434.777 242.909C434.676 243.014 434.545 243.067 434.384 243.067H433.597L433.735 241.646ZM436.343 238.707C436.343 238.445 436.258 238.236 436.088 238.08C435.922 237.923 435.701 237.792 435.425 237.686L435.205 239.963C435.963 239.83 436.343 239.411 436.343 238.707ZM433.418 234.244C433.418 234.515 433.503 234.736 433.673 234.906C433.848 235.072 434.075 235.212 434.356 235.327L434.563 233.244C434.351 233.276 434.172 233.324 434.025 233.388C433.882 233.448 433.765 233.522 433.673 233.609C433.586 233.697 433.521 233.795 433.48 233.906C433.438 234.012 433.418 234.124 433.418 234.244Z" fill="#9FA8BB"/>
            <rect opacity="0.4" x="236.186" y="148.871" width="113.727" height="106.314" rx="6.77942" fill="#F9F9F9" stroke="#DCDCDC" stroke-width="1.50654"/>
            <line opacity="0.3" x1="263.515" y1="266.232" x2="322.025" y2="266.232" stroke="#9FA8BB" stroke-width="4.17775" stroke-linecap="round"/>
            <line opacity="0.3" x1="252.049" y1="278.863" x2="333.493" y2="278.863" stroke="#9FA8BB" stroke-width="4.17775" stroke-linecap="round"/>
            <path d="M325.064 197.899C322.685 197.442 318.656 197.438 313.855 196.501L314.515 200.644C314.628 201.35 314.171 202.019 313.498 202.135C313.428 202.148 313.36 202.152 313.292 202.152C312.697 202.152 312.173 201.705 312.073 201.071L311.386 196.766C311.311 196.295 310.892 195.821 310.453 195.698C310.206 195.626 309.957 195.553 309.705 195.478C309.268 195.346 308.975 195.613 309.05 196.083L309.395 198.255C309.508 198.961 309.051 199.629 308.378 199.748C308.308 199.759 308.24 199.766 308.172 199.766C307.579 199.766 307.054 199.319 306.953 198.684L306.383 195.106C306.308 194.634 305.904 194.112 305.482 193.927C305.186 193.8 304.89 193.665 304.593 193.525C304.177 193.33 303.906 193.544 303.982 194.015L304.276 195.864C304.39 196.572 303.934 197.241 303.259 197.358C303.19 197.369 303.123 197.377 303.054 197.377C302.462 197.377 301.937 196.927 301.835 196.293L301.229 192.487C301.156 192.016 300.776 191.439 300.387 191.191C300.019 190.951 299.649 190.701 299.279 190.443C298.901 190.18 298.659 190.338 298.734 190.809L299.158 193.476C299.271 194.182 298.815 194.85 298.141 194.966C298.071 194.98 298.003 194.986 297.936 194.986C297.342 194.986 296.817 194.537 296.717 193.902L295.664 187.288C295.418 186.992 295.19 186.703 295.011 186.452C293.488 184.332 290.445 180.464 287.932 179.534C285.301 178.561 283.193 180.548 282.739 182.392C282.513 183.319 282.91 184.858 283.193 185.767C283.368 186.33 283.641 186.946 284.065 187.453C284.665 188.172 284.892 188.934 284.196 189.549C282.569 190.999 279.491 193.452 276.003 194.805C269.126 197.471 267.922 193.797 267.922 193.797C267.922 193.797 266.4 188.632 263.963 186.772C263.228 186.208 261.702 186.007 260.816 186.225C260.502 186.305 260.213 186.429 259.937 186.572C260.48 189.898 262.864 197.927 273.286 203.196C286.806 210.035 313.729 211.4 318.774 211.597C319.23 211.616 319.235 211.697 318.787 211.777C315.501 212.357 302.766 214.334 290.099 212.706C274.53 210.701 260.201 206.006 256.45 192.787C256.373 193.076 256.299 193.347 256.228 193.579C255.623 195.577 255.063 196.907 254.946 201.251C254.922 202.205 254.547 203.648 254.226 204.542C253.841 205.61 253.433 207.189 253.379 209.139C253.326 211.081 253.327 212.739 253.342 213.893C253.354 214.848 253.928 216.149 254.713 216.634C255.274 216.983 255.986 217.339 256.802 217.559C257.685 217.799 259.054 218.227 259.924 218.517C260.3 218.643 260.738 218.749 261.225 218.803C262.132 218.901 263.193 218.773 263.592 218.797C263.99 218.82 264.313 219.037 264.313 219.283C264.313 219.53 264.789 219.729 265.378 219.729C265.967 219.729 266.613 219.47 266.822 219.153C267.031 218.835 267.447 218.577 267.751 218.577C268.054 218.577 268.302 218.836 268.302 219.153C268.302 219.471 268.747 219.729 269.299 219.729C269.85 219.729 270.45 219.456 270.638 219.115C270.83 218.779 271.215 218.502 271.5 218.502C271.784 218.502 272.184 218.777 272.393 219.115C272.603 219.454 273.173 219.729 273.667 219.729C274.16 219.729 274.714 219.47 274.904 219.153C275.094 218.835 275.54 218.835 275.9 219.153C276.261 219.471 277.094 219.729 277.757 219.729C278.421 219.729 279.038 219.52 279.133 219.262C279.226 219.003 279.581 218.793 279.924 218.793C280.265 218.793 280.697 219.002 280.887 219.262C281.077 219.52 281.738 219.615 282.364 219.478C282.991 219.338 283.637 218.934 283.808 218.577C283.98 218.219 284.334 218.153 284.6 218.431C284.864 218.712 285.588 219.019 286.216 219.115C286.842 219.216 287.597 219.103 287.9 218.863C288.204 218.625 288.696 218.48 288.999 218.537C289.303 218.599 289.549 218.888 289.549 219.187C289.549 219.487 290.073 219.728 290.718 219.728C291.365 219.728 292.072 219.568 292.301 219.368C292.529 219.169 292.974 219.055 293.297 219.115C293.619 219.174 293.882 219.384 293.882 219.583C293.882 219.782 294.204 219.942 294.603 219.942C295.003 219.942 295.588 219.813 295.91 219.655C296.233 219.495 296.68 219.398 296.907 219.439C297.136 219.478 297.321 219.688 297.321 219.909C297.321 220.127 298.059 220.304 298.97 220.304H299.108C300.021 220.304 300.758 220.044 300.758 219.727C300.758 219.409 301.021 219.151 301.342 219.151C301.664 219.151 301.926 219.411 301.926 219.727C301.926 220.046 302.573 220.304 303.37 220.304C304.168 220.304 305.091 220.127 305.434 219.909C305.775 219.688 306.283 219.688 306.568 219.909C306.852 220.127 307.807 220.304 308.7 220.304C309.592 220.304 310.47 220.078 310.66 219.8C310.85 219.523 311.267 219.216 311.588 219.115C311.91 219.018 312.296 219.161 312.447 219.439C312.599 219.718 313.446 219.793 314.343 219.613L314.611 219.557C315.504 219.373 316.323 218.917 316.437 218.537C316.551 218.16 316.813 217.821 317.022 217.782C317.231 217.742 317.585 217.953 317.813 218.25C318.04 218.549 318.719 218.645 319.325 218.464C319.932 218.286 320.502 217.689 320.598 217.133C320.693 216.576 321.093 216.011 321.492 215.874C321.89 215.733 322.213 215.944 322.213 216.342C322.213 216.74 322.904 216.788 323.757 216.453C324.616 216.11 325.308 215.515 325.308 215.117C325.308 214.719 325.538 214.298 325.823 214.18C326.108 214.061 326.477 214.109 326.649 214.287C326.819 214.466 327.327 214.339 327.783 213.999C328.24 213.663 328.671 213.129 328.747 212.812C328.823 212.494 329.526 211.839 330.193 211.189C331.572 209.844 333.432 207.201 332.527 203.197C331.15 197.109 330.119 198.873 325.064 197.899Z" fill="#798295"/>
            <path d="M288.011 241.646C287.483 241.559 286.977 241.407 286.494 241.191C286.015 240.97 285.611 240.705 285.28 240.397L285.942 239.438C285.997 239.36 286.071 239.296 286.163 239.245C286.259 239.19 286.36 239.162 286.466 239.162C286.577 239.162 286.689 239.192 286.804 239.252C286.919 239.307 287.043 239.376 287.177 239.459C287.315 239.542 287.464 239.627 287.625 239.714C287.786 239.797 287.97 239.866 288.177 239.921L288.432 237.314C288.101 237.222 287.772 237.114 287.446 236.989C287.119 236.865 286.825 236.697 286.563 236.486C286.301 236.274 286.087 236.005 285.921 235.679C285.76 235.352 285.68 234.943 285.68 234.451C285.68 234.087 285.753 233.733 285.9 233.388C286.048 233.043 286.262 232.733 286.542 232.457C286.827 232.181 287.177 231.956 287.591 231.781C288.005 231.601 288.478 231.498 289.012 231.47L289.088 230.705C289.101 230.576 289.159 230.461 289.26 230.36C289.361 230.254 289.492 230.201 289.653 230.201H290.44L290.302 231.56C290.799 231.652 291.226 231.802 291.585 232.008C291.944 232.211 292.247 232.429 292.496 232.664L291.971 233.43C291.893 233.545 291.813 233.63 291.73 233.685C291.652 233.735 291.557 233.761 291.447 233.761C291.373 233.761 291.291 233.745 291.199 233.712C291.107 233.68 291.006 233.641 290.895 233.595C290.785 233.545 290.665 233.492 290.536 233.437C290.412 233.381 290.279 233.333 290.136 233.292L289.895 235.741C290.116 235.805 290.336 235.876 290.557 235.955C290.778 236.028 290.989 236.116 291.192 236.217C291.399 236.313 291.59 236.426 291.764 236.555C291.944 236.683 292.098 236.835 292.227 237.01C292.36 237.185 292.463 237.387 292.537 237.617C292.611 237.842 292.647 238.1 292.647 238.39C292.647 238.827 292.574 239.238 292.427 239.625C292.279 240.006 292.063 240.344 291.778 240.639C291.493 240.933 291.143 241.175 290.73 241.363C290.316 241.547 289.842 241.66 289.308 241.701L289.226 242.563C289.212 242.692 289.154 242.807 289.053 242.908C288.952 243.014 288.821 243.067 288.66 243.067H287.874L288.011 241.646ZM290.619 238.707C290.619 238.445 290.534 238.236 290.364 238.079C290.198 237.923 289.978 237.792 289.702 237.686L289.481 239.963C290.24 239.829 290.619 239.411 290.619 238.707ZM287.694 234.244C287.694 234.515 287.779 234.736 287.949 234.906C288.124 235.072 288.352 235.212 288.632 235.327L288.839 233.243C288.628 233.276 288.448 233.324 288.301 233.388C288.159 233.448 288.041 233.522 287.949 233.609C287.862 233.696 287.798 233.795 287.756 233.906C287.715 234.011 287.694 234.124 287.694 234.244ZM296.015 241.646C295.486 241.559 294.98 241.407 294.497 241.191C294.019 240.97 293.614 240.705 293.283 240.397L293.945 239.438C294.001 239.36 294.074 239.296 294.166 239.245C294.263 239.19 294.364 239.162 294.47 239.162C294.58 239.162 294.693 239.192 294.808 239.252C294.923 239.307 295.047 239.376 295.18 239.459C295.318 239.542 295.468 239.627 295.629 239.714C295.79 239.797 295.974 239.866 296.181 239.921L296.436 237.314C296.105 237.222 295.776 237.114 295.449 236.989C295.123 236.865 294.828 236.697 294.566 236.486C294.304 236.274 294.09 236.005 293.925 235.679C293.764 235.352 293.683 234.943 293.683 234.451C293.683 234.087 293.757 233.733 293.904 233.388C294.051 233.043 294.265 232.733 294.546 232.457C294.831 232.181 295.18 231.956 295.594 231.781C296.008 231.601 296.482 231.498 297.015 231.47L297.091 230.705C297.105 230.576 297.163 230.461 297.264 230.36C297.365 230.254 297.496 230.201 297.657 230.201H298.443L298.305 231.56C298.802 231.652 299.23 231.802 299.589 232.008C299.947 232.211 300.251 232.429 300.499 232.664L299.975 233.43C299.897 233.545 299.816 233.63 299.733 233.685C299.655 233.735 299.561 233.761 299.451 233.761C299.377 233.761 299.294 233.745 299.202 233.712C299.11 233.68 299.009 233.641 298.899 233.595C298.788 233.545 298.669 233.492 298.54 233.437C298.416 233.381 298.282 233.333 298.14 233.292L297.898 235.741C298.119 235.805 298.34 235.876 298.561 235.955C298.781 236.028 298.993 236.116 299.195 236.217C299.402 236.313 299.593 236.426 299.768 236.555C299.947 236.683 300.101 236.835 300.23 237.01C300.364 237.185 300.467 237.387 300.541 237.617C300.614 237.842 300.651 238.1 300.651 238.39C300.651 238.827 300.577 239.238 300.43 239.625C300.283 240.006 300.067 240.344 299.782 240.639C299.497 240.933 299.147 241.175 298.733 241.363C298.319 241.547 297.845 241.66 297.312 241.701L297.229 242.563C297.215 242.692 297.158 242.807 297.057 242.908C296.956 243.014 296.824 243.067 296.664 243.067H295.877L296.015 241.646ZM298.623 238.707C298.623 238.445 298.538 238.236 298.367 238.079C298.202 237.923 297.981 237.792 297.705 237.686L297.484 239.963C298.243 239.829 298.623 239.411 298.623 238.707ZM295.698 234.244C295.698 234.515 295.783 234.736 295.953 234.906C296.128 235.072 296.355 235.212 296.636 235.327L296.843 233.243C296.631 233.276 296.452 233.324 296.305 233.388C296.162 233.448 296.045 233.522 295.953 233.609C295.866 233.696 295.801 233.795 295.76 233.906C295.718 234.011 295.698 234.124 295.698 234.244Z" fill="#9FA8BB"/>
            <rect opacity="0.4" x="101.566" y="149.031" width="114.649" height="107.175" rx="6.83436" fill="#F9F9F9" stroke="#DCDCDC" stroke-width="1.51875"/>
            <path d="M167.742 214.025C155.733 214.025 145.319 212.01 138.794 208.309C136.548 209.398 129.476 212.924 127.605 215.157C127.221 215.615 126.772 216.795 126.743 217.389C126.722 217.852 127.25 219.167 127.25 219.167C143.13 225.879 152.009 223.322 160.886 221.572C170.329 219.717 178.893 213.671 178.893 213.671C178.964 213.592 179.05 213.513 179.126 213.437C175.231 213.823 171.409 214.025 167.742 214.025Z" fill="#798295"/>
            <path d="M167.995 178.108L167.861 178.111C167.75 176.618 165.944 175.43 163.714 175.43C161.412 175.43 159.546 176.694 159.546 178.255C159.546 178.281 159.556 178.303 159.556 178.329C138.453 180.521 139.317 195.291 139.746 203.264C139.822 204.66 139.722 206.034 139.629 206.932C148.235 211.833 164.131 213.633 181.464 211.558C184.674 209.345 189.059 207.222 189.059 207.222C189.059 207.222 189.33 199.031 189.059 196.319C187.63 182.076 175.45 178.794 167.995 178.108Z" fill="#798295"/>
            <path d="M157.845 242.444C157.312 242.356 156.802 242.203 156.315 241.985C155.833 241.762 155.425 241.496 155.091 241.185L155.759 240.218C155.815 240.14 155.889 240.075 155.982 240.024C156.079 239.968 156.181 239.94 156.288 239.94C156.399 239.94 156.512 239.97 156.628 240.031C156.744 240.086 156.869 240.156 157.004 240.239C157.143 240.323 157.294 240.408 157.456 240.497C157.618 240.58 157.804 240.65 158.012 240.705L158.27 238.076C157.936 237.984 157.604 237.875 157.275 237.749C156.946 237.624 156.649 237.455 156.385 237.242C156.121 237.029 155.905 236.757 155.738 236.428C155.576 236.099 155.495 235.686 155.495 235.19C155.495 234.824 155.569 234.467 155.717 234.119C155.866 233.771 156.081 233.459 156.364 233.18C156.652 232.902 157.004 232.675 157.421 232.499C157.838 232.318 158.316 232.214 158.854 232.186L158.93 231.414C158.944 231.284 159.002 231.168 159.104 231.066C159.206 230.959 159.338 230.906 159.501 230.906H160.293L160.154 232.276C160.655 232.369 161.086 232.52 161.448 232.728C161.81 232.932 162.116 233.153 162.366 233.389L161.837 234.161C161.759 234.277 161.677 234.363 161.594 234.418C161.515 234.469 161.42 234.495 161.309 234.495C161.235 234.495 161.151 234.479 161.058 234.446C160.966 234.414 160.864 234.374 160.752 234.328C160.641 234.277 160.521 234.224 160.391 234.168C160.266 234.112 160.131 234.064 159.987 234.022L159.744 236.491C159.967 236.556 160.189 236.627 160.412 236.706C160.634 236.78 160.848 236.869 161.052 236.971C161.26 237.068 161.453 237.182 161.629 237.311C161.81 237.441 161.965 237.594 162.095 237.77C162.229 237.947 162.333 238.151 162.408 238.382C162.482 238.61 162.519 238.869 162.519 239.161C162.519 239.602 162.445 240.017 162.296 240.406C162.148 240.791 161.93 241.132 161.643 241.428C161.355 241.725 161.003 241.969 160.586 242.159C160.168 242.344 159.691 242.458 159.153 242.499L159.069 243.369C159.056 243.499 158.998 243.615 158.896 243.717C158.794 243.823 158.661 243.876 158.499 243.876H157.706L157.845 242.444ZM160.474 239.481C160.474 239.217 160.389 239.006 160.217 238.848C160.05 238.691 159.828 238.559 159.549 238.452L159.327 240.747C160.092 240.612 160.474 240.191 160.474 239.481ZM157.526 234.982C157.526 235.255 157.611 235.478 157.783 235.649C157.959 235.816 158.189 235.958 158.471 236.073L158.68 233.973C158.467 234.006 158.286 234.054 158.138 234.119C157.994 234.179 157.876 234.254 157.783 234.342C157.695 234.43 157.63 234.53 157.588 234.641C157.546 234.747 157.526 234.861 157.526 234.982Z" fill="#9FA8BB"/>
            <line opacity="0.3" x1="123.871" y1="267.342" x2="193.907" y2="267.342" stroke="#9FA8BB" stroke-width="4.21161" stroke-linecap="round"/>
            <line opacity="0.3" x1="132.373" y1="280.076" x2="185.407" y2="280.076" stroke="#9FA8BB" stroke-width="4.21161" stroke-linecap="round"/>
            <rect opacity="0.4" x="97.5266" y="64.2816" width="390.104" height="63.8774" rx="6.77942" fill="#F9F9F9" stroke="#DCDCDC" stroke-width="1.50654"/>
            <path d="M168.518 90.1771C167.989 90.0897 167.483 89.9379 167 89.7218C166.522 89.501 166.117 89.2366 165.786 88.9284L166.448 87.9695C166.504 87.8913 166.577 87.8269 166.669 87.7763C166.766 87.7211 166.867 87.6935 166.973 87.6935C167.083 87.6935 167.196 87.7234 167.311 87.7832C167.426 87.8384 167.55 87.9074 167.683 87.9902C167.821 88.073 167.971 88.1581 168.132 88.2454C168.293 88.3282 168.477 88.3972 168.683 88.4524L168.939 85.8447C168.608 85.7527 168.279 85.6446 167.952 85.5205C167.626 85.3963 167.331 85.2284 167.069 85.0169C166.807 84.8053 166.593 84.5363 166.428 84.2097C166.267 83.8832 166.186 83.4739 166.186 82.9817C166.186 82.6184 166.26 82.2643 166.407 81.9194C166.554 81.5744 166.768 81.264 167.049 80.988C167.334 80.7121 167.683 80.4867 168.097 80.312C168.511 80.1326 168.985 80.0291 169.518 80.0015L169.594 79.2358C169.608 79.107 169.665 78.992 169.767 78.8908C169.868 78.7851 169.999 78.7322 170.16 78.7322H170.946L170.808 80.0912C171.305 80.1832 171.733 80.3327 172.091 80.5396C172.45 80.742 172.754 80.9604 173.002 81.195L172.478 81.9607C172.4 82.0757 172.319 82.1608 172.236 82.216C172.158 82.2666 172.064 82.2919 171.953 82.2919C171.88 82.2919 171.797 82.2758 171.705 82.2436C171.613 82.2114 171.512 82.1723 171.402 82.1263C171.291 82.0757 171.172 82.0228 171.043 81.9676C170.919 81.9125 170.785 81.8642 170.643 81.8228L170.401 84.2718C170.622 84.3362 170.843 84.4075 171.064 84.4857C171.284 84.5592 171.496 84.6466 171.698 84.7478C171.905 84.8444 172.096 84.9571 172.271 85.0858C172.45 85.2146 172.604 85.3664 172.733 85.5412C172.866 85.7159 172.97 85.9183 173.043 86.1482C173.117 86.3736 173.154 86.6312 173.154 86.9209C173.154 87.3578 173.08 87.7694 172.933 88.1558C172.786 88.5375 172.57 88.8755 172.285 89.1699C171.999 89.4642 171.65 89.7057 171.236 89.8942C170.822 90.0782 170.348 90.1909 169.815 90.2323L169.732 91.0946C169.718 91.2234 169.661 91.3383 169.56 91.4395C169.458 91.5453 169.327 91.5982 169.166 91.5982H168.38L168.518 90.1771ZM171.126 87.2382C171.126 86.9761 171.041 86.7668 170.87 86.6105C170.705 86.4541 170.484 86.323 170.208 86.2172L169.987 88.4938C170.746 88.3604 171.126 87.9419 171.126 87.2382ZM168.201 82.7748C168.201 83.0461 168.286 83.2669 168.456 83.4371C168.631 83.6026 168.858 83.7429 169.139 83.8579L169.346 81.7745C169.134 81.8067 168.955 81.855 168.808 81.9194C168.665 81.9791 168.548 82.0527 168.456 82.1401C168.368 82.2275 168.304 82.3264 168.263 82.4368C168.221 82.5425 168.201 82.6552 168.201 82.7748ZM176.521 90.1771C175.993 90.0897 175.487 89.9379 175.004 89.7218C174.525 89.501 174.121 89.2366 173.79 88.9284L174.452 87.9695C174.507 87.8913 174.581 87.8269 174.673 87.7763C174.769 87.7211 174.87 87.6935 174.976 87.6935C175.087 87.6935 175.199 87.7234 175.314 87.7832C175.429 87.8384 175.553 87.9074 175.687 87.9902C175.825 88.073 175.974 88.1581 176.135 88.2454C176.296 88.3282 176.48 88.3972 176.687 88.4524L176.942 85.8447C176.611 85.7527 176.282 85.6446 175.956 85.5205C175.629 85.3963 175.335 85.2284 175.073 85.0169C174.811 84.8053 174.597 84.5363 174.431 84.2097C174.27 83.8832 174.19 83.4739 174.19 82.9817C174.19 82.6184 174.263 82.2643 174.41 81.9194C174.558 81.5744 174.772 81.264 175.052 80.988C175.337 80.7121 175.687 80.4867 176.101 80.312C176.515 80.1326 176.988 80.0291 177.522 80.0015L177.598 79.2358C177.611 79.107 177.669 78.992 177.77 78.8908C177.871 78.7851 178.002 78.7322 178.163 78.7322H178.95L178.812 80.0912C179.309 80.1832 179.736 80.3327 180.095 80.5396C180.454 80.742 180.757 80.9604 181.006 81.195L180.481 81.9607C180.403 82.0757 180.323 82.1608 180.24 82.216C180.162 82.2666 180.067 82.2919 179.957 82.2919C179.883 82.2919 179.801 82.2758 179.709 82.2436C179.617 82.2114 179.516 82.1723 179.405 82.1263C179.295 82.0757 179.175 82.0228 179.046 81.9676C178.922 81.9125 178.789 81.8642 178.646 81.8228L178.405 84.2718C178.626 84.3362 178.846 84.4075 179.067 84.4857C179.288 84.5592 179.499 84.6466 179.702 84.7478C179.909 84.8444 180.1 84.9571 180.274 85.0858C180.454 85.2146 180.608 85.3664 180.737 85.5412C180.87 85.7159 180.973 85.9183 181.047 86.1482C181.121 86.3736 181.157 86.6312 181.157 86.9209C181.157 87.3578 181.084 87.7694 180.937 88.1558C180.789 88.5375 180.573 88.8755 180.288 89.1699C180.003 89.4642 179.653 89.7057 179.24 89.8942C178.826 90.0782 178.352 90.1909 177.818 90.2323L177.736 91.0946C177.722 91.2234 177.664 91.3383 177.563 91.4395C177.462 91.5453 177.331 91.5982 177.17 91.5982H176.384L176.521 90.1771ZM179.129 87.2382C179.129 86.9761 179.044 86.7668 178.874 86.6105C178.708 86.4541 178.488 86.323 178.212 86.2172L177.991 88.4938C178.75 88.3604 179.129 87.9419 179.129 87.2382ZM176.204 82.7748C176.204 83.0461 176.289 83.2669 176.459 83.4371C176.634 83.6026 176.862 83.7429 177.142 83.8579L177.349 81.7745C177.138 81.8067 176.958 81.855 176.811 81.9194C176.669 81.9791 176.551 82.0527 176.459 82.1401C176.372 82.2275 176.308 82.3264 176.266 82.4368C176.225 82.5425 176.204 82.6552 176.204 82.7748Z" fill="#9FA8BB"/>
            <line opacity="0.3" x1="167.66" y1="97.9538" x2="252.612" y2="97.9538" stroke="#9FA8BB" stroke-width="3.88096" stroke-linecap="round"/>
            <line opacity="0.3" x1="167.66" y1="109.791" x2="285.111" y2="109.791" stroke="#9FA8BB" stroke-width="3.88096" stroke-linecap="round"/>
            <path d="M133.046 82.7149C134.584 82.7149 135.912 81.6951 136.389 80.1948C135.479 80.4555 134.318 80.6128 133.046 80.6128C131.773 80.6128 130.613 80.4555 129.702 80.1948C130.179 81.6949 131.508 82.7149 133.046 82.7149Z" fill="#798295"/>
            <path d="M150.754 84.56C150.681 84.3469 150.529 84.1716 150.331 84.0761L143.562 80.8262C142.122 80.3189 140.655 79.9182 139.174 79.6254C139.122 79.6147 139.07 79.6096 139.019 79.6096C138.652 79.6096 138.324 79.8729 138.242 80.259C137.701 82.7354 135.593 84.5895 133.046 84.5895C130.498 84.5895 128.39 82.7355 127.849 80.259C127.767 79.8729 127.439 79.6096 127.073 79.6096C127.021 79.6096 126.97 79.6147 126.917 79.6254C125.436 79.9182 123.969 80.3189 122.527 80.8262L115.76 84.076C115.561 84.1714 115.408 84.3467 115.339 84.5599C115.267 84.7756 115.28 85.0083 115.381 85.2117L118.32 91.2432C118.457 91.5294 118.737 91.7012 119.033 91.7012C119.11 91.7012 119.187 91.6897 119.263 91.6659L122.527 90.6598V110.897C122.527 111.357 122.888 111.732 123.331 111.732H142.761C143.202 111.732 143.562 111.357 143.562 110.897V90.6601L146.828 91.6661C146.905 91.69 146.982 91.7015 147.058 91.7015C147.354 91.7015 147.632 91.5297 147.772 91.2434L150.712 85.212C150.811 85.0085 150.825 84.7757 150.754 84.56Z" fill="#798295"/>
        </g>
        <g filter="url(#filter0_bd)">
            <path d="M561.895 27.733C561.891 25.97 560.525 24.5096 558.767 24.3874L301.842 6.53872C299.895 6.40342 298.242 7.95007 298.248 9.90225L298.964 242.487C298.97 244.424 300.608 245.956 302.542 245.831L559.199 229.277C560.971 229.163 562.348 227.691 562.344 225.915L561.895 27.733Z" fill="white" fill-opacity="0.68"/>
            <path d="M560.235 27.7368C560.232 26.8446 559.541 26.1056 558.651 26.0438L301.727 8.19504C300.742 8.12657 299.906 8.90923 299.909 9.89715L300.625 242.482C300.628 243.462 301.457 244.237 302.435 244.174L559.092 227.62C559.989 227.562 560.686 226.817 560.684 225.919L560.235 27.7368Z" stroke="#2588E8" stroke-width="3.32062"/>
        </g>
        <g filter="url(#filter1_bd)">
            <rect x="336.551" y="157.836" width="188.927" height="31.8816" rx="5.29075" transform="rotate(-2.02393 336.551 157.836)" fill="white" fill-opacity="0.68"/>
            <rect x="337.099" y="158.346" width="187.868" height="30.8234" rx="4.76167" transform="rotate(-2.02393 337.099 158.346)" stroke="#4B9DEC" stroke-width="1.05815"/>
        </g>
        <path opacity="0.8" d="M352.868 175.882L352.911 177.145L347.645 177.325L347.412 170.524L352.553 170.348L352.596 171.611L349.02 171.733L349.07 173.21L352.228 173.102L352.27 174.327L349.112 174.435L349.166 176.009L352.868 175.882ZM357.053 171.692C357.701 171.67 358.229 171.847 358.637 172.222C359.052 172.597 359.273 173.167 359.299 173.931L359.401 176.924L357.885 176.976L357.791 174.216C357.777 173.801 357.676 173.497 357.487 173.302C357.299 173.101 357.033 173.006 356.69 173.018C356.308 173.031 356.007 173.161 355.789 173.409C355.57 173.65 355.468 174.003 355.484 174.47L355.573 177.055L354.057 177.106L353.878 171.879L355.326 171.829L355.347 172.441C355.54 172.214 355.784 172.037 356.078 171.911C356.372 171.777 356.697 171.705 357.053 171.692ZM364.138 176.509C363.993 176.624 363.811 176.715 363.593 176.781C363.381 176.84 363.155 176.873 362.915 176.882C362.294 176.903 361.806 176.761 361.451 176.455C361.104 176.149 360.919 175.688 360.898 175.073L360.825 172.925L360.018 172.953L359.979 171.787L360.785 171.759L360.742 170.487L362.257 170.435L362.301 171.708L363.603 171.663L363.643 172.829L362.341 172.874L362.413 175.002C362.421 175.222 362.482 175.392 362.596 175.511C362.717 175.624 362.881 175.676 363.088 175.669C363.328 175.661 363.53 175.589 363.694 175.454L364.138 176.509ZM369.869 173.969C369.869 173.988 369.864 174.125 369.853 174.378L365.899 174.513C365.981 174.834 366.158 175.085 366.43 175.263C366.702 175.442 367.036 175.525 367.431 175.511C367.703 175.502 367.941 175.455 368.146 175.37C368.357 175.279 368.55 175.142 368.725 174.961L369.562 175.808C369.089 176.389 368.379 176.695 367.433 176.727C366.844 176.747 366.319 176.652 365.857 176.441C365.396 176.223 365.035 175.914 364.775 175.514C364.515 175.115 364.376 174.656 364.358 174.138C364.341 173.626 364.445 173.162 364.671 172.745C364.903 172.322 365.225 171.99 365.639 171.749C366.058 171.502 366.531 171.369 367.055 171.351C367.567 171.333 368.034 171.428 368.456 171.634C368.878 171.84 369.213 172.146 369.46 172.553C369.714 172.953 369.85 173.425 369.869 173.969ZM367.104 172.497C366.761 172.509 366.476 172.616 366.249 172.818C366.023 173.02 365.889 173.291 365.849 173.629L368.424 173.541C368.361 173.213 368.209 172.955 367.969 172.769C367.729 172.576 367.441 172.485 367.104 172.497ZM372.259 171.941C372.432 171.683 372.668 171.483 372.968 171.343C373.275 171.203 373.629 171.126 374.031 171.112L374.078 172.512C373.909 172.504 373.796 172.502 373.738 172.504C373.304 172.519 372.968 172.653 372.73 172.908C372.492 173.156 372.381 173.523 372.398 174.009L372.482 176.477L370.966 176.529L370.788 171.301L372.236 171.252L372.259 171.941ZM382.913 170.887L380.741 176.516C380.522 177.126 380.239 177.561 379.891 177.819C379.55 178.077 379.129 178.215 378.631 178.232C378.359 178.241 378.088 178.208 377.82 178.133C377.551 178.058 377.33 177.949 377.157 177.806L377.674 176.708C377.794 176.808 377.93 176.884 378.081 176.937C378.238 176.99 378.391 177.014 378.54 177.009C378.747 177.002 378.914 176.945 379.04 176.837C379.166 176.735 379.277 176.566 379.373 176.329L379.391 176.28L376.947 171.091L378.511 171.037L380.1 174.534L381.455 170.937L382.913 170.887ZM386.058 176.091C385.507 176.11 385.008 176.013 384.56 175.802C384.118 175.583 383.767 175.274 383.507 174.875C383.246 174.475 383.108 174.016 383.09 173.498C383.072 172.979 383.179 172.512 383.412 172.096C383.644 171.679 383.973 171.35 384.399 171.108C384.832 170.86 385.323 170.727 385.874 170.708C386.425 170.689 386.921 170.789 387.363 171.007C387.805 171.219 388.156 171.525 388.416 171.925C388.676 172.324 388.815 172.783 388.832 173.302C388.85 173.82 388.743 174.287 388.511 174.704C388.278 175.12 387.949 175.452 387.523 175.7C387.097 175.942 386.609 176.072 386.058 176.091ZM386.015 174.847C386.404 174.834 386.717 174.694 386.954 174.426C387.198 174.152 387.312 173.794 387.297 173.354C387.282 172.913 387.144 172.568 386.882 172.317C386.627 172.06 386.305 171.938 385.917 171.952C385.528 171.965 385.212 172.109 384.968 172.383C384.724 172.651 384.61 173.005 384.625 173.445C384.64 173.886 384.778 174.234 385.04 174.491C385.302 174.742 385.627 174.861 386.015 174.847ZM395.023 170.473L395.201 175.701L393.763 175.75L393.742 175.128C393.549 175.362 393.315 175.545 393.041 175.677C392.766 175.803 392.467 175.872 392.143 175.883C391.457 175.907 390.906 175.728 390.491 175.346C390.075 174.965 389.855 174.385 389.828 173.608L389.727 170.654L391.243 170.602L391.336 173.333C391.365 174.175 391.732 174.584 392.439 174.56C392.801 174.547 393.089 174.421 393.301 174.18C393.513 173.933 393.611 173.576 393.595 173.11L393.507 170.525L395.023 170.473ZM397.899 171.066C398.071 170.807 398.308 170.607 398.608 170.467C398.914 170.327 399.268 170.25 399.67 170.237L399.718 171.636C399.549 171.629 399.435 171.626 399.377 171.628C398.943 171.643 398.607 171.778 398.369 172.032C398.131 172.28 398.021 172.647 398.037 173.133L398.122 175.601L396.606 175.653L396.427 170.425L397.875 170.376L397.899 171.066ZM408.574 172.647C408.575 172.666 408.57 172.802 408.559 173.056L404.604 173.191C404.687 173.512 404.864 173.762 405.136 173.941C405.408 174.12 405.741 174.203 406.137 174.189C406.409 174.18 406.647 174.133 406.852 174.048C407.063 173.956 407.256 173.82 407.431 173.639L408.267 174.486C407.794 175.066 407.085 175.373 406.139 175.405C405.55 175.425 405.024 175.33 404.563 175.118C404.102 174.901 403.741 174.592 403.481 174.192C403.221 173.793 403.082 173.334 403.064 172.815C403.047 172.304 403.151 171.84 403.377 171.423C403.609 171 403.931 170.668 404.345 170.427C404.764 170.179 405.236 170.046 405.761 170.029C406.273 170.011 406.74 170.105 407.162 170.311C407.584 170.518 407.919 170.824 408.166 171.23C408.42 171.63 408.556 172.102 408.574 172.647ZM405.81 171.175C405.467 171.187 405.182 171.294 404.955 171.496C404.729 171.698 404.595 171.969 404.555 172.307L407.13 172.219C407.067 171.891 406.915 171.633 406.675 171.447C406.435 171.254 406.147 171.163 405.81 171.175ZM416.186 169.672C416.84 169.65 417.365 169.827 417.76 170.202C418.162 170.571 418.376 171.141 418.402 171.912L418.505 174.905L416.989 174.957L416.895 172.197C416.88 171.782 416.782 171.478 416.601 171.283C416.425 171.081 416.179 170.986 415.861 170.997C415.505 171.009 415.227 171.135 415.028 171.375C414.828 171.609 414.736 171.953 414.752 172.406L414.841 175.03L413.326 175.082L413.231 172.322C413.203 171.499 412.859 171.099 412.198 171.122C411.848 171.134 411.574 171.26 411.374 171.5C411.175 171.734 411.083 172.078 411.098 172.531L411.188 175.155L409.672 175.206L409.494 169.979L410.941 169.929L410.962 170.532C411.149 170.305 411.379 170.128 411.654 170.002C411.935 169.876 412.244 169.807 412.581 169.796C412.95 169.783 413.286 169.846 413.589 169.985C413.892 170.117 414.139 170.32 414.33 170.592C414.534 170.313 414.796 170.093 415.115 169.933C415.44 169.772 415.797 169.686 416.186 169.672ZM421.791 169.481C422.6 169.453 423.229 169.626 423.676 170C424.123 170.368 424.36 170.94 424.387 171.717L424.489 174.7L423.07 174.749L423.048 174.098C422.779 174.593 422.256 174.854 421.479 174.881C421.077 174.895 420.725 174.839 420.423 174.713C420.126 174.587 419.897 174.406 419.733 174.172C419.569 173.938 419.482 173.668 419.472 173.364C419.455 172.878 419.624 172.49 419.977 172.199C420.337 171.908 420.899 171.749 421.663 171.723L422.868 171.682C422.857 171.351 422.748 171.102 422.541 170.934C422.334 170.759 422.029 170.679 421.628 170.693C421.349 170.702 421.075 170.757 420.806 170.857C420.544 170.95 420.321 171.075 420.138 171.23L419.558 170.19C419.836 169.979 420.171 169.812 420.562 169.688C420.96 169.564 421.37 169.495 421.791 169.481ZM421.823 173.848C422.082 173.839 422.31 173.773 422.507 173.649C422.704 173.519 422.84 173.336 422.916 173.1L422.898 172.566L421.858 172.601C421.236 172.623 420.933 172.837 420.946 173.245C420.953 173.44 421.033 173.593 421.186 173.704C421.345 173.809 421.558 173.857 421.823 173.848ZM425.682 169.426L427.198 169.374L427.376 174.602L425.86 174.653L425.682 169.426ZM426.415 168.671C426.136 168.681 425.907 168.608 425.726 168.452C425.546 168.296 425.452 168.098 425.443 167.858C425.435 167.618 425.516 167.415 425.685 167.247C425.855 167.079 426.079 166.99 426.357 166.98C426.636 166.971 426.865 167.041 427.045 167.19C427.225 167.34 427.32 167.531 427.328 167.765C427.336 168.017 427.256 168.231 427.087 168.405C426.917 168.573 426.693 168.662 426.415 168.671ZM428.537 167.344L430.053 167.292L430.299 174.502L428.783 174.554L428.537 167.344ZM436.191 176.142L434.999 176.182L434.597 164.427L435.789 164.386L436.191 176.142Z" fill="#2588E8"/>
        <g filter="url(#filter2_d)">
            <path d="M428.067 40.0752C429.818 38.0877 432.886 37.9989 434.749 39.882L438.692 43.8676C439.799 44.9872 441.405 45.458 442.941 45.1139L448.412 43.8887C450.997 43.3098 453.531 45.0414 453.931 47.6597L454.778 53.2016C455.016 54.7583 456.039 56.083 457.484 56.7078L462.63 58.9322C465.061 59.9832 466.094 62.8736 464.879 65.2271L462.306 70.2085C461.584 71.6077 461.632 73.2803 462.434 74.6355L465.29 79.4598C466.639 81.7392 465.776 84.6845 463.409 85.8742L458.4 88.3923C456.993 89.0996 456.049 90.4812 455.902 92.049L455.377 97.6306C455.128 100.268 452.698 102.143 450.085 101.714L444.552 100.807C442.998 100.553 441.422 101.115 440.381 102.297L436.676 106.504C434.925 108.491 431.857 108.58 429.994 106.697L426.051 102.712C424.944 101.592 423.338 101.121 421.801 101.465L416.331 102.69C413.746 103.269 411.212 101.538 410.812 98.9194L409.965 93.3775C409.727 91.8208 408.704 90.4961 407.259 89.8713L402.113 87.6469C399.682 86.5959 398.649 83.7055 399.864 81.352L402.437 76.3706C403.159 74.9714 403.111 73.2988 402.308 71.9437L399.453 67.1193C398.103 64.84 398.967 61.8947 401.334 60.705L406.343 58.1869C407.75 57.4795 408.694 56.098 408.841 54.5301L409.366 48.9485C409.615 46.3115 412.045 44.4363 414.658 44.8648L420.191 45.7718C421.745 46.0266 423.321 45.4637 424.362 44.282L428.067 40.0752Z" fill="#F7D245"/>
            <path d="M428.067 40.0752C429.818 38.0877 432.886 37.9989 434.749 39.882L438.692 43.8676C439.799 44.9872 441.405 45.458 442.941 45.1139L448.412 43.8887C450.997 43.3098 453.531 45.0414 453.931 47.6597L454.778 53.2016C455.016 54.7583 456.039 56.083 457.484 56.7078L462.63 58.9322C465.061 59.9832 466.094 62.8736 464.879 65.2271L462.306 70.2085C461.584 71.6077 461.632 73.2803 462.434 74.6355L465.29 79.4598C466.639 81.7392 465.776 84.6845 463.409 85.8742L458.4 88.3923C456.993 89.0996 456.049 90.4812 455.902 92.049L455.377 97.6306C455.128 100.268 452.698 102.143 450.085 101.714L444.552 100.807C442.998 100.553 441.422 101.115 440.381 102.297L436.676 106.504C434.925 108.491 431.857 108.58 429.994 106.697L426.051 102.712C424.944 101.592 423.338 101.121 421.801 101.465L416.331 102.69C413.746 103.269 411.212 101.538 410.812 98.9194L409.965 93.3775C409.727 91.8208 408.704 90.4961 407.259 89.8713L402.113 87.6469C399.682 86.5959 398.649 83.7055 399.864 81.352L402.437 76.3706C403.159 74.9714 403.111 73.2988 402.308 71.9437L399.453 67.1193C398.103 64.84 398.967 61.8947 401.334 60.705L406.343 58.1869C407.75 57.4795 408.694 56.098 408.841 54.5301L409.366 48.9485C409.615 46.3115 412.045 44.4363 414.658 44.8648L420.191 45.7718C421.745 46.0266 423.321 45.4637 424.362 44.282L428.067 40.0752Z" fill="#2588E8"/>
        </g>
        <g filter="url(#filter3_d)">
            <path d="M427.362 91.2564C425.559 90.9585 423.835 90.4412 422.189 89.7044C421.883 89.5634 421.587 89.4172 421.299 89.2658C419.28 88.2037 419.011 85.6084 420.308 83.7315C420.496 83.4649 420.746 83.2455 421.06 83.073C421.389 82.8849 421.734 82.7908 422.095 82.7908C422.471 82.7908 422.855 82.8927 423.247 83.0965C423.639 83.2847 424.062 83.5198 424.517 83.802C424.987 84.0842 425.497 84.3742 426.045 84.6721C426.594 84.9542 427.221 85.1894 427.927 85.3775L428.797 76.4887C427.668 76.1752 426.547 75.8068 425.434 75.3835C424.321 74.9602 423.317 74.388 422.424 73.6669C421.53 72.9457 420.801 72.0286 420.237 70.9156C419.688 69.8025 419.414 68.4073 419.414 66.7298C419.414 65.4914 419.665 64.2842 420.166 63.1085C420.668 61.9327 421.397 60.8745 422.353 59.9339C423.325 58.9933 424.517 58.2251 425.928 57.6294C427.339 57.018 428.953 56.6653 430.772 56.5712L431.031 53.961C431.078 53.5221 431.274 53.1301 431.618 52.7852C431.963 52.4247 432.41 52.2444 432.959 52.2444C434.393 52.2444 435.514 53.4842 435.369 54.9114L435.169 56.8769C436.862 57.1904 438.32 57.6999 439.543 58.4054C439.741 58.5169 439.934 58.6299 440.121 58.7443C441.677 59.6917 441.889 61.7465 440.86 63.2496C440.593 63.6415 440.319 63.9315 440.037 64.1196C439.77 64.2921 439.449 64.3783 439.073 64.3783C438.822 64.3783 438.54 64.3234 438.226 64.2137C437.913 64.104 437.568 63.9707 437.192 63.8139C436.815 63.6415 436.408 63.4612 435.969 63.2731C435.545 63.085 435.091 62.9204 434.605 62.7793L433.782 71.1272C434.534 71.3467 435.287 71.5897 436.039 71.8562C436.792 72.107 437.513 72.4049 438.203 72.7498C438.908 73.079 439.559 73.4631 440.154 73.902C440.766 74.341 441.291 74.8583 441.73 75.454C442.185 76.0498 442.537 76.7396 442.788 77.5234C443.039 78.2916 443.164 79.1695 443.164 80.1571C443.164 81.6464 442.914 83.0495 442.412 84.3664C441.91 85.6675 441.173 86.8198 440.202 87.8231C439.23 88.8264 438.038 89.6495 436.627 90.2922C435.216 90.9193 433.602 91.3034 431.783 91.4445L431.501 94.3839C431.454 94.8229 431.258 95.2148 430.913 95.5597C430.568 95.9202 430.121 96.1005 429.573 96.1005C428.136 96.1005 427.012 94.8623 427.151 93.4323L427.362 91.2564ZM436.251 81.2388C436.251 80.3452 435.961 79.6319 435.381 79.0989C434.817 78.5659 434.064 78.1191 433.123 77.7585L432.371 85.5186C434.958 85.064 436.251 83.6374 436.251 81.2388ZM426.28 66.0244C426.28 66.9493 426.57 67.7018 427.15 68.2819C427.746 68.8462 428.522 69.3244 429.479 69.7163L430.184 62.6147C429.463 62.7244 428.851 62.889 428.35 63.1085C427.864 63.3123 427.464 63.5631 427.15 63.861C426.853 64.1588 426.633 64.4959 426.492 64.8721C426.351 65.2327 426.28 65.6168 426.28 66.0244Z" fill="white"/>
        </g>
        <line opacity="0.8" x1="367.306" y1="141.213" x2="501.516" y2="140.215" stroke="#2588E8" stroke-width="4.31885" stroke-linecap="round"/>
        <line opacity="0.8" x1="409.195" y1="124.028" x2="461.336" y2="123.119" stroke="#2588E8" stroke-width="4.31885" stroke-linecap="round"/>
        <g filter="url(#filter4_d)">
            <rect x="396.757" y="196.579" width="77.4275" height="23.8458" rx="2.96358" transform="rotate(-3.02061 396.757 196.579)" fill="#2588E8"/>
        </g>
        <path d="M419.351 210.461C418.827 210.489 418.315 210.446 417.816 210.333C417.322 210.214 416.921 210.048 416.612 209.836L417.072 208.654C417.367 208.847 417.713 208.996 418.112 209.102C418.51 209.208 418.904 209.25 419.296 209.229C419.731 209.206 420.05 209.126 420.252 208.989C420.453 208.845 420.548 208.666 420.537 208.452C420.529 208.294 420.459 208.168 420.327 208.073C420.201 207.972 420.039 207.896 419.84 207.843C419.647 207.79 419.385 207.734 419.052 207.675C418.541 207.582 418.121 207.484 417.793 207.381C417.464 207.278 417.177 207.1 416.929 206.847C416.688 206.594 416.555 206.246 416.532 205.805C416.512 205.419 416.598 205.067 416.79 204.746C416.981 204.42 417.281 204.154 417.688 203.949C418.101 203.743 418.611 203.625 419.217 203.593C419.64 203.57 420.056 203.599 420.465 203.679C420.875 203.758 421.236 203.885 421.549 204.058L421.137 205.248C420.506 204.933 419.885 204.792 419.272 204.824C418.843 204.847 418.528 204.933 418.327 205.083C418.132 205.233 418.041 205.421 418.053 205.648C418.065 205.876 418.191 206.04 418.43 206.141C418.676 206.236 419.044 206.324 419.536 206.406C420.048 206.499 420.467 206.597 420.796 206.7C421.124 206.803 421.409 206.978 421.65 207.225C421.897 207.471 422.032 207.816 422.056 208.258C422.076 208.636 421.987 208.989 421.789 209.316C421.597 209.637 421.294 209.9 420.881 210.105C420.467 210.31 419.957 210.429 419.351 210.461ZM426.158 210.102C425.211 210.152 424.458 209.929 423.9 209.433C423.348 208.936 423.047 208.202 422.996 207.23L422.8 203.518L424.334 203.437L424.527 207.092C424.589 208.279 425.113 208.847 426.098 208.795C426.578 208.769 426.937 208.608 427.174 208.31C427.411 208.007 427.514 207.549 427.482 206.936L427.289 203.281L428.804 203.201L429 206.913C429.051 207.885 428.825 208.647 428.323 209.199C427.826 209.751 427.105 210.052 426.158 210.102ZM435.356 206.046C435.741 206.146 436.048 206.332 436.278 206.605C436.507 206.871 436.633 207.21 436.654 207.62C436.685 208.201 436.481 208.661 436.043 209.001C435.611 209.334 434.963 209.523 434.098 209.569L430.67 209.75L430.32 203.121L433.559 202.95C434.367 202.907 434.994 203.029 435.439 203.316C435.891 203.602 436.131 204.011 436.159 204.541C436.176 204.863 436.113 205.154 435.968 205.415C435.83 205.676 435.626 205.886 435.356 206.046ZM431.906 204.196L431.988 205.758L433.513 205.678C433.892 205.658 434.175 205.576 434.364 205.433C434.553 205.29 434.64 205.09 434.627 204.831C434.613 204.572 434.505 204.384 434.303 204.269C434.1 204.146 433.809 204.095 433.43 204.115L431.906 204.196ZM433.923 208.42C434.327 208.398 434.627 208.316 434.822 208.173C435.023 208.029 435.117 207.818 435.102 207.541C435.073 206.991 434.651 206.738 433.837 206.781L432.047 206.876L432.133 208.514L433.923 208.42ZM443.944 209.049L443.724 205.072L441.946 208.452L441.255 208.489L439.145 205.4L439.351 209.292L437.911 209.368L437.561 202.739L438.83 202.672L441.529 206.66L443.755 202.412L445.014 202.345L445.383 208.973L443.944 209.049ZM446.606 202.261L448.14 202.18L448.49 208.81L446.956 208.89L446.606 202.261ZM451.153 203.275L449.031 203.387L448.965 202.137L454.742 201.832L454.808 203.082L452.687 203.194L452.971 208.573L451.437 208.654L451.153 203.275Z" fill="white"/>
        <g filter="url(#filter5_d)">
            <path fill-rule="evenodd" clip-rule="evenodd" d="M468.39 232.082C467.727 232.735 466.673 232.768 465.97 232.159L435.773 205.974C435.426 205.673 435.489 205.119 435.894 204.903C436.121 204.783 436.397 204.806 436.601 204.963L468.23 229.399C469.085 230.06 469.161 231.324 468.39 232.082Z" fill="#DA2336"/>
        </g>
        <path fill-rule="evenodd" clip-rule="evenodd" d="M516.593 235.021C514.041 235.527 511.761 235.393 510.884 234.794C508.686 233.293 511.669 224.345 514.808 221.527C517.947 218.709 528.14 220.671 526.122 227.773C525.422 230.238 523.637 232.018 521.513 233.23L519.682 246.661L511.914 243.853L516.593 235.021Z" fill="#B28B67"/>
        <path fill-rule="evenodd" clip-rule="evenodd" d="M515.069 217.913C514.444 219.642 515.289 221.544 516.962 222.251C517.829 222.905 519.003 223.58 520.36 224.176C520.041 224.634 519.759 225.185 519.524 225.836C519.316 226.412 519.159 227.045 519.052 227.707C519.483 227.458 519.971 227.37 520.38 227.518C521.525 227.932 521.982 229.162 521.62 230.162C521.161 231.431 520.097 232.084 519 231.771C519.295 233.968 520.124 235.842 521.455 236.323C523.983 237.237 527.002 234.507 528.316 230.873C528.362 230.745 528.406 230.617 528.446 230.49C529.09 231.386 529.604 232.443 530.123 233.507C531.224 235.768 532.343 238.063 534.749 238.933C539.563 240.673 544.985 231.654 538.259 229.223C533.685 227.569 531.194 227.423 528.898 227.708C528.905 226.492 528.65 225.375 528.166 224.484C528.064 224.229 527.868 223.949 527.59 223.655C527.424 223.466 527.243 223.297 527.047 223.147C526.033 222.295 524.449 221.379 522.581 220.629C522.232 220.489 521.886 220.36 521.546 220.243C522.185 218.458 521.26 216.491 519.475 215.846C517.688 215.2 515.715 216.125 515.069 217.913Z" fill="#191847"/>
        <path fill-rule="evenodd" clip-rule="evenodd" d="M528.454 303.79C528.454 303.79 516.069 307.254 507.084 307.254C498.099 307.254 490.392 301.919 490.392 301.919C490.392 301.919 502.511 298.364 510.353 298.364C518.196 298.364 528.454 303.79 528.454 303.79Z" fill="#00418D"/>
        <path fill-rule="evenodd" clip-rule="evenodd" d="M499.937 310.582C500.016 310.463 500.084 310.332 500.137 310.191C501.241 307.273 518.917 275.788 520.678 270.032H500.777C499.438 274.408 493.411 301.873 492.563 307.353C489.887 315.997 484.378 343.99 483.674 345.93C482.935 347.97 487.098 350.095 488.207 347.587C489.972 343.596 494.178 332.554 496.051 325.811C497.807 319.49 499.236 313.804 499.937 310.582Z" fill="#997659"/>
        <path fill-rule="evenodd" clip-rule="evenodd" d="M516.219 314.426C524.3 316.469 553.861 320.161 555.889 320.741C557.976 321.336 559.806 317.035 557.227 316.103C553.122 314.621 541.814 311.195 534.957 309.798C529.442 308.673 524.409 307.756 521.031 307.218C521.317 297.728 522.625 274.951 521.768 270.032H504.159C504.981 274.749 511.933 309.169 513.225 312.614C513.635 313.844 514.859 314.388 516.219 314.426Z" fill="#B28B67"/>
        <path fill-rule="evenodd" clip-rule="evenodd" d="M556.525 315.956C556.417 315.496 556.695 315.023 557.16 314.945C557.879 314.823 558.869 314.694 559.412 314.79C560.328 314.952 562.033 315.567 562.033 315.567C561.846 316.631 558.663 334.684 558.663 334.684C558.663 334.684 556.068 334.994 556.155 333.354C556.241 331.714 556.27 330.624 556.27 330.624L553.891 321.1C553.835 320.879 553.973 320.657 554.195 320.608L555.622 320.294C555.622 320.294 556.577 318.931 556.741 318.001C556.835 317.471 556.677 316.603 556.525 315.956Z" fill="#C9C9C9"/>
        <path fill-rule="evenodd" clip-rule="evenodd" d="M488.399 346.929C488.832 346.742 489.346 346.934 489.505 347.379C489.749 348.065 490.048 349.018 490.048 349.569C490.048 350.5 489.738 352.286 489.738 352.286C488.658 352.286 470.326 352.286 470.326 352.286C470.326 352.286 469.57 349.785 471.2 349.585C472.83 349.386 473.909 349.225 473.909 349.225L482.875 345.228C483.083 345.135 483.326 345.232 483.412 345.442L483.969 346.793C483.969 346.793 485.478 347.497 486.422 347.497C486.961 347.497 487.788 347.191 488.399 346.929Z" fill="#C9C9C9"/>
        <path fill-rule="evenodd" clip-rule="evenodd" d="M521.711 270.032C521.711 270.032 510.071 266.702 499.684 270.032C497.275 281.023 491.422 285.386 490.392 302.238C502.094 308.052 516.548 298.091 528.594 303.761C532.036 295.83 527.217 276.731 521.711 270.032Z" fill="#1D69B5"/>
        <path fill-rule="evenodd" clip-rule="evenodd" d="M472.361 233.64L482.598 242.625L477.262 246.286L470.519 236.641C466.33 234.416 464.489 233.062 464.997 232.577C465.426 232.168 465.94 232.3 466.414 232.422C466.783 232.517 467.128 232.605 467.388 232.427C467.981 232.02 467.468 230.018 466.9 228.139C466.331 226.26 467.304 226.63 467.826 226.998C469.424 228.691 470.936 230.905 472.361 233.64ZM529.225 297.135C528.655 294.926 529.356 274.703 529.356 274.703L522.309 273.265C522.309 273.265 524.448 295.674 524.7 297.071C525.027 298.885 523.374 301.077 522.253 302.564C522.08 302.794 521.919 303.007 521.78 303.199C522.759 303.906 523.399 303.431 524.073 302.929C524.835 302.363 525.642 301.763 527.03 302.799C527.567 303.199 528.061 303.642 528.544 304.076C530.211 305.573 531.743 306.949 534.418 305.98C534.842 305.826 535.436 305.039 534.582 304.149C532.457 301.933 529.504 298.214 529.225 297.135Z" fill="#B28B67"/>
        <path fill-rule="evenodd" clip-rule="evenodd" d="M516.472 257.388L516.33 254.372C504.637 245.643 485.766 245.161 473.372 234.034L470.13 238.085C478.025 260.388 501.106 261.258 516.472 257.388Z" fill="#E87613"/>
        <path fill-rule="evenodd" clip-rule="evenodd" d="M520.576 280.251C520.576 280.251 503.052 276.603 494.796 274.884C493.618 274.639 494.194 272.984 494.543 272.162C498.57 262.665 508.465 253.583 511.4 239.482L519.079 239.864C523.17 251.036 522.762 263.658 520.576 280.251Z" fill="#DDE3E9"/>
        <path fill-rule="evenodd" clip-rule="evenodd" d="M525.583 251.241C526.956 251.426 528.295 251.114 529.358 249.882C533.096 245.543 532.677 242.639 529.957 241.147C528.461 240.326 526.89 240.347 525.009 240.371C523.469 240.391 521.722 240.414 519.639 239.98C519.437 239.938 519.251 239.914 519.079 239.905L516.581 239.532C516.581 239.532 499.496 271.4 501.625 283.688L522.001 287.93C522.581 290.954 523.211 293.619 523.894 295.707L529.423 296.857C534.021 277.748 529.819 261.433 525.583 251.241Z" fill="#FF9B21"/>
        <path fill-rule="evenodd" clip-rule="evenodd" d="M522.002 287.93C521.241 283.962 520.57 279.376 519.985 274.663C518.418 279.393 516.475 284.068 514.386 286.344L522.002 287.93Z" fill="black" fill-opacity="0.1"/>
        <g filter="url(#filter6_bd)">
            <path d="M29.9279 144.361C29.8929 142.89 30.9892 141.636 32.4521 141.474L250.994 117.34C252.65 117.158 254.107 118.435 254.141 120.101L257.973 306.727C258.006 308.342 256.686 309.658 255.072 309.621L36.4469 304.571C34.9326 304.536 33.713 303.317 33.6769 301.803L29.9279 144.361Z" fill="white" fill-opacity="0.68"/>
            <path d="M31.3286 144.328C31.3108 143.583 31.8656 142.949 32.6059 142.867L251.148 118.733C251.986 118.64 252.723 119.287 252.74 120.13L256.572 306.756C256.589 307.573 255.921 308.239 255.104 308.221L36.4793 303.17C35.713 303.152 35.0958 302.536 35.0775 301.769L31.3286 144.328Z" stroke="#C13342" stroke-width="2.80202"/>
        </g>
        <g opacity="0.8">
            <line x1="85.4581" y1="232.507" x2="208.394" y2="229.579" stroke="#C13342" stroke-width="3.45569" stroke-linecap="round"/>
            <line x1="99.3943" y1="247.893" x2="195.206" y2="245.612" stroke="#C13342" stroke-width="3.45569" stroke-linecap="round"/>
        </g>
        <g filter="url(#filter7_d)">
            <rect x="81.8433" y="259.513" width="136.891" height="22.4968" rx="2.6154" transform="rotate(-1.36406 81.8433 259.513)" fill="#C13342"/>
        </g>
        <path d="M103.379 269.638L104.618 269.609L104.674 271.985C104.362 272.233 103.998 272.425 103.583 272.564C103.168 272.702 102.748 272.776 102.324 272.786C101.716 272.801 101.166 272.685 100.675 272.44C100.183 272.19 99.7927 271.839 99.503 271.388C99.2186 270.932 99.0695 270.414 99.0557 269.833C99.0419 269.253 99.1662 268.731 99.4286 268.267C99.6965 267.798 100.073 267.429 100.558 267.161C101.042 266.887 101.591 266.743 102.205 266.728C102.718 266.716 103.186 266.791 103.608 266.954C104.031 267.117 104.388 267.36 104.68 267.682L103.829 268.506C103.401 268.075 102.891 267.867 102.299 267.881C101.926 267.89 101.596 267.976 101.309 268.139C101.023 268.302 100.802 268.528 100.647 268.816C100.492 269.104 100.419 269.433 100.428 269.801C100.437 270.163 100.525 270.485 100.694 270.766C100.862 271.046 101.091 271.264 101.379 271.419C101.673 271.568 102.004 271.638 102.372 271.63C102.762 271.62 103.112 271.528 103.42 271.354L103.379 269.638ZM110.457 271.404L110.483 272.491L105.949 272.599L105.809 266.743L110.235 266.637L110.261 267.725L107.182 267.798L107.212 269.07L109.932 269.005L109.957 270.059L107.237 270.124L107.27 271.48L110.457 271.404ZM112.662 267.684L110.788 267.729L110.761 266.625L115.865 266.503L115.892 267.608L114.017 267.652L114.131 272.405L112.775 272.437L112.662 267.684ZM124.433 272.159L124.341 268.645L122.687 271.581L122.076 271.596L120.293 268.817L120.375 272.256L119.104 272.286L118.964 266.429L120.085 266.403L122.364 269.99L124.436 266.299L125.549 266.272L125.705 272.129L124.433 272.159ZM129.856 269.954L129.906 272.029L128.55 272.061L128.501 269.969L126.144 266.258L127.583 266.224L129.209 268.789L130.712 266.15L132.042 266.118L129.856 269.954ZM134.979 266.048L137.639 265.985C138.275 265.969 138.839 266.079 139.33 266.313C139.827 266.541 140.214 266.872 140.492 267.306C140.776 267.741 140.925 268.25 140.939 268.836C140.953 269.422 140.828 269.938 140.566 270.385C140.308 270.832 139.937 271.184 139.452 271.442C138.973 271.693 138.415 271.826 137.779 271.841L135.118 271.905L134.979 266.048ZM137.686 270.73C138.271 270.716 138.733 270.543 139.071 270.212C139.415 269.874 139.58 269.427 139.567 268.869C139.553 268.311 139.367 267.875 139.008 267.559C138.654 267.238 138.185 267.085 137.599 267.099L136.361 267.128L136.447 270.76L137.686 270.73ZM141.891 265.883L143.247 265.851L143.386 271.708L142.031 271.74L141.891 265.883ZM146.703 271.729C146.24 271.74 145.789 271.69 145.351 271.577C144.919 271.459 144.569 271.303 144.302 271.108L144.738 270.077C144.994 270.255 145.295 270.396 145.644 270.499C145.992 270.602 146.34 270.65 146.685 270.641C147.07 270.632 147.353 270.57 147.535 270.454C147.716 270.332 147.805 270.177 147.8 269.987C147.797 269.848 147.738 269.735 147.625 269.648C147.516 269.556 147.375 269.484 147.201 269.432C147.032 269.38 146.802 269.324 146.51 269.264C146.062 269.169 145.694 269.072 145.407 268.972C145.12 268.873 144.87 268.709 144.658 268.48C144.452 268.25 144.344 267.94 144.335 267.55C144.327 267.209 144.411 266.9 144.589 266.623C144.766 266.34 145.037 266.113 145.401 265.942C145.771 265.771 146.224 265.68 146.76 265.667C147.133 265.658 147.5 265.694 147.859 265.775C148.218 265.855 148.533 265.976 148.805 266.137L148.411 267.176C147.863 266.882 147.318 266.742 146.777 266.755C146.398 266.764 146.118 266.832 145.936 266.959C145.761 267.086 145.675 267.25 145.68 267.451C145.685 267.652 145.792 267.8 146.001 267.895C146.215 267.985 146.538 268.072 146.969 268.157C147.418 268.252 147.786 268.349 148.073 268.449C148.36 268.548 148.607 268.709 148.813 268.933C149.025 269.157 149.135 269.464 149.145 269.855C149.153 270.189 149.065 270.498 148.882 270.782C148.705 271.059 148.431 271.284 148.061 271.454C147.691 271.625 147.238 271.717 146.703 271.729ZM152.917 271.581C152.32 271.596 151.776 271.48 151.285 271.235C150.799 270.984 150.411 270.634 150.121 270.183C149.837 269.726 149.688 269.208 149.674 268.628C149.66 268.048 149.784 267.526 150.047 267.062C150.315 266.592 150.685 266.224 151.159 265.956C151.638 265.682 152.179 265.538 152.781 265.524C153.289 265.511 153.748 265.59 154.16 265.759C154.577 265.927 154.929 266.176 155.216 266.504L154.364 267.328C153.958 266.88 153.461 266.663 152.876 266.677C152.513 266.685 152.191 266.774 151.911 266.942C151.63 267.105 151.412 267.331 151.257 267.619C151.108 267.907 151.037 268.233 151.046 268.595C151.055 268.958 151.14 269.28 151.303 269.56C151.472 269.841 151.7 270.059 151.989 270.214C152.277 270.363 152.602 270.434 152.965 270.425C153.55 270.411 154.036 270.168 154.421 269.695L155.31 270.478C155.039 270.825 154.7 271.092 154.291 271.281C153.883 271.469 153.425 271.569 152.917 271.581ZM158.964 271.437C158.356 271.452 157.804 271.334 157.307 271.083C156.815 270.833 156.424 270.482 156.135 270.031C155.85 269.575 155.701 269.059 155.688 268.485C155.674 267.91 155.798 267.391 156.061 266.927C156.329 266.458 156.702 266.086 157.181 265.812C157.666 265.538 158.212 265.394 158.82 265.38C159.428 265.365 159.978 265.483 160.469 265.734C160.961 265.985 161.351 266.338 161.641 266.794C161.931 267.245 162.083 267.758 162.097 268.332C162.11 268.907 161.983 269.429 161.715 269.899C161.447 270.363 161.074 270.731 160.595 271.005C160.116 271.279 159.572 271.423 158.964 271.437ZM158.937 270.283C159.283 270.275 159.593 270.189 159.868 270.026C160.143 269.858 160.355 269.63 160.505 269.341C160.66 269.053 160.733 268.728 160.724 268.365C160.716 268.002 160.627 267.681 160.459 267.4C160.296 267.119 160.073 266.904 159.79 266.755C159.508 266.6 159.193 266.526 158.847 266.534C158.502 266.543 158.191 266.631 157.916 266.799C157.641 266.962 157.426 267.188 157.271 267.476C157.121 267.764 157.051 268.09 157.06 268.452C157.068 268.815 157.154 269.136 157.317 269.417C157.486 269.698 157.711 269.916 157.994 270.071C158.277 270.22 158.591 270.291 158.937 270.283ZM165.789 271.275C164.953 271.295 164.295 271.079 163.815 270.627C163.341 270.175 163.094 269.52 163.073 268.661L162.995 265.381L164.351 265.349L164.428 268.578C164.453 269.627 164.9 270.141 165.77 270.12C166.194 270.11 166.515 269.977 166.732 269.72C166.949 269.459 167.051 269.057 167.038 268.516L166.961 265.286L168.3 265.255L168.378 268.534C168.398 269.393 168.18 270.06 167.722 270.534C167.27 271.008 166.626 271.255 165.789 271.275ZM175.011 265.095L175.15 270.952L174.038 270.978L171.033 267.492L171.118 271.048L169.779 271.079L169.639 265.223L170.761 265.196L173.757 268.683L173.672 265.127L175.011 265.095ZM177.636 266.137L175.762 266.182L175.736 265.077L180.839 264.956L180.866 266.06L178.992 266.105L179.105 270.857L177.749 270.89L177.636 266.137ZM189.31 264.754L189.449 270.611L188.336 270.638L185.332 267.151L185.416 270.707L184.078 270.739L183.938 264.882L185.059 264.855L188.056 268.342L187.971 264.786L189.31 264.754ZM193.674 270.611C193.066 270.625 192.513 270.507 192.016 270.257C191.525 270.006 191.134 269.656 190.844 269.205C190.56 268.748 190.411 268.233 190.397 267.658C190.383 267.084 190.508 266.565 190.77 266.101C191.038 265.631 191.412 265.259 191.891 264.986C192.375 264.712 192.922 264.568 193.53 264.553C194.138 264.539 194.687 264.657 195.179 264.907C195.67 265.158 196.061 265.512 196.351 265.968C196.641 266.419 196.792 266.931 196.806 267.506C196.82 268.08 196.693 268.602 196.425 269.072C196.157 269.536 195.783 269.905 195.304 270.179C194.825 270.452 194.282 270.596 193.674 270.611ZM193.646 269.456C193.992 269.448 194.303 269.363 194.578 269.2C194.853 269.031 195.065 268.803 195.214 268.515C195.369 268.226 195.443 267.901 195.434 267.538C195.425 267.176 195.337 266.854 195.168 266.574C195.005 266.293 194.782 266.078 194.5 265.928C194.217 265.773 193.903 265.7 193.557 265.708C193.211 265.716 192.901 265.804 192.626 265.973C192.351 266.136 192.135 266.361 191.98 266.65C191.831 266.938 191.761 267.263 191.769 267.626C191.778 267.988 191.864 268.31 192.027 268.591C192.195 268.871 192.421 269.089 192.704 269.244C192.986 269.394 193.3 269.465 193.646 269.456ZM206.411 264.347L204.635 270.249L203.179 270.284L201.796 266.349L200.56 270.346L199.112 270.381L197.049 264.57L198.454 264.536L199.874 268.622L201.157 264.472L202.412 264.442L203.849 268.56L205.114 264.378L206.411 264.347Z" fill="white"/>
        <path opacity="0.08" d="M44.519 279.006C41.0991 279.087 38.2735 277.998 36.0422 275.737C33.8542 273.432 32.7136 270.322 32.6205 266.409C32.5273 262.497 33.5191 259.359 35.5959 256.996C37.7161 254.588 40.4861 253.343 43.9059 253.261C47.3258 253.18 50.1297 254.292 52.3177 256.598C54.5046 258.859 55.6446 261.946 55.7378 265.859C55.831 269.772 54.8397 272.932 52.764 275.339C50.6872 277.702 47.9388 278.924 44.519 279.006ZM70.7585 254.586C71.3472 253.677 72.3471 253.118 73.4297 253.092C76.061 253.029 77.6878 255.939 76.2569 258.148L49.8353 298.937C49.2466 299.846 48.2467 300.405 47.164 300.431C44.5328 300.494 42.9059 297.584 44.3368 295.375L70.7585 254.586ZM44.3887 273.537C45.8988 273.501 47.0609 272.85 47.8752 271.585C48.7338 270.319 49.134 268.463 49.0758 266.018C49.0175 263.572 48.5294 261.737 47.6115 260.514C46.738 259.289 45.5462 258.694 44.0362 258.73C42.5705 258.765 41.4089 259.438 40.5513 260.748C39.6927 262.015 39.292 263.848 39.3492 266.249C39.4063 268.65 39.8944 270.485 40.8134 271.753C41.7313 272.977 42.9231 273.572 44.3887 273.537ZM76.6878 300.262C74.4671 300.315 72.4564 299.851 70.6555 298.871C68.8979 297.845 67.5073 296.365 66.4836 294.432C65.4599 292.499 64.9174 290.243 64.856 287.664C64.7945 285.085 65.2291 282.806 66.1596 280.826C67.0901 278.846 68.4093 277.325 70.1171 276.261C71.8682 275.151 73.8541 274.57 76.0748 274.517C79.4947 274.436 82.2986 275.548 84.4866 277.854C86.7179 280.114 87.8801 283.201 87.9733 287.113C88.0665 291.026 87.053 294.187 84.9328 296.595C82.856 298.958 80.1077 300.18 76.6878 300.262ZM76.5576 294.793C78.0677 294.757 79.2298 294.106 80.044 292.841C80.9016 291.531 81.3018 289.675 81.2446 287.274C81.1874 284.873 80.6999 283.06 79.782 281.836C78.9074 280.567 77.7151 279.95 76.205 279.986C74.7394 280.021 73.5772 280.672 72.7186 281.938C71.86 283.204 71.4598 285.06 71.518 287.505C71.5763 289.951 72.0643 291.785 72.9822 293.009C73.9002 294.233 75.0919 294.828 76.5576 294.793Z" fill="url(#paint0_linear)"/>
        <path opacity="0.05" d="M224.324 294.257C222.701 294.331 221.349 293.85 220.266 292.812C219.204 291.752 218.631 290.305 218.547 288.469C218.463 286.633 218.903 285.149 219.865 284.018C220.847 282.866 222.15 282.252 223.773 282.178C225.396 282.104 226.738 282.597 227.8 283.656C228.862 284.695 229.434 286.132 229.518 287.968C229.602 289.804 229.163 291.298 228.202 292.45C227.24 293.581 225.947 294.183 224.324 294.257ZM236.537 282.516C236.807 282.084 237.272 281.812 237.781 281.789C239.029 281.732 239.828 283.099 239.166 284.159L227.049 303.56C226.779 303.992 226.314 304.264 225.805 304.287C224.557 304.344 223.758 302.977 224.42 301.918L236.537 282.516ZM224.207 291.691C224.924 291.658 225.469 291.341 225.843 290.738C226.238 290.135 226.409 289.26 226.356 288.112C226.304 286.965 226.054 286.109 225.605 285.544C225.178 284.978 224.606 284.711 223.89 284.744C223.194 284.776 222.649 285.104 222.256 285.728C221.861 286.331 221.689 287.196 221.74 288.323C221.792 289.45 222.042 290.306 222.491 290.891C222.94 291.456 223.511 291.723 224.207 291.691ZM239.813 303.898C238.76 303.946 237.8 303.75 236.935 303.308C236.09 302.845 235.415 302.165 234.909 301.269C234.404 300.372 234.123 299.318 234.068 298.108C234.013 296.898 234.196 295.824 234.618 294.885C235.04 293.946 235.651 293.217 236.451 292.7C237.271 292.161 238.208 291.867 239.262 291.819C240.885 291.745 242.227 292.238 243.29 293.297C244.372 294.335 244.955 295.772 245.039 297.607C245.123 299.443 244.673 300.938 243.691 302.091C242.729 303.222 241.436 303.824 239.813 303.898ZM239.696 301.332C240.413 301.299 240.958 300.982 241.332 300.379C241.726 299.755 241.897 298.88 241.846 297.753C241.794 296.627 241.544 295.781 241.096 295.216C240.668 294.629 240.096 294.352 239.379 294.385C238.683 294.417 238.138 294.734 237.743 295.338C237.348 295.941 237.177 296.817 237.23 297.964C237.282 299.111 237.532 299.968 237.981 300.533C238.429 301.097 239.001 301.364 239.696 301.332Z" fill="url(#paint1_linear)"/>
        <path opacity="0.05" d="M53.9275 164.024C51.8522 164.074 50.1375 163.414 48.7835 162.044C47.4557 160.647 46.7637 158.764 46.7072 156.393C46.6508 154.022 47.2527 152.121 48.5131 150.689C49.7998 149.23 51.4808 148.476 53.5561 148.426C55.6315 148.377 57.333 149.051 58.6607 150.448C59.9878 151.818 60.6796 153.688 60.736 156.059C60.7925 158.43 60.1908 160.344 58.9311 161.803C57.6707 163.235 56.0029 163.975 53.9275 164.024ZM69.8518 149.228C70.209 148.678 70.8151 148.339 71.4712 148.323C73.0678 148.285 74.0545 150.051 73.1852 151.391L57.1531 176.101C56.7959 176.651 56.1898 176.99 55.5337 177.005C53.9371 177.043 52.9504 175.278 53.8197 173.938L69.8518 149.228ZM53.8486 160.711C54.765 160.689 55.4703 160.295 55.9644 159.528C56.4855 158.761 56.7284 157.637 56.6931 156.155C56.6579 154.674 56.3617 153.562 55.8047 152.82C55.2746 152.078 54.5514 151.718 53.635 151.74C52.7456 151.761 52.0406 152.169 51.5202 152.963C50.9991 153.73 50.7559 154.841 50.7905 156.296C50.8252 157.75 51.1213 158.862 51.679 159.63C52.236 160.372 52.9592 160.732 53.8486 160.711ZM73.4488 176.902C72.1012 176.934 70.8809 176.653 69.7881 176.059C68.7215 175.438 67.8777 174.542 67.2565 173.37C66.6353 172.199 66.3061 170.832 66.2689 169.27C66.2317 167.707 66.4954 166.326 67.0602 165.127C67.6249 163.927 68.4255 163.005 69.4619 162.361C70.5246 161.689 71.7297 161.336 73.0774 161.304C75.1527 161.255 76.8543 161.929 78.182 163.326C79.536 164.695 80.2413 166.565 80.2977 168.936C80.3542 171.306 79.7391 173.221 78.4524 174.681C77.192 176.112 75.5241 176.853 73.4488 176.902ZM73.3699 173.589C74.2863 173.567 74.9915 173.173 75.4857 172.406C76.0061 171.612 76.249 170.488 76.2144 169.033C76.1798 167.578 75.8839 166.48 75.3269 165.739C74.7962 164.97 74.0727 164.596 73.1563 164.618C72.2668 164.639 71.5616 165.033 71.0405 165.8C70.5194 166.567 70.2765 167.692 70.3118 169.174C70.3471 170.655 70.6432 171.767 71.2002 172.508C71.7572 173.25 72.4805 173.61 73.3699 173.589Z" fill="url(#paint2_linear)"/>
        <path opacity="0.1" d="M214.467 191.295C212.93 191.366 211.649 190.909 210.624 189.927C209.618 188.923 209.075 187.553 208.996 185.814C208.917 184.076 209.333 182.671 210.244 181.6C211.174 180.508 212.407 179.927 213.944 179.857C215.481 179.787 216.752 180.253 217.758 181.257C218.763 182.24 219.305 183.601 219.385 185.34C219.464 187.078 219.049 188.493 218.138 189.584C217.227 190.655 216.003 191.225 214.467 191.295ZM226.031 180.178C226.287 179.768 226.727 179.511 227.209 179.489C228.391 179.435 229.148 180.729 228.521 181.733L217.047 200.104C216.791 200.514 216.351 200.771 215.869 200.793C214.687 200.847 213.93 199.553 214.557 198.549L226.031 180.178ZM214.356 188.865C215.034 188.834 215.55 188.534 215.904 187.963C216.278 187.392 216.44 186.563 216.391 185.476C216.341 184.39 216.104 183.579 215.68 183.044C215.275 182.508 214.734 182.256 214.055 182.287C213.397 182.317 212.881 182.628 212.508 183.219C212.134 183.79 211.971 184.609 212.02 185.676C212.069 186.743 212.306 187.554 212.731 188.108C213.155 188.643 213.697 188.896 214.356 188.865ZM229.134 200.425C228.136 200.47 227.227 200.284 226.408 199.866C225.608 199.428 224.969 198.784 224.49 197.935C224.011 197.085 223.746 196.088 223.693 194.942C223.641 193.796 223.815 192.779 224.214 191.89C224.613 191 225.192 190.311 225.95 189.821C226.726 189.31 227.614 189.032 228.611 188.987C230.148 188.916 231.42 189.383 232.426 190.386C233.45 191.369 234.003 192.729 234.082 194.468C234.161 196.206 233.736 197.621 232.806 198.713C231.895 199.784 230.671 200.355 229.134 200.425ZM229.023 197.995C229.701 197.964 230.218 197.663 230.572 197.093C230.945 196.502 231.107 195.673 231.058 194.606C231.009 193.539 230.773 192.738 230.348 192.203C229.943 191.648 229.401 191.385 228.722 191.416C228.064 191.446 227.548 191.747 227.174 192.319C226.8 192.89 226.638 193.719 226.687 194.805C226.737 195.892 226.974 196.703 227.398 197.238C227.823 197.773 228.364 198.025 229.023 197.995Z" fill="url(#paint3_linear)"/>
        <g filter="url(#filter8_d)">
            <path fill-rule="evenodd" clip-rule="evenodd" d="M108.128 162.735C106.48 162.959 104.933 163.659 103.678 164.75L83.0656 182.664C78.944 186.246 79.2013 192.724 83.5941 195.968L104.497 211.404C105.987 212.504 107.795 213.09 109.647 213.072L201.099 212.201C206.118 212.153 210.011 207.805 209.507 202.812L205.035 158.492C204.55 153.689 200.181 150.245 195.398 150.894L108.128 162.735ZM96.8999 194.991C100.475 194.906 103.304 191.939 103.219 188.364C103.134 184.789 100.167 181.959 96.5916 182.045C93.0165 182.13 90.1873 185.097 90.2725 188.672C90.3576 192.247 93.3248 195.076 96.8999 194.991Z" fill="#C13342"/>
        </g>
        <path d="M113.294 190.025C113.265 188.807 114.229 187.796 115.446 187.767L121.02 187.635C122.238 187.606 123.249 188.569 123.278 189.787C123.307 191.005 122.343 192.015 121.125 192.044L115.551 192.177C114.334 192.206 113.323 191.242 113.294 190.025Z" fill="white"/>
        <path d="M131.071 174.829C133.163 174.779 134.899 176.435 134.949 178.527L135.379 196.576C135.417 198.154 134.168 199.464 132.59 199.502C131.011 199.539 129.702 198.29 129.664 196.712L129.312 181.931C129.28 180.567 128.148 179.488 126.784 179.52L126.607 179.524C125.341 179.554 124.29 178.552 124.26 177.286C124.23 176.019 125.232 174.968 126.498 174.938L131.071 174.829Z" fill="white"/>
        <path d="M147.837 183.713C151.317 183.631 153.897 184.263 155.577 185.612C157.28 186.96 158.159 188.798 158.214 191.126C158.25 192.631 157.906 194.016 157.184 195.28C156.46 196.521 155.331 197.536 153.797 198.326C152.285 199.091 150.401 199.501 148.143 199.555C146.403 199.596 144.681 199.414 142.977 199.007C142.072 198.775 141.237 198.487 140.472 198.143C139.384 197.653 139.047 196.339 139.569 195.266C140.221 193.926 141.932 193.506 143.328 194.027C143.579 194.12 143.836 194.207 144.1 194.286C145.332 194.633 146.594 194.791 147.888 194.76C149.322 194.726 150.445 194.417 151.254 193.833C152.064 193.249 152.457 192.451 152.433 191.44C152.408 190.382 151.953 189.592 151.07 189.072C150.211 188.552 148.723 188.316 146.606 188.367L144.441 188.418C142.213 188.471 140.421 186.599 140.57 184.375L140.998 178.038C141.129 176.084 142.73 174.552 144.688 174.505L154.001 174.283C155.267 174.253 156.318 175.255 156.349 176.522C156.379 177.788 155.377 178.839 154.11 178.869L148.262 179.009C147.041 179.038 146.047 179.998 145.975 181.217L145.944 181.753C145.88 182.834 146.754 183.739 147.837 183.713Z" fill="white"/>
        <path d="M165.818 187.345C164.007 187.388 162.51 186.811 161.329 185.616C160.17 184.396 159.566 182.752 159.517 180.682C159.468 178.612 159.993 176.953 161.093 175.703C162.216 174.429 163.682 173.77 165.493 173.727C167.304 173.684 168.789 174.272 169.948 175.492C171.106 176.688 171.709 178.321 171.759 180.391C171.808 182.46 171.283 184.132 170.184 185.405C169.084 186.655 167.629 187.301 165.818 187.345ZM179.713 174.427C180.024 173.947 180.554 173.651 181.126 173.637C182.52 173.604 183.381 175.145 182.622 176.314L168.632 197.887C168.321 198.368 167.792 198.663 167.219 198.677C165.826 198.71 164.965 197.169 165.723 196L179.713 174.427ZM165.749 184.452C166.548 184.433 167.164 184.089 167.595 183.419C168.05 182.75 168.262 181.768 168.231 180.475C168.2 179.181 167.942 178.211 167.456 177.563C166.993 176.915 166.362 176.601 165.562 176.62C164.786 176.639 164.171 176.994 163.717 177.688C163.262 178.357 163.05 179.327 163.08 180.597C163.11 181.867 163.369 182.838 163.855 183.508C164.342 184.156 164.973 184.47 165.749 184.452ZM182.852 198.587C181.676 198.615 180.611 198.37 179.657 197.851C178.727 197.309 177.99 196.526 177.448 195.504C176.906 194.481 176.619 193.288 176.587 191.924C176.554 190.56 176.784 189.354 177.277 188.307C177.77 187.26 178.468 186.455 179.373 185.892C180.3 185.305 181.352 184.998 182.528 184.97C184.338 184.927 185.823 185.515 186.982 186.735C188.163 187.93 188.779 189.563 188.828 191.632C188.877 193.702 188.341 195.374 187.218 196.648C186.118 197.898 184.663 198.544 182.852 198.587ZM182.783 195.694C183.583 195.675 184.198 195.331 184.629 194.662C185.083 193.969 185.295 192.987 185.265 191.717C185.235 190.447 184.977 189.489 184.491 188.841C184.027 188.17 183.396 187.844 182.596 187.863C181.82 187.881 181.205 188.225 180.75 188.895C180.296 189.565 180.084 190.546 180.114 191.84C180.145 193.133 180.404 194.104 180.89 194.751C181.376 195.398 182.007 195.713 182.783 195.694Z" fill="white"/>
        <path fill-rule="evenodd" clip-rule="evenodd" d="M56.2831 239.397C52.56 240.911 50.7689 245.156 52.2825 248.879L54.5967 254.571C55.9695 257.948 59.5894 259.736 63.0288 258.91C63.0415 258.937 63.0543 258.964 63.0672 258.991L71.7559 255.459C72.6465 253.414 66.9958 244.302 64.6353 241.48C64.3037 241.083 64.0285 240.812 63.7981 240.645C61.7944 238.906 58.9089 238.33 56.2831 239.397Z" fill="#191847"/>
        <path fill-rule="evenodd" clip-rule="evenodd" d="M62.2889 253.797C64.7038 254.178 66.8391 253.968 67.64 253.373C69.6487 251.883 66.5178 243.59 63.466 241.06C60.4143 238.53 50.9154 240.748 53.0722 247.342C53.8209 249.632 55.5633 251.238 57.6032 252.297L59.8182 264.84L67.0088 261.917L62.2889 253.797Z" fill="#FDCEA3"/>
        <path fill-rule="evenodd" clip-rule="evenodd" d="M52.1377 247.767C52.2624 247.476 52.3831 247.194 52.5108 246.934L52.4061 246.704C52.4061 246.704 52.7847 241.167 56.2541 239.756C59.7205 238.347 61.4719 239.513 62.9606 240.504L62.9647 240.506C63.1572 242.377 61.9632 243.651 60.613 245.092C60.0316 245.712 59.4213 246.363 58.8802 247.106C58.5034 246.991 58.0862 247 57.6929 247.16C56.7828 247.53 56.345 248.568 56.7149 249.478C57.0849 250.388 58.1226 250.826 59.0327 250.456C59.0579 250.446 59.0828 250.435 59.1072 250.424C60.8852 253.848 62.4045 257.965 61.8094 259.331L53.1208 262.864C51.1096 258.632 51.728 256.94 52.36 255.211C52.9546 253.584 53.5612 251.924 52.0005 248.085C52.047 247.978 52.0926 247.872 52.1376 247.767L52.1377 247.767Z" fill="#191847"/>
        <path fill-rule="evenodd" clip-rule="evenodd" d="M56.944 294.946C60.0668 302.29 103.191 312.332 103.61 312.884C103.89 313.252 101.496 343.393 101.496 343.393L105.016 343.539C105.016 343.539 112.872 309.832 110.995 307.221C108.308 303.482 74.0441 289.199 74.0441 289.199L56.944 294.946Z" fill="#FDCEA3"/>
        <path fill-rule="evenodd" clip-rule="evenodd" d="M100.985 338.72L106.69 338.836C113.269 323.111 114.064 311.718 111.567 306.904C109.07 302.09 74.7267 288.896 74.7267 288.896L56.5854 295.088C63.1583 312.321 100.528 314.009 101.222 314.601C101.917 315.194 100.064 323.955 100.985 338.72Z" fill="#2F3676"/>
        <path fill-rule="evenodd" clip-rule="evenodd" d="M101.072 341.426C100.682 341.262 100.225 341.438 100.086 341.837C99.861 342.487 99.578 343.41 99.5833 343.938C99.5921 344.813 99.9005 346.488 99.9005 346.488C100.915 346.478 118.141 346.304 118.141 346.304C118.141 346.304 118.828 343.947 117.295 343.775C115.761 343.603 114.746 343.462 114.746 343.462L106.265 339.783C106.079 339.702 105.862 339.791 105.787 339.98L105.269 341.272C105.269 341.272 103.858 341.948 102.971 341.957C102.454 341.962 101.651 341.67 101.072 341.426Z" fill="#BE1F2F"/>
        <path fill-rule="evenodd" clip-rule="evenodd" d="M61.0309 293.551L58.1701 336.981L53.5748 374.44L57.2476 373.186L73.4804 289.302L61.0309 293.551Z" fill="#FDCEA3"/>
        <path fill-rule="evenodd" clip-rule="evenodd" d="M53.477 371.162C53.1005 370.971 52.6314 371.114 52.4651 371.503C52.1943 372.135 51.8466 373.036 51.8145 373.563C51.7915 373.94 51.8137 374.47 51.8463 374.951C51.8926 375.633 52.4422 376.159 53.1246 376.2C57.2119 376.45 70.1578 377.239 70.1578 377.239C70.1578 377.239 71.0106 374.936 69.4928 374.655C67.9751 374.375 66.9729 374.163 66.9729 374.163L58.774 369.892C58.5938 369.798 58.3717 369.871 58.2829 370.054L57.6752 371.306C57.6752 371.306 56.2194 371.88 55.3344 371.826C54.8182 371.795 54.0378 371.447 53.477 371.162Z" fill="#BE1F2F"/>
        <path fill-rule="evenodd" clip-rule="evenodd" d="M52.7005 367.281L61.3837 366.026C64.5274 354.595 77.9522 307.544 74.8038 288.849L56.6359 295.049C51.3359 311.15 55.4966 355.798 52.7005 367.281Z" fill="#5C63AB"/>
        <g filter="url(#filter9_d)">
            <path fill-rule="evenodd" clip-rule="evenodd" d="M100.16 272.384L89.6228 277.227L92.8613 282.375L100.631 275.66C105.074 275.302 107.167 274.819 106.909 274.211C106.692 273.699 106.199 273.622 105.745 273.55C105.391 273.494 105.061 273.442 104.903 273.191C104.684 272.843 105.093 272.485 105.715 271.94C106.115 271.59 106.603 271.163 107.069 270.611C108.259 269.202 107.282 269.158 106.695 269.282C106.136 269.522 105.556 269.728 104.962 269.938C103.421 270.485 101.783 271.065 100.16 272.384ZM48.9715 288.585L42.2166 288.43C39.8282 300.874 38.306 307.73 37.6501 308.999C37.1691 309.929 33.6872 312.718 31.2776 314.304C30.3105 314.94 30.6897 315.785 31.046 316.014C33.2937 317.46 34.9841 316.521 36.8243 315.497C37.357 315.201 37.9022 314.898 38.4772 314.644C39.9654 313.986 40.5786 314.703 41.1581 315.381C41.6712 315.981 42.1578 316.55 43.202 316.106C43.1151 315.902 43.0125 315.673 42.9017 315.426C42.1857 313.831 41.1297 311.478 41.8081 309.885C42.1562 309.068 44.544 301.968 48.9715 288.585Z" fill="#FDCEA3"/>
        </g>
        <path fill-rule="evenodd" clip-rule="evenodd" d="M62.2196 259.762L64.892 258.808C71.9096 263.58 76.8019 277.136 81.1242 278.289C85.2108 279.378 90.2744 276.748 96.2455 273.348L98.9582 277.366C94.2641 284.64 82.8572 292.085 77.3309 289.938C68.4956 286.506 63.6369 269.581 62.2196 259.762Z" fill="#00803E"/>
        <path fill-rule="evenodd" clip-rule="evenodd" d="M56.2586 296.481C56.2586 296.481 72.8279 293.585 80.6347 292.221C81.7485 292.027 81.2576 290.455 80.9548 289.671C77.4597 280.629 68.4412 271.8 66.1113 258.467L58.8874 258.593C54.7061 268.962 54.7073 280.83 56.2586 296.481Z" fill="#DDE3E9"/>
        <path fill-rule="evenodd" clip-rule="evenodd" d="M59.7052 258.45L58.4361 258.672C44.3635 271.146 37.4649 287.876 37.7404 308.863L43.0247 308.971C45.7194 304.438 48.7676 297.258 52.1692 287.431C51.5889 293.094 51.444 298.823 52.0116 304.118L73.9538 300.283C76.3258 288.806 61.2177 258.186 61.2177 258.186L59.7052 258.45L59.7052 258.45Z" fill="#10A866"/>
    </g>
    <defs>
        <filter id="filter0_bd" x="265.478" y="1.35255" width="301.48" height="277.214" filterUnits="userSpaceOnUse" color-interpolation-filters="sRGB">
            <feFlood flood-opacity="0" result="BackgroundImageFix"/>
            <feGaussianBlur in="BackgroundImage" stdDeviation="1.9884"/>
            <feComposite in2="SourceAlpha" operator="in" result="effect1_backgroundBlur"/>
            <feColorMatrix in="SourceAlpha" type="matrix" values="0 0 0 0 0 0 0 0 0 0 0 0 0 0 0 0 0 0 127 0"/>
            <feOffset dx="-14.0955" dy="14.0528"/>
            <feGaussianBlur stdDeviation="9.33376"/>
            <feColorMatrix type="matrix" values="0 0 0 0 0.145098 0 0 0 0 0.533333 0 0 0 0 0.909804 0 0 0 0.2 0"/>
            <feBlend mode="normal" in2="effect1_backgroundBlur" result="effect2_dropShadow"/>
            <feBlend mode="normal" in="SourceGraphic" in2="effect2_dropShadow" result="shape"/>
        </filter>
        <filter id="filter1_bd" x="332.502" y="147.115" width="198.033" height="50.8648" filterUnits="userSpaceOnUse" color-interpolation-filters="sRGB">
            <feFlood flood-opacity="0" result="BackgroundImageFix"/>
            <feGaussianBlur in="BackgroundImage" stdDeviation="2.1163"/>
            <feComposite in2="SourceAlpha" operator="in" result="effect1_backgroundBlur"/>
            <feColorMatrix in="SourceAlpha" type="matrix" values="0 0 0 0 0 0 0 0 0 0 0 0 0 0 0 0 0 0 127 0"/>
            <feOffset dy="4.2326"/>
            <feGaussianBlur stdDeviation="2.1163"/>
            <feColorMatrix type="matrix" values="0 0 0 0 0 0 0 0 0 0 0 0 0 0 0 0 0 0 0.06 0"/>
            <feBlend mode="normal" in2="effect1_backgroundBlur" result="effect2_dropShadow"/>
            <feBlend mode="normal" in="SourceGraphic" in2="effect2_dropShadow" result="shape"/>
        </filter>
        <filter id="filter2_d" x="394.701" y="37.5645" width="75.3404" height="78.208" filterUnits="userSpaceOnUse" color-interpolation-filters="sRGB">
            <feFlood flood-opacity="0" result="BackgroundImageFix"/>
            <feColorMatrix in="SourceAlpha" type="matrix" values="0 0 0 0 0 0 0 0 0 0 0 0 0 0 0 0 0 0 127 0"/>
            <feOffset dy="3.37893"/>
            <feGaussianBlur stdDeviation="1.68947"/>
            <feColorMatrix type="matrix" values="0 0 0 0 0 0 0 0 0 0 0 0 0 0 0 0 0 0 0.25 0"/>
            <feBlend mode="normal" in2="BackgroundImageFix" result="effect1_dropShadow"/>
            <feBlend mode="normal" in="SourceGraphic" in2="effect1_dropShadow" result="shape"/>
        </filter>
        <filter id="filter3_d" x="419.414" y="52.2444" width="25.4753" height="46.2035" filterUnits="userSpaceOnUse" color-interpolation-filters="sRGB">
            <feFlood flood-opacity="0" result="BackgroundImageFix"/>
            <feColorMatrix in="SourceAlpha" type="matrix" values="0 0 0 0 0 0 0 0 0 0 0 0 0 0 0 0 0 0 127 0"/>
            <feOffset dx="1.72475" dy="2.34737"/>
            <feColorMatrix type="matrix" values="0 0 0 0 0 0 0 0 0 0 0 0 0 0 0 0 0 0 0.25 0"/>
            <feBlend mode="normal" in2="BackgroundImageFix" result="effect1_dropShadow"/>
            <feBlend mode="normal" in="SourceGraphic" in2="effect1_dropShadow" result="shape"/>
        </filter>
        <filter id="filter4_d" x="394.386" y="192.499" width="83.3183" height="32.6344" filterUnits="userSpaceOnUse" color-interpolation-filters="sRGB">
            <feFlood flood-opacity="0" result="BackgroundImageFix"/>
            <feColorMatrix in="SourceAlpha" type="matrix" values="0 0 0 0 0 0 0 0 0 0 0 0 0 0 0 0 0 0 127 0"/>
            <feOffset dy="2.37086"/>
            <feGaussianBlur stdDeviation="1.18543"/>
            <feColorMatrix type="matrix" values="0 0 0 0 0 0 0 0 0 0 0 0 0 0 0 0 0 0 0.25 0"/>
            <feBlend mode="normal" in2="BackgroundImageFix" result="effect1_dropShadow"/>
            <feBlend mode="normal" in="SourceGraphic" in2="effect1_dropShadow" result="shape"/>
        </filter>
        <filter id="filter5_d" x="433.364" y="201.711" width="37.8544" height="38.114" filterUnits="userSpaceOnUse" color-interpolation-filters="sRGB">
            <feFlood flood-opacity="0" result="BackgroundImageFix"/>
            <feColorMatrix in="SourceAlpha" type="matrix" values="0 0 0 0 0 0 0 0 0 0 0 0 0 0 0 0 0 0 127 0"/>
            <feOffset dy="2.11905"/>
            <feGaussianBlur stdDeviation="1.05953"/>
            <feColorMatrix type="matrix" values="0 0 0 0 0 0 0 0 0 0 0 0 0 0 0 0 0 0 0.25 0"/>
            <feBlend mode="normal" in2="BackgroundImageFix" result="effect1_dropShadow"/>
            <feBlend mode="normal" in="SourceGraphic" in2="effect1_dropShadow" result="shape"/>
        </filter>
        <filter id="filter6_bd" x="18.101" y="113.359" width="260.752" height="229.143" filterUnits="userSpaceOnUse" color-interpolation-filters="sRGB">
            <feFlood flood-opacity="0" result="BackgroundImageFix"/>
            <feGaussianBlur in="BackgroundImage" stdDeviation="1.67786"/>
            <feComposite in2="SourceAlpha" operator="in" result="effect1_backgroundBlur"/>
            <feColorMatrix in="SourceAlpha" type="matrix" values="0 0 0 0 0 0 0 0 0 0 0 0 0 0 0 0 0 0 127 0"/>
            <feOffset dx="4.44616" dy="11.8581"/>
            <feGaussianBlur stdDeviation="7.87754"/>
            <feColorMatrix type="matrix" values="0 0 0 0 0.978166 0 0 0 0 0.158044 0 0 0 0 0.243661 0 0 0 0.16 0"/>
            <feBlend mode="normal" in2="effect1_backgroundBlur" result="effect2_dropShadow"/>
            <feBlend mode="normal" in="SourceGraphic" in2="effect2_dropShadow" result="shape"/>
        </filter>
        <filter id="filter7_d" x="79.751" y="256.255" width="141.572" height="29.9338" filterUnits="userSpaceOnUse" color-interpolation-filters="sRGB">
            <feFlood flood-opacity="0" result="BackgroundImageFix"/>
            <feColorMatrix in="SourceAlpha" type="matrix" values="0 0 0 0 0 0 0 0 0 0 0 0 0 0 0 0 0 0 127 0"/>
            <feOffset dy="2.09232"/>
            <feGaussianBlur stdDeviation="1.04616"/>
            <feColorMatrix type="matrix" values="0 0 0 0 0 0 0 0 0 0 0 0 0 0 0 0 0 0 0.25 0"/>
            <feBlend mode="normal" in2="BackgroundImageFix" result="effect1_dropShadow"/>
            <feBlend mode="normal" in="SourceGraphic" in2="effect1_dropShadow" result="shape"/>
        </filter>
        <filter id="filter8_d" x="77.9173" y="150.533" width="133.2" height="67.2649" filterUnits="userSpaceOnUse" color-interpolation-filters="sRGB">
            <feFlood flood-opacity="0" result="BackgroundImageFix"/>
            <feColorMatrix in="SourceAlpha" type="matrix" values="0 0 0 0 0 0 0 0 0 0 0 0 0 0 0 0 0 0 127 0"/>
            <feOffset dy="1.36521"/>
            <feGaussianBlur stdDeviation="0.682607"/>
            <feColorMatrix type="matrix" values="0 0 0 0 0 0 0 0 0 0 0 0 0 0 0 0 0 0 0.25 0"/>
            <feBlend mode="normal" in2="BackgroundImageFix" result="effect1_dropShadow"/>
            <feBlend mode="normal" in="SourceGraphic" in2="effect1_dropShadow" result="shape"/>
        </filter>
        <filter id="filter9_d" x="23.0147" y="269.13" width="92.7037" height="53.3216" filterUnits="userSpaceOnUse" color-interpolation-filters="sRGB">
            <feFlood flood-opacity="0" result="BackgroundImageFix"/>
            <feColorMatrix in="SourceAlpha" type="matrix" values="0 0 0 0 0 0 0 0 0 0 0 0 0 0 0 0 0 0 127 0"/>
            <feOffset dy="2.09232"/>
            <feGaussianBlur stdDeviation="1.04616"/>
            <feColorMatrix type="matrix" values="0 0 0 0 0 0 0 0 0 0 0 0 0 0 0 0 0 0 0.25 0"/>
            <feBlend mode="normal" in2="BackgroundImageFix" result="effect1_dropShadow"/>
            <feBlend mode="normal" in="SourceGraphic" in2="effect1_dropShadow" result="shape"/>
        </filter>
        <linearGradient id="paint0_linear" x1="71.1243" y1="255.706" x2="41.8255" y2="313.172" gradientUnits="userSpaceOnUse">
            <stop stop-color="white" stop-opacity="0.25"/>
            <stop offset="0.539896" stop-color="white"/>
            <stop offset="1" stop-color="white" stop-opacity="0.889582"/>
        </linearGradient>
        <linearGradient id="paint1_linear" x1="236.721" y1="283.04" x2="223.652" y2="310.449" gradientUnits="userSpaceOnUse">
            <stop stop-color="white" stop-opacity="0.25"/>
            <stop offset="0.539896" stop-color="white"/>
            <stop offset="1" stop-color="white" stop-opacity="0.889582"/>
        </linearGradient>
        <linearGradient id="paint2_linear" x1="70.0736" y1="149.907" x2="52.3392" y2="184.749" gradientUnits="userSpaceOnUse">
            <stop stop-color="white" stop-opacity="0.25"/>
            <stop offset="0.539896" stop-color="white"/>
            <stop offset="1" stop-color="white" stop-opacity="0.889582"/>
        </linearGradient>
        <linearGradient id="paint3_linear" x1="226.205" y1="180.673" x2="213.83" y2="206.628" gradientUnits="userSpaceOnUse">
            <stop stop-color="white" stop-opacity="0.25"/>
            <stop offset="0.539896" stop-color="white"/>
            <stop offset="1" stop-color="white" stop-opacity="0.889582"/>
        </linearGradient>
        <clipPath id="clip0">
            <rect width="545" height="395" fill="white" transform="translate(17)"/>
        </clipPath>
    </defs>
</svg>