<svg width="98" height="54" viewBox="0 0 98 54" fill="none" xmlns="http://www.w3.org/2000/svg">
<rect x="14.8863" y="0.778172" width="73.032" height="51.8947" rx="1.42265" fill="#F9F9F9" stroke="#6D6DAA" stroke-width="0.948434"/>
<path d="M56.5015 25.9346L76.4762 25.9346" stroke="#5D616B" stroke-width="2.99621" stroke-linecap="round" stroke-linejoin="round"/>
<path d="M56.5015 45.9094L68.4863 45.9094" stroke="#C5BDF2" stroke-width="2.99621" stroke-linecap="round" stroke-linejoin="round"/>
<path d="M55.5024 29.9296H72.481" stroke="#D2D2D2" stroke-width="0.998738" stroke-linecap="round" stroke-linejoin="round"/>
<path d="M55.5024 32.9258H68.486" stroke="#D2D2D2" stroke-width="0.998738" stroke-linecap="round" stroke-linejoin="round"/>
<path d="M55.5024 35.922H76.4759" stroke="#D2D2D2" stroke-width="0.998738" stroke-linecap="round" stroke-linejoin="round"/>
<path d="M55.5024 38.9182H64.4911" stroke="#D2D2D2" stroke-width="0.998738" stroke-linecap="round" stroke-linejoin="round"/>
<rect x="21.0993" y="23.4903" width="30.8557" height="24.8633" rx="1.6558" fill="#C5BDF2" stroke="#6D6DAA" stroke-width="1.10387"/>
<g filter="url(#filter0_d)">
<rect y="8.18091" width="98" height="15.5909" rx="2.22727" fill="white"/>
<rect y="8.18091" width="98" height="15.5909" rx="2.22727" fill="#6D6DAA" fill-opacity="0.06"/>
</g>
<path fill-rule="evenodd" clip-rule="evenodd" d="M33.4092 15.9801C33.4092 14.75 34.4064 13.7528 35.6365 13.7528L44.5455 13.7528C45.7756 13.7528 46.7728 14.75 46.7728 15.9801C46.7728 17.2102 45.7756 18.2074 44.5455 18.2074L35.6365 18.2074C34.4064 18.2074 33.4092 17.2102 33.4092 15.9801Z" fill="#C5BDF2"/>
<path fill-rule="evenodd" clip-rule="evenodd" d="M75.7275 15.9801C75.7275 14.75 76.7247 13.7528 77.9548 13.7528L86.8639 13.7528C88.094 13.7528 89.0912 14.75 89.0912 15.9801C89.0912 17.2102 88.094 18.2074 86.8639 18.2074L77.9548 18.2074C76.7247 18.2074 75.7275 17.2102 75.7275 15.9801Z" fill="#C5BDF2"/>
<path fill-rule="evenodd" clip-rule="evenodd" d="M50.0205 15.8859C50.0205 13.1182 52.2642 10.8745 55.0319 10.8745H68.3955C71.1632 10.8745 73.4069 13.1182 73.4069 15.8859C73.4069 18.6536 71.1632 20.8972 68.3955 20.8972H55.0319C52.2642 20.8972 50.0205 18.6536 50.0205 15.8859Z" fill="#6D6DAA"/>
<path d="M64.0925 14.4569H62.8862C62.9727 14.3938 63.0471 14.3311 63.0989 14.2749C63.4062 13.9447 63.4062 13.4071 63.0989 13.0769C62.8004 12.756 62.2796 12.7556 61.9807 13.0769C61.8156 13.254 61.3768 13.9752 61.4374 14.4569H61.4099C61.4702 13.9752 61.0317 13.254 60.8666 13.0769C60.5677 12.7556 60.0469 12.756 59.7484 13.0769C59.4411 13.4071 59.4411 13.9447 59.748 14.2749C59.8002 14.3311 59.8746 14.3938 59.9611 14.4569H58.7548C58.5447 14.4569 58.3735 14.6398 58.3735 14.8641V15.8822C58.3735 15.9946 58.4589 16.0858 58.5642 16.0858H58.7548V18.5291C58.7548 18.7535 58.926 18.9363 59.1361 18.9363H63.7112C63.9213 18.9363 64.0925 18.7535 64.0925 18.5291V16.0858H64.2831C64.3884 16.0858 64.4738 15.9946 64.4738 15.8822V14.8641C64.4738 14.6398 64.3026 14.4569 64.0925 14.4569ZM60.0187 13.364C60.0961 13.2809 60.1986 13.2353 60.3077 13.2353C60.4164 13.2353 60.5189 13.2809 60.5963 13.364C60.8533 13.6401 61.1087 14.3454 61.0199 14.4435C61.0199 14.4435 61.0039 14.4569 60.9494 14.4569C60.6859 14.4569 60.183 14.1645 60.0187 13.9878C59.8589 13.816 59.8589 13.5358 60.0187 13.364ZM61.233 18.5291H59.1361V16.0858H61.233V18.5291ZM61.233 15.6786H58.7548V14.8641H60.9494H61.233V15.6786ZM62.251 13.364C62.4058 13.1982 62.6742 13.1986 62.8286 13.364C62.9884 13.5358 62.9884 13.816 62.8286 13.9878C62.6643 14.1645 62.1614 14.4569 61.8979 14.4569C61.8434 14.4569 61.8274 14.4439 61.827 14.4435C61.7386 14.3454 61.994 13.6401 62.251 13.364ZM63.7112 18.5291H61.6143V16.0858H63.7112V18.5291ZM64.0925 15.6786H61.6143V14.8641H61.8979H64.0925V15.6786Z" fill="white" stroke="white" stroke-width="0.203341"/>
<circle cx="9.18734" cy="15.9777" r="4.08333" fill="#A6E3CB"/>
<defs>
<filter id="filter0_d" x="0" y="8.18091" width="98" height="20.0455" filterUnits="userSpaceOnUse" color-interpolation-filters="sRGB">
<feFlood flood-opacity="0" result="BackgroundImageFix"/>
<feColorMatrix in="SourceAlpha" type="matrix" values="0 0 0 0 0 0 0 0 0 0 0 0 0 0 0 0 0 0 127 0"/>
<feOffset dy="4.45455"/>
<feColorMatrix type="matrix" values="0 0 0 0 0.4 0 0 0 0 0.454902 0 0 0 0 0.807843 0 0 0 0.21 0"/>
<feBlend mode="normal" in2="BackgroundImageFix" result="effect1_dropShadow"/>
<feBlend mode="normal" in="SourceGraphic" in2="effect1_dropShadow" result="shape"/>
</filter>
</defs>
</svg>
