<svg width="29" height="29" viewBox="0 0 29 29" fill="none" xmlns="http://www.w3.org/2000/svg">
<path d="M28.9998 5.57358C27.9324 6.04313 26.7872 6.36158 25.5839 6.50375C26.8125 5.77328 27.753 4.61466 28.1988 3.23832C27.0463 3.91477 25.7741 4.40597 24.4186 4.67225C23.3332 3.52261 21.7892 2.80654 20.0767 2.80654C16.7913 2.80654 14.1274 5.45126 14.1274 8.71129C14.1274 9.17364 14.18 9.62523 14.2815 10.0571C9.33795 9.81054 4.95438 7.45909 2.02051 3.88598C1.50766 4.75678 1.21591 5.77145 1.21591 6.85457C1.21591 8.90379 2.26696 10.7119 3.86167 11.7698C2.88672 11.7374 1.96976 11.4711 1.16701 11.0285V11.1023C1.16701 13.9629 3.21837 16.3503 5.93838 16.8937C5.44003 17.0269 4.91452 17.1006 4.37087 17.1006C3.98672 17.1006 3.61522 17.0628 3.25097 16.9909C4.00842 19.3387 6.20478 21.0461 8.80704 21.0929C6.77198 22.6761 4.20597 23.6171 1.41891 23.6171C0.938704 23.6171 0.465703 23.5883 0 23.5361C2.63306 25.2147 5.75903 26.1935 9.11874 26.1935C20.0623 26.1935 26.0442 17.1942 26.0442 9.38958L26.0243 8.62496C27.1931 7.7973 28.2042 6.75742 28.9998 5.57358Z" fill="#82878C"/>
</svg>
